<svg width="67" height="75" viewBox="0 0 67 75" fill="none" xmlns="http://www.w3.org/2000/svg">
<path d="M47.39 35.3517L22.4216 48.7452L26.702 56.7247L51.6704 43.3312L47.39 35.3517Z" fill="#C6C6C6"/>
<path d="M46.1509 36.0143L22.4192 48.7444L26.6995 56.7239L50.4313 43.9937L46.1509 36.0143Z" fill="#878787"/>
<path d="M46.1537 36.0172L24.072 47.8622L28.3524 55.8417L50.434 43.9967L46.1537 36.0172Z" fill="#A1A5A6"/>
<path d="M1.71822 47.3385C2.74545 47.5285 3.38444 46.469 4.12049 45.9594C4.24586 45.9311 4.32675 46.1333 4.43998 46.3274C5.24883 47.7712 7.48124 48.5194 8.20921 46.6752C8.41546 45.83 7.80478 45.0939 7.43271 44.3902C7.21837 44.0101 6.99594 43.6299 7.3397 43.3023L7.67941 42.9222L7.76434 42.8251L7.80883 42.7806L7.88567 42.7038L8.21729 42.3883L9.56807 41.1427C10.478 40.3339 11.4082 39.4846 12.3141 38.6151C14.1178 36.8801 15.8568 34.9753 16.9771 32.6903C17.1048 32.4059 17.2155 32.1142 17.3087 31.8167C17.4462 31.4123 17.0418 31.3354 16.7466 31.1777L16.144 30.8906C15.7743 30.7118 15.3949 30.5539 15.0076 30.4174C14.9521 30.3994 14.8925 30.3983 14.8363 30.4141C14.7802 30.4299 14.73 30.462 14.6921 30.5064C14.5627 30.7167 14.4292 30.9108 14.2877 31.1252C13.0592 32.9909 11.6089 34.7006 9.96844 36.2168C9.11916 37.0257 8.21729 37.8345 7.3033 38.6838L5.92422 39.9335L5.75031 40.0912L5.66539 40.168L5.61686 40.2166L5.43486 40.3986L5.0628 40.7585C5.01066 40.7819 4.95415 40.7941 4.89698 40.7941C4.83982 40.7941 4.78331 40.7819 4.73117 40.7585C3.62305 40.1761 1.77888 40.257 0.893197 41.0214C-0.48993 42.2063 1.00644 43.274 2.17926 43.5409C2.40574 43.5935 2.27632 43.6218 2.17926 43.6946C0.828489 44.4832 -0.105728 46.7521 1.63733 47.3142L1.71822 47.3385Z" fill="#000307"/>
<path d="M61.4233 7.71315C60.4082 7.45836 59.7085 8.47346 58.9401 8.92642C58.8148 8.92642 58.746 8.73634 58.649 8.52199C57.9453 7.02159 55.818 6.09546 54.9808 7.81425C54.722 8.6231 55.2356 9.41172 55.547 10.1478C55.725 10.5522 55.907 10.9566 55.547 11.2316C55.4257 11.3449 55.3003 11.4581 55.1709 11.5673L55.0739 11.6482L55.0294 11.6886L54.8919 11.7816C54.7018 11.9191 54.5117 12.0486 54.3176 12.1861C53.5465 12.7253 52.7565 13.22 51.9477 13.6703C50.3356 14.6147 48.6424 15.4132 46.8883 16.0564C43.4102 17.3788 39.666 17.8489 35.9689 17.4274C35.6697 17.4274 35.3825 17.3869 35.0873 17.3748C34.6829 17.3465 34.6829 17.7509 34.5898 18.0785C34.5413 18.2848 34.4887 18.5032 34.4321 18.7256C34.3291 19.1238 34.2574 19.5294 34.2178 19.9389C34.2232 20.0074 34.2492 20.0728 34.2926 20.1262C34.3359 20.1797 34.3944 20.2187 34.4604 20.2381C34.7767 20.3396 35.0979 20.4247 35.423 20.4929C36.5054 20.7044 37.6042 20.8221 38.7069 20.8448C39.7957 20.8769 40.8855 20.8255 41.9665 20.6911C44.0875 20.428 46.1699 19.9148 48.1704 19.1624C50.1125 18.4285 51.9879 17.5287 53.7757 16.4729C54.6573 15.9593 55.5147 15.4214 56.3518 14.8553L56.6632 14.645L56.8169 14.5439L56.8695 14.5034L57.0838 14.3416L57.4883 14.0141C57.5427 13.9938 57.6008 13.9854 57.6587 13.9896C57.7167 13.9938 57.773 14.0104 57.8239 14.0383C58.8714 14.738 60.7884 14.7905 61.763 14.0707C63.2756 12.9585 61.8318 11.8019 60.6832 11.4541C60.4567 11.3853 60.5902 11.3651 60.6832 11.3004C62.1108 10.6209 63.1744 8.39662 61.4678 7.72124L61.4233 7.71315Z" fill="#000307"/>
<path d="M9.22833 6.73849L19.6907 1.12915C21.6145 0.0978733 23.869 -0.126986 25.9585 0.504033C28.048 1.13505 29.8013 2.57026 30.8326 4.49395L47.3897 35.3555L22.4206 48.7499L5.86353 17.8844C4.83208 15.9601 4.60711 13.7049 5.2381 11.6147C5.86909 9.52458 7.30437 7.77061 9.22833 6.73849Z" fill="#90DAF4"/>
<path d="M9.04638 6.83559L18.6231 1.69538C19.5524 1.19535 20.5711 0.883429 21.621 0.777459C22.6709 0.67149 23.7313 0.773551 24.7418 1.0778C25.7522 1.38206 26.6927 1.88253 27.5095 2.5506C28.3263 3.21866 29.0034 4.04122 29.5021 4.9712L46.1522 36.0187L22.4206 48.75L5.76651 17.7024C4.7608 15.8264 4.54135 13.6277 5.15641 11.5899C5.77147 9.55208 7.17069 7.84196 9.04638 6.83559Z" fill="#2D97D1"/>
<path d="M10.4456 6.08737L18.8859 1.55784C20.696 0.588088 22.8171 0.376909 24.7828 0.970731C26.7486 1.56455 28.398 2.91476 29.3685 4.72447L46.1521 36.0187L24.0665 47.8643L7.29915 16.5781C6.8164 15.6828 6.51484 14.7011 6.41171 13.6892C6.30859 12.6773 6.40591 11.6549 6.69812 10.6806C6.99033 9.70634 7.4717 8.79919 8.11472 8.01105C8.75773 7.22291 9.54977 6.56923 10.4456 6.08737Z" fill="#70C4E8"/>
<path d="M26.6427 57.0527L22.1941 48.7176L47.4988 35.133L51.9475 43.4682L26.6427 57.0527ZM22.7198 48.8834L26.8086 56.5067L51.4217 43.3023L47.3371 35.683L22.7198 48.8834Z" fill="#1D1D1B"/>
<path d="M22.3641 49.0735L5.71399 18.03C4.66014 16.0585 4.43106 13.7495 5.07697 11.6094C5.72289 9.46919 7.19109 7.67248 9.15967 6.61314L19.6221 1.0038C20.5976 0.479658 21.6669 0.152904 22.7687 0.0422106C23.8706 -0.0684824 24.9835 0.0390565 26.0437 0.358681C27.104 0.678305 28.0909 1.20375 28.948 1.90498C29.8051 2.60621 30.5156 3.46947 31.0389 4.44544L47.689 35.4849L22.3641 49.0735ZM9.35379 6.96904C7.48151 7.97986 6.08625 9.69163 5.47374 11.7293C4.86123 13.7669 5.08142 15.9643 6.08606 17.8399L22.5299 48.5275L47.1431 35.3272L30.6831 4.63956C29.6759 2.76359 27.965 1.3643 25.9266 0.749265C23.8881 0.134234 21.6888 0.353796 19.8122 1.35969L9.35379 6.96904Z" fill="#1D1D1B"/>
<path d="M49.1748 41.7691L41.5952 45.8367L41.7864 46.193L49.3661 42.1255L49.1748 41.7691Z" fill="#1D1D1B"/>
<path d="M47.3073 40.1991L38.6194 44.8615L38.8106 45.2178L47.4985 40.5555L47.3073 40.1991Z" fill="#1D1D1B"/>
<path d="M47.0334 37.7818L24.3408 49.9597L24.5321 50.316L47.2246 38.1382L47.0334 37.7818Z" fill="#1D1D1B"/>
<path d="M31.5959 48.4838L24.3584 52.3677L24.5496 52.7241L31.7872 48.8401L31.5959 48.4838Z" fill="#1D1D1B"/>
<path d="M33.7163 49.7686L27.2021 53.2643L27.3934 53.6207L33.9075 50.1249L33.7163 49.7686Z" fill="#1D1D1B"/>
<path d="M49.5556 50.2272C51.3917 50.2003 53.2264 50.2515 55.0598 50.3809C56.8675 50.5103 58.8937 51.3839 60.5842 52.035C60.6165 52.035 60.5842 52.0997 60.5559 52.0916C60.5276 52.0835 60.5154 52.0391 60.5316 52.0107C60.528 51.4548 60.6361 50.9039 60.8493 50.3905C61.0626 49.8771 61.3768 49.4118 61.7732 49.0221C62.6101 48.33 63.5911 47.8339 64.6446 47.5702C64.9578 47.4637 65.2895 47.4224 65.6193 47.4489C65.7841 47.4661 65.9414 47.5268 66.075 47.6249C66.2086 47.723 66.3137 47.8548 66.3796 48.007C66.4445 48.3053 66.409 48.6167 66.2785 48.8926C65.2593 51.8261 64.1633 54.7285 62.9905 57.5999C62.8732 57.887 62.7236 58.2025 62.4284 58.2914C62.2157 58.3298 61.9963 58.3 61.8015 58.2065C59.5731 57.3977 57.4297 56.3421 55.1285 55.78C52.8274 55.2178 50.2755 55.2178 48.2331 56.4311C47.7516 55.9641 47.463 55.3334 47.4243 54.6638C47.3858 53.9967 47.4679 53.3281 47.6669 52.6902C47.9379 51.6993 48.5243 50.2434 49.5556 50.2272Z" fill="#FEC22C"/>
<path d="M62.4244 58.9507C62.3964 58.9564 62.3675 58.9564 62.3395 58.9507C60.188 57.9477 57.9677 56.9286 55.622 56.3543C53.0256 55.7395 50.5991 55.8285 48.6094 56.6171C48.5847 56.627 48.5583 56.6319 48.5317 56.6315C48.5051 56.6312 48.4789 56.6256 48.4544 56.615C48.43 56.6045 48.4079 56.5893 48.3894 56.5702C48.3709 56.5512 48.3563 56.5286 48.3465 56.5039C48.3277 56.454 48.329 56.3987 48.3501 56.3496C48.3712 56.3006 48.4105 56.2617 48.4597 56.241C50.5263 55.4322 53.0378 55.327 55.7393 55.962C58.0567 56.512 60.2406 57.515 62.3557 58.5018C63.4033 56.3349 64.3151 54.1049 65.0855 51.8247L66.1532 48.8765C66.2736 48.6422 66.3066 48.3726 66.2462 48.1162C66.0319 47.6268 65.126 47.8493 64.948 47.8978C63.8035 48.2173 62.384 48.7066 61.5468 49.8309C60.8748 50.8029 60.6012 51.9957 60.7825 53.1634C60.9254 54.1838 61.2113 55.179 61.6318 56.1197C61.6422 56.1346 61.6504 56.1509 61.656 56.1682L61.834 56.5969C61.8543 56.6458 61.8548 56.7007 61.8351 56.7498C61.8154 56.799 61.7773 56.8385 61.7288 56.8598C61.6794 56.8803 61.6239 56.8809 61.5741 56.8612C61.5243 56.8416 61.4841 56.8034 61.4619 56.7547C60.923 55.6354 60.551 54.4431 60.3578 53.216C60.1597 51.9391 60.4626 50.6351 61.2031 49.5761C62.113 48.3629 63.6296 47.8331 64.8186 47.5015C65.7043 47.2548 66.3676 47.4246 66.594 47.9463C66.707 48.2965 66.678 48.677 66.5132 49.0059L65.4455 51.9541C64.6567 54.3132 63.711 56.6168 62.6145 58.8496C62.5956 58.8826 62.5677 58.9096 62.534 58.9275C62.5004 58.9454 62.4624 58.9534 62.4244 58.9507Z" fill="#000307"/>
<path d="M59.3752 51.8935C59.3412 51.8951 59.3074 51.8867 59.2781 51.8692L59.0153 51.7277C58.991 51.7137 58.9692 51.696 58.9506 51.6751C58.2486 51.3363 57.4958 51.115 56.7222 51.02C54.5076 50.6491 52.26 50.5135 50.0169 50.6155C49.9635 50.6167 49.9118 50.5971 49.8726 50.5609C49.8333 50.5247 49.8097 50.4747 49.8066 50.4214C49.8055 50.3949 49.8096 50.3683 49.8188 50.3434C49.828 50.3184 49.842 50.2955 49.86 50.276C49.878 50.2565 49.8998 50.2407 49.9239 50.2296C49.948 50.2184 49.9741 50.2122 50.0007 50.2111C52.2707 50.111 54.5449 50.2465 56.7869 50.6155C57.7416 50.7218 58.6627 51.0307 59.4884 51.5214C59.5312 51.5503 59.5614 51.5945 59.5726 51.6449C59.5839 51.6952 59.5755 51.748 59.5491 51.7924C59.5318 51.8232 59.5065 51.8489 59.4759 51.8667C59.4454 51.8844 59.4106 51.8937 59.3752 51.8935Z" fill="#000307"/>
<path d="M31.221 59.4024C30.5847 61.1253 30.0226 62.8778 29.5346 64.6599C29.0573 66.407 29.2029 68.6071 29.2555 70.4189C29.2555 70.4553 29.3202 70.4472 29.3202 70.4189C29.3202 70.3906 29.2838 70.3623 29.2515 70.3704C28.7281 70.1806 28.1719 70.0983 27.6161 70.1281C27.0602 70.158 26.5161 70.2996 26.0161 70.5443C25.0854 71.1038 24.291 71.8637 23.6906 72.7686C23.4859 73.0278 23.3371 73.3266 23.2539 73.6462C23.2134 73.807 23.2172 73.9757 23.2649 74.1345C23.3126 74.2933 23.4024 74.4362 23.5248 74.5481C23.7846 74.7092 24.0902 74.7802 24.3943 74.7503C27.5003 74.7503 30.6009 74.6829 33.6961 74.5481C33.8489 74.5615 34.0029 74.5418 34.1474 74.4901C34.2919 74.4384 34.4235 74.3561 34.5332 74.2488C34.6414 74.0602 34.6868 73.8421 34.6626 73.626C34.6424 71.2561 34.3593 68.8821 34.5979 66.5284C34.8365 64.1746 35.6858 61.7562 37.5057 60.2436C37.2294 59.6285 36.7311 59.1404 36.1105 58.8767C35.4929 58.6265 34.8353 58.4895 34.1692 58.4723C33.1501 58.3671 31.5648 58.4359 31.221 59.4024Z" fill="#FEC22C"/>
<path d="M24.3781 74.993C24.0326 75.0282 23.6867 74.9298 23.4115 74.718C23.0071 74.3135 23.0556 73.6462 23.5814 72.89C24.2972 71.8668 25.3002 70.6333 26.7399 70.1723C27.9799 69.8302 29.3036 69.9749 30.4404 70.5767C31.5342 71.1643 32.5346 71.9112 33.4089 72.7929C33.4439 72.8303 33.4634 72.8796 33.4634 72.9308C33.4635 72.9821 33.4441 73.0314 33.4092 73.0689C33.3742 73.1064 33.3264 73.1292 33.2753 73.1328C33.2242 73.1364 33.1736 73.1204 33.1338 73.0881L32.778 72.7929C32.7627 72.7826 32.7502 72.7687 32.7416 72.7525C31.9998 72.0386 31.1611 71.4327 30.2503 70.9528C29.2117 70.3873 27.9955 70.2425 26.8532 70.5484C25.5267 70.9528 24.5803 72.1377 23.9009 73.1124C23.7957 73.262 23.2821 74.0466 23.6744 74.4066C23.8956 74.5504 24.1613 74.6093 24.4226 74.5724L27.5569 74.5522C29.9628 74.5825 32.3684 74.4636 34.7596 74.1963C34.5331 71.8749 34.3148 69.4807 34.5695 67.1108C34.8607 64.3728 35.7828 62.0393 37.2468 60.3609C37.2639 60.3397 37.2852 60.3221 37.3093 60.3093C37.3334 60.2965 37.3598 60.2887 37.387 60.2863C37.4142 60.284 37.4416 60.2872 37.4675 60.2957C37.4935 60.3043 37.5174 60.318 37.5379 60.336C37.5584 60.354 37.575 60.376 37.5868 60.4007C37.5985 60.4253 37.6052 60.452 37.6063 60.4793C37.6075 60.5066 37.6031 60.5338 37.5934 60.5593C37.5838 60.5849 37.5691 60.6082 37.5501 60.6279C36.1468 62.2456 35.253 64.4982 34.9699 67.1553C34.7151 69.5454 34.9699 71.9881 35.1802 74.3499C35.1859 74.4019 35.1708 74.454 35.1383 74.495C35.1057 74.5359 35.0583 74.5622 35.0063 74.5683C32.536 74.8656 30.0489 75.0007 27.5609 74.9728L24.4226 74.993H24.3781Z" fill="#000307"/>
<path d="M29.3362 69.3553C29.2914 69.3548 29.248 69.3394 29.2129 69.3116C29.1777 69.2838 29.1528 69.2451 29.1421 69.2016C28.956 68.2655 28.9712 67.3005 29.1866 66.3706C29.5808 64.1319 30.207 61.9402 31.055 59.8311C31.0764 59.7826 31.1156 59.7442 31.1646 59.7239C31.2135 59.7036 31.2684 59.7029 31.3179 59.7219C31.3426 59.7317 31.3651 59.7463 31.3842 59.7648C31.4033 59.7834 31.4185 59.8055 31.429 59.8299C31.4395 59.8543 31.4451 59.8806 31.4455 59.9071C31.4459 59.9337 31.441 59.9601 31.4311 59.9848C30.5905 62.0712 29.9711 64.24 29.5829 66.4556C29.418 67.2178 29.377 68.0017 29.4616 68.777C29.4752 68.8023 29.4847 68.8296 29.4899 68.8578L29.5384 69.1531C29.5447 69.2047 29.5317 69.2568 29.5018 69.2994C29.4719 69.342 29.4274 69.372 29.3767 69.3836L29.3362 69.3553Z" fill="#000307"/>
<path d="M20.1302 21.8667C20.5948 22.5487 21.3024 23.0274 22.1084 23.2048C22.9143 23.3822 23.7575 23.245 24.4656 22.8212C25.2763 22.3954 25.9275 21.7186 26.3219 20.8921C26.5985 20.0797 26.6734 19.2122 26.5403 18.3644C26.5362 18.2048 26.4709 18.0529 26.358 17.94C26.2452 17.8271 26.0932 17.7619 25.9336 17.7578C25.7734 17.7599 25.6203 17.8245 25.507 17.9378C25.3937 18.0511 25.3291 18.2042 25.327 18.3644C25.4327 19.0199 25.4038 19.69 25.2421 20.334C24.9943 20.9116 24.5561 21.3869 24.0005 21.6807C23.7415 21.8573 23.4522 21.9848 23.1472 22.0568C22.9133 22.1013 22.6732 22.1013 22.4394 22.0568C21.9293 21.9624 21.4764 21.6721 21.1776 21.248C21.0947 21.1168 20.9656 21.0215 20.8158 20.9811C20.666 20.9406 20.5064 20.9579 20.3688 21.0296C20.2361 21.1111 20.1396 21.2403 20.099 21.3907C20.0584 21.541 20.0768 21.7012 20.1504 21.8384L20.1302 21.8667Z" fill="#1E222D"/>
<path d="M16.4702 13.7662C17.3842 15.4648 16.6441 17.6365 14.8201 18.6193C12.9962 19.602 10.7759 19.0237 9.86597 17.313C8.95602 15.6023 9.69611 13.4386 11.5201 12.4599C13.344 11.4812 15.5602 12.0636 16.4702 13.7662Z" fill="#FCF9F0"/>
<path d="M16.1504 14.5912C16.4257 15.1002 16.5438 15.6794 16.4897 16.2556C16.4356 16.8317 16.2118 17.3788 15.8465 17.8277C15.4813 18.2766 14.9911 18.607 14.438 18.777C13.8849 18.9471 13.2937 18.9493 12.7394 18.7832C12.185 18.6171 11.6924 18.2903 11.324 17.8441C10.9555 17.3979 10.7277 16.8524 10.6694 16.2767C10.6111 15.7009 10.725 15.1209 10.9966 14.6099C11.2682 14.0989 11.6853 13.68 12.1951 13.4062C12.8768 13.0389 13.6764 12.9574 14.4181 13.1797C15.1599 13.4019 15.783 13.9096 16.1504 14.5912Z" fill="#1E222D"/>
<path d="M14.1689 14.4294C14.3129 14.6674 14.3823 14.9432 14.368 15.221C14.3537 15.4989 14.2565 15.7661 14.0888 15.9881C13.9212 16.2101 13.6908 16.3767 13.4275 16.4665C13.1641 16.5563 12.8799 16.565 12.6116 16.4916C12.3432 16.4182 12.103 16.266 11.922 16.0547C11.7411 15.8435 11.6276 15.5827 11.5962 15.3063C11.5649 15.0299 11.6172 14.7504 11.7463 14.504C11.8755 14.2575 12.0755 14.0555 12.3207 13.9239C12.4752 13.8357 12.6456 13.7789 12.8221 13.7565C12.9987 13.7342 13.1778 13.7469 13.3495 13.7939C13.5211 13.8408 13.6818 13.9211 13.8224 14.0301C13.963 14.1392 14.0807 14.2749 14.1689 14.4294Z" fill="#FBFDFC"/>
<path d="M27.7817 7.69981C28.6957 9.39839 27.9556 11.5701 26.1317 12.5529C24.3077 13.5356 22.0874 12.9573 21.1775 11.2466C20.2675 9.53589 21.0076 7.37223 22.8316 6.39352C24.6555 5.41482 26.8718 5.99719 27.7817 7.69981Z" fill="#FCF9F0"/>
<path d="M27.4622 8.52482C27.7375 9.03382 27.8556 9.61306 27.8015 10.1892C27.7474 10.7654 27.5235 11.3125 27.1583 11.7614C26.7931 12.2102 26.3029 12.5406 25.7497 12.7107C25.1966 12.8808 24.6055 12.8829 24.0511 12.7169C23.4968 12.5508 23.0042 12.224 22.6357 11.7778C22.2672 11.3316 22.0394 10.7861 21.9812 10.2103C21.9229 9.63459 22.0368 9.05451 22.3084 8.54353C22.58 8.03255 22.9971 7.61364 23.5069 7.33986C24.1886 6.97259 24.9882 6.8911 25.7299 7.11331C26.4716 7.33553 27.0947 7.84325 27.4622 8.52482Z" fill="#1E222D"/>
<path d="M25.4643 8.36308C25.6083 8.6011 25.6777 8.87684 25.6634 9.15469C25.6491 9.43253 25.5519 9.69972 25.3842 9.92174C25.2166 10.1438 24.9862 10.3104 24.7229 10.4002C24.4595 10.4899 24.1753 10.4987 23.907 10.4253C23.6386 10.3519 23.3984 10.1997 23.2175 9.9884C23.0365 9.77711 22.923 9.5164 22.8917 9.23996C22.8603 8.96352 22.9126 8.68403 23.0418 8.4376C23.1709 8.19118 23.3709 7.98913 23.6161 7.85755C23.7706 7.76938 23.941 7.71251 24.1175 7.6902C24.2941 7.66789 24.4733 7.68056 24.6449 7.72751C24.8165 7.77445 24.9772 7.85474 25.1178 7.96379C25.2584 8.07284 25.3761 8.20852 25.4643 8.36308Z" fill="#FBFDFC"/>
<path d="M63.2119 46.175C54.949 45.689 49.6429 39.6943 48.0228 37.0615L23.7201 50.428C26.6364 57.7188 24.5302 64.1995 23.1125 66.2247C33.8057 66.7108 54.3009 53.0608 63.2119 46.175Z" fill="white" stroke="black" stroke-width="0.36454"/>
<path d="M27.8706 29.1177L37.6987 18.227L36.3544 30.7221C35.1915 28.5881 30.214 28.7633 27.8706 29.1177Z" fill="#FEC22C" stroke="black" stroke-width="0.36454"/>
<path d="M27.8706 29.1177L13.3911 31.4725L24.6197 37.1164C23.4568 34.9824 26.3024 30.8948 27.8706 29.1177Z" fill="#FEC22C" stroke="black" stroke-width="0.36454"/>
<path d="M30.291 30.5667L27.8709 29.1178L27.3573 32.1653L28.7769 32.7755L33.3339 44.1307L37.7551 47.2568L37.5249 41.847L30.0342 32.0904L30.291 30.5667Z" fill="#FEC22C" stroke="black" stroke-width="0.36454"/>
</svg>
