<svg width="41" height="77" viewBox="0 0 41 77" fill="none" xmlns="http://www.w3.org/2000/svg">
<g clip-path="url(#clip0_3_12479)">
<path d="M28.3131 51.3994H19.9692V52.3046H28.3131V51.3994Z" fill="#C6C6C6"/>
<path d="M28.3131 52.3046H19.9692V53.2099H28.3131V52.3046Z" fill="#C6C6C6"/>
<path d="M28.3131 53.2099H19.9692V54.1152H28.3131V53.2099Z" fill="#C6C6C6"/>
<path d="M28.3131 51.3994H20.575V52.3046H28.3131V51.3994Z" fill="#878787"/>
<path d="M28.3131 52.3046H20.575V53.2099H28.3131V52.3046Z" fill="#878787"/>
<path d="M28.3131 53.2099H20.575V54.1152H28.3131V53.2099Z" fill="#878787"/>
<path d="M27.6408 51.3994H20.575V52.3046H27.6408V51.3994Z" fill="#A1A5A6"/>
<path d="M27.6408 52.3046H20.575V53.2099H27.6408V52.3046Z" fill="#A1A5A6"/>
<path d="M27.6408 53.2099H20.575V54.1152H27.6408V53.2099Z" fill="#A1A5A6"/>
<path d="M26.5358 57.3768H21.7465C21.3617 57.3768 20.9926 57.2239 20.7204 56.9518C20.4483 56.6797 20.2954 56.3106 20.2954 55.9257V54.1152H27.9936V55.9257C27.9936 56.1168 27.9558 56.3061 27.8825 56.4826C27.8092 56.6591 27.7017 56.8193 27.5662 56.9542C27.4308 57.089 27.27 57.1958 27.0932 57.2683C26.9164 57.3408 26.7269 57.3777 26.5358 57.3768Z" fill="#F29083"/>
<path d="M26.5823 57.3768H22.209C21.8374 57.3768 21.481 57.2292 21.2183 56.9664C20.9555 56.7037 20.8079 56.3473 20.8079 55.9757V54.1152H27.9935V55.9757C27.9931 56.1604 27.9562 56.3432 27.885 56.5136C27.8138 56.6841 27.7097 56.8388 27.5786 56.969C27.4475 57.0992 27.292 57.2022 27.1211 57.2722C26.9501 57.3421 26.767 57.3777 26.5823 57.3768Z" fill="#A5817C"/>
<path d="M26.0364 57.3769H22.1457C21.7927 57.3769 21.454 57.2366 21.2044 56.9869C20.9547 56.7373 20.8145 56.3986 20.8145 56.0456V54.1252H27.3744V56.0456C27.3744 56.221 27.3397 56.3946 27.2724 56.5566C27.2051 56.7185 27.1064 56.8656 26.9821 56.9893C26.8578 57.113 26.7102 57.2109 26.5479 57.2774C26.3856 57.3439 26.2118 57.3777 26.0364 57.3769Z" fill="#F17762"/>
<path d="M21.3005 11.4041V51.3993H19.9692V13.6373L20.7447 11.4041H21.3005Z" fill="#5089B4"/>
<path d="M24.8085 11.4041H23.4739V51.3993H24.8085V11.4041Z" fill="#074D87"/>
<path d="M28.3129 13.1115V51.3993H26.9783V11.4041H27.837L28.3129 13.1115Z" fill="#143247"/>
<path d="M23.4739 11.4041H21.3005V51.3993H23.4739V11.4041Z" fill="#0A5CAE"/>
<path d="M26.9783 11.4041H24.8049V51.3993H26.9783V11.4041Z" fill="#0A5CAE"/>
<path d="M25.3876 6.04569C25.5826 5.98644 25.7645 5.89041 25.9235 5.76279C26.0221 5.67565 26.1104 5.57736 26.1864 5.46991L24.9716 1.10994C24.9537 1.04009 24.9136 0.977941 24.8573 0.932848C24.801 0.887755 24.7317 0.862156 24.6596 0.859904C24.5875 0.857651 24.5167 0.878867 24.4577 0.920359C24.3987 0.96185 24.3548 1.02137 24.3326 1.08997L22.7683 5.57974C23.1352 5.86237 23.5649 6.05231 24.0209 6.13343C24.4769 6.21454 24.9457 6.18445 25.3876 6.04569Z" fill="#074D87"/>
<path d="M28.3497 13.2513L28.3264 13.3511L28.0435 14.0733C28.0435 14.0733 27.5609 12.9517 26.9951 12.579C26.8894 12.505 26.7646 12.4634 26.6357 12.4591C25.9035 12.4591 25.99 14.1233 25.4641 14.2764H25.4375C25.2042 14.2596 24.9851 14.1577 24.8218 13.9901C24.3891 13.6573 23.8832 13.0982 23.4905 12.8386C23.3941 12.7612 23.2795 12.7097 23.1577 12.6888C22.5719 12.6622 21.67 14.2764 21.67 14.2764C21.591 14.006 21.4697 13.7499 21.3105 13.5175C21.2784 13.4727 21.2415 13.4314 21.2007 13.3944C20.9411 13.1647 20.1623 13.614 19.9792 13.7272L19.9426 13.7505L19.9792 13.6407L20.7547 11.4074L22.7783 5.58304C23.285 5.97251 23.9065 6.18317 24.5456 6.18212C24.8337 6.18288 25.1202 6.13794 25.3943 6.04899C25.5906 5.99052 25.7737 5.89443 25.9334 5.76609C26.0319 5.67976 26.1191 5.58136 26.193 5.47321L27.8571 11.4074L28.3264 13.1115L28.3497 13.2513Z" fill="#FBBB98"/>
<path d="M28.3495 13.2513L28.3262 13.3511L28.0433 14.0734C28.0433 14.0734 27.5607 12.9518 26.9949 12.579C26.8892 12.5051 26.7643 12.4634 26.6354 12.4592C25.9032 12.4592 25.9898 14.1233 25.4639 14.2764H25.4373C25.5806 13.5012 25.6563 12.715 25.6636 11.9267C25.6931 10.1004 25.3746 8.28527 24.725 6.57821C24.6785 6.45506 24.6119 6.31861 24.542 6.17882C24.8301 6.17958 25.1166 6.13465 25.3907 6.04569C25.587 5.98722 25.7702 5.89114 25.9299 5.76279C26.0284 5.67647 26.1156 5.57806 26.1895 5.46991L27.8536 11.4041L28.3262 13.1115L28.3495 13.2513Z" fill="#FCA072"/>
<path d="M28.5094 13.2047C28.4794 13.0449 26.3793 5.58638 26.346 5.42329L25.1312 1.06665C25.1006 0.965227 25.0389 0.875976 24.9549 0.811487C24.8708 0.746998 24.7686 0.710526 24.6627 0.707217C24.5568 0.703908 24.4526 0.733928 24.3647 0.793043C24.2767 0.852157 24.2096 0.937383 24.1727 1.0367C23.2342 3.95222 20.6148 10.8483 19.8028 13.837V53.2099C19.866 53.4362 19.5864 54.4646 20.1356 54.2816C20.0757 55.523 19.9925 57.5699 21.7531 57.5432H26.5358C28.2897 57.5699 28.1999 55.5197 28.1499 54.2816C28.2764 54.2816 28.4828 54.3015 28.4828 54.1152V51.3993C28.5094 51.183 28.4162 13.3711 28.5094 13.2047ZM27.9935 53.9554H20.1356V53.383H28.1466V53.9554H27.9935ZM20.282 13.7405C21.6699 12.8352 21.1773 14.7989 21.8063 14.3496C22.1392 13.7372 22.8048 12.8253 23.1376 12.8519C23.9164 13.1248 24.4989 14.2697 25.3675 14.4394C26.2129 14.5526 25.9866 12.2661 26.8286 12.6755V51.2329H20.1356V13.8204C20.1822 13.7938 20.2321 13.7638 20.282 13.7405ZM28.1133 14.2131L28.1466 14.1898V51.2329H27.1481V12.9584C27.5309 13.178 27.7339 14.2997 28.1133 14.2131ZM28.1466 52.1548H20.1356V51.5824H28.1466V52.1548ZM20.1356 53.0601V52.4877H28.1466V53.0601H20.1356ZM24.4889 1.1432C24.8683 0.181345 25.8934 5.5065 25.9966 5.43328C25.2777 6.28197 23.8033 6.09892 22.9612 5.51315L24.4889 1.1432ZM22.8547 5.84598C23.7833 6.4617 25.2377 6.57486 26.1097 5.81935C26.0598 5.8726 28.5759 13.9202 28.0135 13.6507C27.5409 12.4725 26.1164 11.5006 25.7536 13.401C25.6638 13.7006 25.5506 14.0667 25.4008 14.1166C23.76 13.3544 23.2441 11.1878 21.6965 13.8903C21.5035 13.1681 20.8312 12.995 20.2288 13.3911L22.8547 5.84598ZM27.8171 55.9257C27.8171 56.2659 27.6822 56.5921 27.442 56.833C27.2018 57.0738 26.8759 57.2095 26.5358 57.2104H21.7464C20.2055 57.237 20.4584 55.3 20.4617 54.2816H27.8171V55.9257Z" fill="#1D1D1B"/>
<path d="M24.8486 51.3011L24.7427 52.2002L33.0292 53.1766L33.1351 52.2775L24.8486 51.3011Z" fill="#C6C6C6"/>
<path d="M24.7506 52.207L24.6445 53.1061L32.9309 54.0839L33.037 53.1849L24.7506 52.207Z" fill="#C6C6C6"/>
<path d="M24.6425 53.1038L24.5364 54.0028L32.8227 54.9806L32.9288 54.0816L24.6425 53.1038Z" fill="#C6C6C6"/>
<path d="M25.4541 51.3696L25.3481 52.2687L33.0331 53.1742L33.139 52.2751L25.4541 51.3696Z" fill="#878787"/>
<path d="M25.3529 52.2789L25.2468 53.1779L32.9316 54.0848L33.0377 53.1857L25.3529 52.2789Z" fill="#878787"/>
<path d="M25.2436 53.1697L25.1377 54.0688L32.8226 54.9743L32.9286 54.0752L25.2436 53.1697Z" fill="#878787"/>
<path d="M25.4558 51.3724L25.3499 52.2714L32.3671 53.0982L32.4731 52.1992L25.4558 51.3724Z" fill="#A1A5A6"/>
<path d="M25.3517 52.278L25.2456 53.1771L32.2627 54.0051L32.3688 53.1061L25.3517 52.278Z" fill="#A1A5A6"/>
<path d="M25.2427 53.1688L25.1367 54.0679L32.154 54.8947L32.2599 53.9956L25.2427 53.1688Z" fill="#A1A5A6"/>
<path d="M30.6761 58.0059L25.9201 57.4467C25.5415 57.3977 25.1976 57.2014 24.9627 56.9005C24.7279 56.5996 24.621 56.2183 24.6653 55.8392L24.8783 54.0386L32.4933 54.9539L32.2836 56.7545C32.2346 57.1328 32.0382 57.4764 31.7372 57.7107C31.4362 57.9451 31.0549 58.0511 30.6761 58.0059Z" fill="#F29083"/>
<path d="M30.7225 58.0125L26.3959 57.4999C26.2123 57.4805 26.0345 57.4249 25.8725 57.3365C25.7105 57.2481 25.5676 57.1286 25.4519 56.9848C25.3363 56.841 25.2501 56.6757 25.1985 56.4986C25.1469 56.3214 25.1308 56.1357 25.1511 55.9523L25.3708 54.1052L32.4932 54.9539L32.2768 56.8044C32.2286 57.1696 32.0385 57.5012 31.7476 57.7274C31.4567 57.9535 31.0884 58.0559 30.7225 58.0125Z" fill="#A5817C"/>
<path d="M30.1802 57.9493L26.3295 57.4933C26.1545 57.4735 25.9851 57.4192 25.8312 57.3335C25.6774 57.2478 25.542 57.1324 25.4331 56.9941C25.3241 56.8557 25.2437 56.6971 25.1965 56.5274C25.1492 56.3577 25.1361 56.1804 25.158 56.0056L25.3843 54.0985L31.9043 54.8673L31.6546 56.7744C31.6352 56.9484 31.5816 57.1169 31.4969 57.2702C31.4123 57.4235 31.2982 57.5586 31.1612 57.6678C31.0243 57.7769 30.8671 57.858 30.6988 57.9063C30.5304 57.9546 30.3542 57.9692 30.1802 57.9493Z" fill="#F17762"/>
<path d="M30.8592 11.7403L26.1764 51.4593L24.8518 51.3028L29.275 13.8004L30.3068 11.6737L30.8592 11.7403Z" fill="#93BB75"/>
<path d="M33.0211 11.9965L28.334 51.7161L29.6594 51.8725L34.3465 12.1529L33.0211 11.9965Z" fill="#135B52"/>
<path d="M37.622 14.2564L33.1388 52.2813L31.8142 52.1249L36.5003 12.4059L37.3524 12.5057L37.622 14.2564Z" fill="#193531"/>
<path d="M30.8564 11.7386L26.1763 51.459L28.3347 51.7134L33.0148 11.9929L30.8564 11.7386Z" fill="#1D776E"/>
<path d="M34.3448 12.1529L29.6577 51.8725L31.8161 52.1272L36.5031 12.4076L34.3448 12.1529Z" fill="#1D776E"/>
<path d="M35.5452 6.89435C35.7461 6.85988 35.9383 6.78638 36.111 6.67802C36.2188 6.60245 36.3182 6.51541 36.4072 6.41842L35.7116 1.94529C35.7029 1.8727 35.6706 1.80498 35.6196 1.75261C35.5686 1.70023 35.5018 1.6661 35.4294 1.6555C35.3571 1.64489 35.2833 1.6584 35.2194 1.69394C35.1555 1.72947 35.1051 1.78505 35.0759 1.8521L33.0024 6.12886C33.3331 6.45215 33.737 6.69062 34.1798 6.82392C34.6226 6.95722 35.0911 6.98138 35.5452 6.89435Z" fill="#1D776E"/>
<path d="M37.6453 14.3962L37.5954 14.4894L37.2293 15.175C37.2293 15.175 36.8965 14.0068 36.3606 13.5708C36.2685 13.4844 36.1526 13.4276 36.0278 13.4077C35.2989 13.3212 35.1924 14.9919 34.6499 15.0718H34.6266C34.3967 15.0276 34.1908 14.9009 34.0475 14.7157C33.6581 14.3263 33.2188 13.7172 32.8594 13.4144C32.7667 13.3235 32.652 13.2581 32.5265 13.2246C31.9774 13.1281 30.8857 14.6258 30.8857 14.6258C30.8372 14.3484 30.7463 14.0801 30.6161 13.8304C30.5886 13.7836 30.5574 13.7391 30.5229 13.6973C30.29 13.4377 29.4612 13.7938 29.2682 13.8803H29.2283L29.2782 13.7771L30.3233 11.687L32.9858 6.12555C33.4426 6.57241 34.0351 6.85459 34.6699 6.92765C34.9571 6.96349 35.2483 6.95225 35.5319 6.89437C35.7327 6.85932 35.9248 6.78587 36.0977 6.67803C36.206 6.60307 36.3044 6.51473 36.3906 6.4151L37.3391 12.5057L37.6087 14.2564L37.6453 14.3962Z" fill="#FBBB98"/>
<path d="M37.6454 14.3962L37.5955 14.4894L37.2294 15.175C37.2294 15.175 36.8966 14.0068 36.3607 13.5708C36.2685 13.4844 36.1526 13.4276 36.0279 13.4077C35.299 13.3212 35.1925 14.9919 34.65 15.0718H34.6267C34.8612 14.3176 35.0315 13.5449 35.1359 12.762C35.3734 10.9577 35.2661 9.12463 34.8197 7.36031C34.7865 7.23051 34.7365 7.09072 34.6833 6.94095C34.9705 6.97679 35.2617 6.96555 35.5453 6.90767C35.7461 6.87262 35.9382 6.79917 36.1111 6.69133C36.2194 6.61637 36.3178 6.52803 36.404 6.42841L37.3525 12.5191L37.6221 14.2697L37.6454 14.3962Z" fill="#FCA072"/>
<path d="M37.8083 14.3729C37.8083 14.2065 36.5869 6.55822 36.5702 6.38516L35.8746 1.91868C35.8558 1.81448 35.8047 1.71881 35.7287 1.64516C35.6526 1.57151 35.5553 1.52359 35.4506 1.50815C35.3458 1.49271 35.2388 1.51054 35.1447 1.55911C35.0507 1.60768 34.9742 1.68456 34.9261 1.7789C33.6514 4.56462 30.2433 11.1079 29.0851 13.9802C29.2248 15.0152 23.7399 54.7575 24.6652 54.1851C24.4555 55.3999 24.1393 57.4401 25.8866 57.6098L30.656 58.1723C32.3867 58.4119 32.5697 56.3517 32.6529 55.1236C33.1754 55.3599 33.0124 54.3249 33.1055 54.0985L33.2121 53.1999L33.3186 52.2913C33.3618 52.1016 37.6985 14.5193 37.8083 14.3729ZM29.4179 14.0168C31.1352 13.1315 30.3132 15.1251 31.0154 14.7423C31.5113 14.0767 32.2136 13.3611 32.4965 13.411C33.2686 13.7439 33.7379 15.185 34.6665 15.2582C35.3321 15.2582 35.4486 13.1814 36.1842 13.6673L31.6711 51.9418L25.0379 51.1597L29.4179 14.0168ZM24.8249 52.957L24.8915 52.3878L32.8493 53.3264L32.7827 53.8922L24.8249 52.957ZM32.9558 52.4244L32.8892 52.9936L24.9314 52.055L24.998 51.4892L32.9558 52.4244ZM35.2256 1.92201C35.7149 1.00675 36.1143 6.42177 36.2241 6.35853C35.412 7.11736 33.9676 6.77789 33.2021 6.08562L35.2256 1.92201ZM33.0523 6.39847C33.9043 7.12069 35.3355 7.39693 36.2907 6.75459C36.2307 6.86109 37.795 15.0086 37.2658 14.7423C36.933 13.5142 35.6317 12.3859 35.0492 14.2298C34.9228 14.516 34.7663 14.8754 34.6166 14.8954C33.029 13.9136 32.8459 11.7369 30.9555 14.2298C30.849 13.4909 30.2033 13.2313 29.5577 13.5641L33.0523 6.39847ZM32.1171 56.7178C32.0754 57.055 31.9025 57.3622 31.6358 57.5728C31.3692 57.7834 31.0303 57.8804 30.6926 57.8428L25.9366 57.2836C24.4089 57.1372 24.8815 55.2335 25.008 54.2283L32.3201 55.087L32.1171 56.7178ZM32.5198 54.7742L24.7184 53.8556L24.785 53.2865L32.7428 54.225L32.6762 54.7941L32.5198 54.7742ZM32.9857 52.0949L31.9873 51.9785L36.4837 13.9502C36.8165 14.1965 36.9496 15.5045 37.3324 15.3081L32.9857 52.0949Z" fill="#1D1D1B"/>
<path d="M18.7118 50.7398L10.5188 52.319L10.6901 53.2079L18.8832 51.6287L18.7118 50.7398Z" fill="#C6C6C6"/>
<path d="M18.8803 51.6301L10.6873 53.2094L10.8586 54.0983L19.0516 52.5191L18.8803 51.6301Z" fill="#C6C6C6"/>
<path d="M19.0522 52.5166L10.8591 54.0958L11.0305 54.9847L19.2235 53.4055L19.0522 52.5166Z" fill="#C6C6C6"/>
<path d="M18.7147 50.7414L11.1165 52.2059L11.2878 53.0948L18.886 51.6303L18.7147 50.7414Z" fill="#878787"/>
<path d="M18.8832 51.6284L11.2849 53.093L11.4563 53.9819L19.0545 52.5174L18.8832 51.6284Z" fill="#878787"/>
<path d="M19.0548 52.5182L11.4565 53.9827L11.6279 54.8716L19.2261 53.4071L19.0548 52.5182Z" fill="#878787"/>
<path d="M18.0497 50.8702L11.1116 52.2075L11.2829 53.0964L18.221 51.7591L18.0497 50.8702Z" fill="#A1A5A6"/>
<path d="M18.2247 51.7566L11.2866 53.0939L11.458 53.9828L18.3961 52.6455L18.2247 51.7566Z" fill="#A1A5A6"/>
<path d="M18.3899 52.6476L11.4551 53.9843L11.6264 54.8732L18.5613 53.5365L18.3899 52.6476Z" fill="#A1A5A6"/>
<path d="M18.0953 56.9508L13.3925 57.8494C13.2057 57.8857 13.0135 57.8847 12.827 57.8466C12.6405 57.8085 12.4634 57.7339 12.3057 57.6273C12.1481 57.5206 12.013 57.3839 11.9082 57.225C11.8034 57.0661 11.731 56.8881 11.6951 56.7012L11.3623 54.9239L18.9107 53.4695L19.2435 55.2468C19.2803 55.4341 19.2797 55.6268 19.2419 55.8139C19.204 56.0009 19.1296 56.1787 19.023 56.337C18.9163 56.4953 18.7795 56.631 18.6203 56.7363C18.4611 56.8417 18.2827 56.9145 18.0953 56.9508Z" fill="#F29083"/>
<path d="M18.142 56.9508L13.8453 57.7796C13.665 57.8143 13.4796 57.8133 13.2997 57.7764C13.1198 57.7395 12.949 57.6676 12.7969 57.5646C12.6448 57.4617 12.5145 57.3298 12.4135 57.1766C12.3124 57.0233 12.2425 56.8516 12.2078 56.6713L11.855 54.8441L18.9008 53.4861L19.2536 55.2867C19.2918 55.4691 19.2932 55.6573 19.2578 55.8403C19.2224 56.0232 19.1508 56.1973 19.0473 56.3523C18.9438 56.5072 18.8104 56.64 18.655 56.7428C18.4995 56.8455 18.3251 56.9163 18.142 56.9508Z" fill="#A5817C"/>
<path d="M17.6061 57.0374L13.7887 57.7762C13.6157 57.811 13.4376 57.811 13.2646 57.7763C13.0916 57.7415 12.9273 57.6728 12.7811 57.574C12.635 57.4752 12.5099 57.3484 12.4132 57.2008C12.3165 57.0533 12.25 56.888 12.2178 56.7145L11.855 54.8274L18.3051 53.586L18.6745 55.4698C18.7087 55.643 18.7081 55.8212 18.6727 55.9942C18.6373 56.1671 18.5679 56.3313 18.4685 56.4772C18.3691 56.6231 18.2416 56.7477 18.0936 56.8439C17.9455 56.9401 17.7798 57.0058 17.6061 57.0374Z" fill="#F17762"/>
<path d="M4.25664 12.7953L11.825 52.0683L10.517 52.3212L3.37134 15.2382L3.71082 12.9018L4.25664 12.7953Z" fill="#FFCD5F"/>
<path d="M7.6977 12.1311L6.38721 12.3837L13.957 51.656L15.2675 51.4034L7.6977 12.1311Z" fill="#FFB30B"/>
<path d="M11.4655 13.1448L18.711 50.7404L17.3997 50.9933L9.8313 11.7203L10.6733 11.5605L11.4655 13.1448Z" fill="#D69A21"/>
<path d="M6.38966 12.3847L4.25562 12.796L11.8254 52.0684L13.9594 51.657L6.38966 12.3847Z" fill="#FEC22C"/>
<path d="M9.83253 11.7187L7.69849 12.1301L15.2683 51.4024L17.4023 50.9911L9.83253 11.7187Z" fill="#FEC22C"/>
<path d="M7.25544 6.75793C7.43519 6.66335 7.59552 6.53577 7.72805 6.38184C7.80735 6.27843 7.87541 6.16686 7.93107 6.04902L5.91417 1.99192C5.88438 1.9246 5.83312 1.86905 5.7684 1.83398C5.70367 1.7989 5.62915 1.78627 5.55649 1.79806C5.48382 1.80986 5.41712 1.84541 5.36681 1.89915C5.31651 1.9529 5.28544 2.02181 5.27848 2.09509L4.59619 6.79787C5.00967 7.00663 5.46759 7.11204 5.93073 7.10509C6.39387 7.09813 6.84842 6.97901 7.25544 6.75793Z" fill="#FEC22C"/>
<path d="M11.5289 13.2713L11.5089 13.3744L11.3691 14.1399C11.3691 14.1399 10.7035 13.1414 10.0545 12.8752C9.93992 12.8232 9.81298 12.8047 9.68837 12.8219C8.96947 12.9617 9.37218 14.5859 8.87961 14.8189H8.85631C8.62189 14.8487 8.38474 14.7906 8.19067 14.6558C7.70475 14.4028 7.09901 13.9569 6.66634 13.7738C6.55275 13.7141 6.42503 13.6865 6.29691 13.6939C5.74442 13.7705 5.15533 15.5245 5.15533 15.5245C5.02584 15.278 4.85851 15.0534 4.65942 14.8588L4.52962 14.759C4.23008 14.5826 3.53116 15.1717 3.39137 15.3148L3.36475 15.3481V15.2349L3.69757 12.9051L4.59619 6.79786C5.16642 7.08586 5.81625 7.17602 6.44335 7.05413C6.72671 6.99808 6.99958 6.89814 7.25211 6.75792C7.43217 6.66234 7.59342 6.53492 7.72804 6.38183C7.80736 6.27906 7.87438 6.16736 7.92774 6.04901L10.6868 11.5605L11.4789 13.1448L11.5289 13.2713Z" fill="#FBBB98"/>
<path d="M11.5287 13.2713L11.5087 13.3744L11.3689 14.1399C11.3689 14.1399 10.7033 13.1414 10.0543 12.8752C9.93975 12.8232 9.81281 12.8047 9.6882 12.8219C8.9693 12.9617 9.37201 14.5859 8.87944 14.8189H8.85614C8.85189 14.0299 8.78064 13.2427 8.64313 12.4658C8.31823 10.6726 7.65644 8.9571 6.6928 7.41025C6.61385 7.28702 6.5283 7.16814 6.43652 7.05413C6.71988 6.99808 6.99275 6.89814 7.24528 6.75792C7.42534 6.66234 7.58659 6.53492 7.72122 6.38183C7.80054 6.27906 7.86756 6.16736 7.92091 6.04901L10.6867 11.5605L11.4788 13.1448L11.5287 13.2713Z" fill="#FCA072"/>
<path d="M19.4066 55.2168L19.0938 53.6026L19.2568 53.5727C19.2997 53.5631 19.3371 53.5373 19.3613 53.5007C19.3855 53.4641 19.3946 53.4195 19.3867 53.3763L19.2169 52.4877L19.0438 51.5991L18.8741 50.7104L11.6851 13.3744V13.3045C11.6951 13.2697 11.6951 13.2328 11.6851 13.198L11.6186 13.0716L8.07736 5.96915L6.06046 1.9187C6.01246 1.82371 5.93555 1.7464 5.8408 1.69792C5.74605 1.64944 5.63836 1.6323 5.53324 1.64895C5.42812 1.66561 5.331 1.71521 5.25588 1.7906C5.18076 1.866 5.13152 1.96329 5.11524 2.06847L4.4496 6.77457L3.20484 15.2149V15.3281C3.20161 15.3535 3.20479 15.3793 3.21409 15.4031C3.22339 15.427 3.23852 15.4481 3.25809 15.4646L10.3539 52.3512L10.5236 53.2399L10.6967 54.1252L10.8664 55.0171C10.8758 55.0592 10.9008 55.096 10.9363 55.1203C10.9636 55.1396 10.9961 55.1501 11.0295 55.1503H11.0628L11.2225 55.1203L11.5321 56.7345C11.6159 57.1535 11.8611 57.5227 12.2148 57.7624C12.5685 58.0022 13.0023 58.0932 13.4225 58.0159L18.1253 57.1073C18.3336 57.0674 18.532 56.9868 18.7091 56.8702C18.8863 56.7535 19.0387 56.6032 19.1577 56.4276C19.2767 56.252 19.3599 56.0547 19.4026 55.847C19.4454 55.6392 19.4467 55.4251 19.4066 55.2168ZM10.9896 53.9022L10.883 53.3397L18.7476 51.8254L18.8575 52.3878L10.9896 53.9022ZM10.71 52.4511L17.433 51.1564L18.5779 50.9367L18.6877 51.4992L10.8198 53.0136L10.71 52.4511ZM17.5328 50.787L14.3477 34.259L10.2873 13.198L10.4437 13.3245L10.4703 13.3511C10.5769 13.4477 10.68 13.5542 10.7732 13.6573L10.7932 13.6806C10.8398 13.7306 10.8797 13.7805 10.9197 13.8271L10.9363 13.8504C11.0162 13.9469 11.0827 14.0334 11.1293 14.1C11.1526 14.1299 11.1693 14.1566 11.1826 14.1765L11.1992 14.2032C11.2178 14.2308 11.2442 14.2522 11.275 14.2647C11.3059 14.2771 11.3398 14.28 11.3723 14.2731C11.4001 14.2673 11.4256 14.2534 11.4455 14.2331H11.4622L18.5147 50.6073L17.5328 50.787ZM5.44473 2.11507C5.44951 2.07967 5.46578 2.04683 5.49103 2.02158C5.51628 1.99633 5.54913 1.98006 5.58452 1.97528C5.62018 1.96862 5.65703 1.9738 5.68948 1.99002C5.72192 2.00625 5.74817 2.03262 5.76424 2.06514L7.74121 6.05901V6.07565C7.70361 6.15245 7.65787 6.22498 7.60475 6.29198C7.48437 6.42812 7.33996 6.54094 7.17874 6.62481C7.08672 6.67388 6.9923 6.71832 6.89584 6.75793L6.8093 6.78789L6.5963 6.85778L6.48314 6.88108L6.28345 6.91769H6.1603H5.96726H5.83414H5.64776L5.5113 6.89772C5.45196 6.89125 5.39305 6.88125 5.3349 6.86777C5.28761 6.85983 5.24091 6.84871 5.19512 6.83448C5.13768 6.82092 5.08101 6.80425 5.02538 6.78456C4.97878 6.78456 4.93552 6.75128 4.88892 6.73464L4.77909 6.6947L5.44473 2.11507ZM4.72917 7.02752L4.79573 7.05082L4.94217 7.10407C5.00541 7.12404 5.06532 7.14401 5.12522 7.15732L5.28165 7.19393L5.46803 7.22721L5.62446 7.24385C5.68654 7.24717 5.74876 7.24717 5.81084 7.24385H5.89404H5.96394H6.17694L6.32338 7.22721C6.39328 7.22721 6.4665 7.20392 6.53639 7.18727L6.67285 7.15732C6.7494 7.13735 6.82262 7.11073 6.89917 7.0841L7.01233 7.04416C7.12613 6.9996 7.23726 6.94848 7.34515 6.89106C7.54222 6.78533 7.7182 6.64432 7.86435 6.47504L7.93091 6.38517L11.3057 13.198L11.339 13.3778V13.4011L11.2758 13.7339C10.974 13.3155 10.5785 12.9735 10.1209 12.7354C9.97335 12.6712 9.81054 12.6504 9.65161 12.6755C9.13573 12.7754 9.06917 13.3878 9.01591 13.9269C9.01296 14.179 8.95622 14.4275 8.8495 14.6558C8.83838 14.6735 8.82213 14.6875 8.80291 14.6957C8.7663 14.7157 8.64315 14.7357 8.27039 14.5426C8.06404 14.4361 7.82774 14.2897 7.60475 14.1466C7.32918 13.9617 7.03989 13.7981 6.73941 13.6573C6.5983 13.5866 6.44099 13.5545 6.28345 13.5641C5.79087 13.634 5.34489 14.6159 5.12855 15.175C5.03354 15.0253 4.92189 14.8869 4.79573 14.7623C4.74649 14.7187 4.69422 14.6787 4.6393 14.6425C4.60026 14.6202 4.55734 14.6055 4.51283 14.5992H4.46624H4.42297H4.38636C4.34595 14.6026 4.30588 14.6093 4.26654 14.6192H4.20331L4.03024 14.6824H3.98697C3.84792 14.7552 3.71541 14.8398 3.59092 14.9354L4.72917 7.02752ZM3.56762 15.388L3.61754 15.3481L3.69742 15.2815L3.77397 15.2216L3.85052 15.165L3.92041 15.1151L3.9903 15.0685L4.05021 15.0319L4.11677 14.9953L4.17003 14.9687L4.22661 14.942L4.2732 14.9254H4.31647C4.33074 14.9224 4.34546 14.9224 4.35973 14.9254H4.38969C4.40493 14.9211 4.42104 14.9211 4.43628 14.9254C4.47448 14.9522 4.51115 14.981 4.54611 15.0119C4.72978 15.1962 4.88462 15.4072 5.00541 15.6376C5.01918 15.6658 5.04125 15.689 5.06865 15.7042C5.07969 15.7057 5.09088 15.7057 5.10193 15.7042C5.11843 15.7072 5.13534 15.7072 5.15185 15.7042C5.18459 15.7015 5.21586 15.6894 5.24185 15.6693C5.26784 15.6492 5.28745 15.622 5.29829 15.591C5.29829 15.5478 5.32825 15.5045 5.34489 15.4579C5.46095 15.1307 5.60112 14.8125 5.76424 14.506V14.4861L5.80751 14.4095L5.84745 14.3396L5.86409 14.3163C5.95038 14.1664 6.06315 14.0333 6.19691 13.9236C6.21302 13.9092 6.23092 13.8969 6.25016 13.887L6.30674 13.8703C6.40437 13.8694 6.50061 13.8935 6.58631 13.9402C6.86991 14.0747 7.14352 14.2293 7.40506 14.4029C7.63803 14.5493 7.88099 14.7024 8.10398 14.8156C8.32697 14.9287 8.69641 15.0918 8.93271 14.972C9.23558 14.8222 9.26553 14.3929 9.32877 13.9402C9.38535 13.4077 9.44193 13.0283 9.6982 12.9784C9.73786 12.9717 9.77835 12.9717 9.81802 12.9784H9.85463H9.90122L17.1268 50.4575L17.2067 50.8602L10.6467 52.1249L3.56762 15.388ZM11.0528 54.2317L18.9207 52.714L19.0272 53.2765L18.8741 53.3064L11.329 54.7609L11.1726 54.7908L11.0528 54.2317ZM18.062 56.7811L13.3493 57.6864C13.1839 57.7196 13.0137 57.7193 12.8484 57.6856C12.6832 57.6519 12.5265 57.5854 12.3874 57.49C12.1055 57.2995 11.9105 57.0051 11.8449 56.6713L11.5354 55.0571L18.7543 53.6659L19.0671 55.2801C19.1309 55.6122 19.0611 55.9561 18.873 56.2371C18.6848 56.5181 18.3934 56.7136 18.062 56.7811Z" fill="#1D1D1B"/>
<path d="M20.7613 51.4493H12.4175V52.3546H20.7613V51.4493Z" fill="#C6C6C6"/>
<path d="M20.7613 52.3546H12.4175V53.2598H20.7613V52.3546Z" fill="#C6C6C6"/>
<path d="M20.7613 53.2598H12.4175V54.1651H20.7613V53.2598Z" fill="#C6C6C6"/>
<path d="M20.7647 51.4493H13.0266V52.3546H20.7647V51.4493Z" fill="#878787"/>
<path d="M20.7647 52.3546H13.0266V53.2598H20.7647V52.3546Z" fill="#878787"/>
<path d="M20.7647 53.2598H13.0266V54.1651H20.7647V53.2598Z" fill="#878787"/>
<path d="M20.0924 51.4493H13.0266V52.3546H20.0924V51.4493Z" fill="#A1A5A6"/>
<path d="M20.0924 52.3546H13.0266V53.2598H20.0924V52.3546Z" fill="#A1A5A6"/>
<path d="M20.0924 53.2598H13.0266V54.1651H20.0924V53.2598Z" fill="#A1A5A6"/>
<path d="M18.9839 57.4268H14.1946C13.8106 57.4268 13.4424 57.2742 13.1709 57.0027C12.8994 56.7312 12.7468 56.363 12.7468 55.979V54.1651H20.4317V55.979C20.4317 56.363 20.2792 56.7312 20.0076 57.0027C19.7361 57.2742 19.3679 57.4268 18.9839 57.4268Z" fill="#F29083"/>
<path d="M19.034 57.4268H14.6574C14.4735 57.4268 14.2915 57.3905 14.1217 57.32C13.9519 57.2496 13.7976 57.1463 13.6678 57.0162C13.5379 56.886 13.435 56.7315 13.365 56.5615C13.2949 56.3916 13.2591 56.2094 13.2595 56.0256V54.1651H20.4318V56.0256C20.4323 56.2094 20.3964 56.3916 20.3264 56.5615C20.2563 56.7315 20.1534 56.886 20.0236 57.0162C19.8938 57.1463 19.7395 57.2496 19.5697 57.32C19.3999 57.3905 19.2178 57.4268 19.034 57.4268Z" fill="#A5817C"/>
<path d="M18.4881 57.4268H14.5974C14.2443 57.4268 13.9057 57.2865 13.656 57.0368C13.4064 56.7872 13.2661 56.4485 13.2661 56.0955V54.1718H19.826V56.0955C19.826 56.2709 19.7914 56.4445 19.7241 56.6065C19.6567 56.7684 19.5581 56.9155 19.4338 57.0392C19.3094 57.1629 19.1619 57.2608 18.9996 57.3273C18.8373 57.3938 18.6635 57.4276 18.4881 57.4268Z" fill="#F17762"/>
<path d="M13.7521 11.4574V51.4493H12.4175V13.6873L13.193 11.4574H13.7521Z" fill="#FF9988"/>
<path d="M17.2567 11.454H15.9221V51.4493H17.2567V11.454Z" fill="#E02B2B"/>
<path d="M20.7612 13.1614V51.4493H19.4299V11.4574H20.2853L20.7612 13.1614Z" fill="#B53737"/>
<path d="M15.9253 11.454H13.752V51.4493H15.9253V11.454Z" fill="#EF4343"/>
<path d="M19.4299 11.454H17.2566V51.4493H19.4299V11.454Z" fill="#EF4343"/>
<path d="M17.8357 6.09558C18.0306 6.03764 18.2125 5.94272 18.3716 5.81601C18.4712 5.72866 18.5596 5.62914 18.6345 5.51979L17.423 1.15983C17.4062 1.08863 17.3663 1.02497 17.3096 0.9787C17.253 0.932428 17.1826 0.906121 17.1095 0.903847C17.0364 0.901574 16.9645 0.923461 16.9051 0.966123C16.8456 1.00879 16.8019 1.06984 16.7807 1.13986L15.2197 5.63295C15.5859 5.91576 16.0152 6.10557 16.4708 6.18614C16.9264 6.26671 17.3947 6.23564 17.8357 6.09558Z" fill="#EF4343"/>
<path d="M20.8013 13.3012L20.7613 13.3977L20.4784 14.1233C20.4784 14.1233 20.0058 13.0183 19.43 12.6322C19.3254 12.5559 19.2001 12.513 19.0706 12.5091C18.335 12.5091 18.4249 14.1732 17.8957 14.3263H17.8724C17.6391 14.312 17.4196 14.2111 17.2567 14.0434C16.824 13.7106 16.3148 13.1514 15.9254 12.8885C15.8243 12.8084 15.7037 12.7567 15.576 12.7387C15.0201 12.7088 14.1115 14.323 14.1115 14.323C14.0326 14.0526 13.9113 13.7965 13.7521 13.5641C13.7199 13.5193 13.6831 13.4781 13.6423 13.441C13.3827 13.2114 12.6005 13.6607 12.4175 13.7738L12.3809 13.7938L12.4175 13.684L13.1929 11.4541L15.2198 5.62967C15.7252 6.01963 16.3454 6.23144 16.9838 6.23208C17.2732 6.232 17.5608 6.18594 17.8358 6.09562C18.1622 6.00501 18.4455 5.80082 18.6346 5.51984L20.2987 11.4574L20.7713 13.1614L20.8013 13.3012Z" fill="#FBBB98"/>
<path d="M20.8011 13.3012L20.7612 13.3977L20.4783 14.1233C20.4783 14.1233 20.0057 13.0183 19.4299 12.6322C19.3252 12.5559 19.1999 12.513 19.0704 12.5091C18.3349 12.5091 18.4248 14.1732 17.8956 14.3263H17.8723C18.0158 13.5509 18.0949 12.765 18.1086 11.9766C18.1377 10.1504 17.8192 8.3353 17.17 6.62813C17.1201 6.50499 17.0569 6.37186 16.9836 6.23208C17.2731 6.232 17.5607 6.18594 17.8357 6.09562C18.162 6.00501 18.4453 5.80082 18.6344 5.51984L20.2986 11.4574L20.7712 13.1614L20.8011 13.3012Z" fill="#FCA072"/>
<path d="M20.9212 13.1181L18.7944 5.46323L17.583 1.11658C17.5523 1.01515 17.4907 0.925902 17.4066 0.861413C17.3225 0.796924 17.2204 0.760453 17.1145 0.757144C17.0086 0.753835 16.9043 0.783855 16.8164 0.842969C16.7285 0.902084 16.6613 0.98731 16.6244 1.08662C15.6792 4.00547 13.0632 10.8982 12.2512 13.887V53.2631C12.3177 53.4861 12.0348 54.5146 12.584 54.3348C12.5207 55.5729 12.4409 57.6198 14.1982 57.5932H18.9841C20.7381 57.6198 20.6682 55.5696 20.5983 54.3348C21.477 54.3881 20.6716 14.4794 20.9212 13.1181ZM16.9273 1.19313C17.3067 0.2346 18.3318 5.5531 18.4383 5.4832C17.7227 6.3319 16.2483 6.14885 15.4063 5.56641L16.9273 1.19313ZM12.584 13.8736C14.1848 12.792 13.6024 14.8721 14.2481 14.4095C14.6641 13.674 15.2931 12.9051 15.5794 12.9085C16.3415 13.1781 16.9107 14.2697 17.7527 14.4894C18.668 14.709 18.4183 12.3194 19.2737 12.7321V51.2928H12.584V13.8736ZM20.2655 55.979C20.2655 56.3188 20.1305 56.6447 19.8902 56.885C19.6499 57.1253 19.324 57.2603 18.9841 57.2603H14.1948C12.6572 57.287 12.9101 55.3499 12.9135 54.3348H20.2655V55.979ZM20.5983 54.002H12.584V53.4296H20.595L20.5983 54.002ZM20.5983 53.0934H12.584V52.5243H20.595L20.5983 53.0934ZM20.5983 52.1881H12.584V51.6257H20.595L20.5983 52.1881ZM20.5983 51.2829H19.5999V13.0083C19.9626 13.2147 20.2389 14.4894 20.5983 14.2564V51.2829ZM20.5983 13.3678L20.4685 13.7006C19.9926 12.5191 18.5714 11.5472 18.2087 13.4476C18.1188 13.7472 18.0056 14.1133 17.8559 14.1632C16.1585 13.3644 15.7225 11.2444 14.1516 13.9369C13.9585 13.2147 13.2862 13.0416 12.6838 13.4377L15.3031 5.8959C16.235 6.51162 17.6895 6.62478 18.5581 5.86928C18.5748 6.11889 20.6716 13.1015 20.595 13.3678H20.5983Z" fill="#1D1D1B"/>
<path d="M40.085 38.5391H0.822021V47.2923H40.085V38.5391Z" fill="#C6C6C6"/>
<path d="M40.085 47.299V66.363C40.085 69.1417 38.9812 71.8067 37.0163 73.7715C35.0515 75.7364 32.3865 76.8402 29.6078 76.8402H11.3026C9.92574 76.8411 8.56222 76.5705 7.29005 76.0439C6.01788 75.5173 4.86201 74.7451 3.88858 73.7713C2.91515 72.7976 2.14326 71.6415 1.61707 70.3691C1.09088 69.0968 0.820713 67.7332 0.822026 66.3563V47.299H40.085Z" fill="#FFCD5F"/>
<path d="M40.0849 38.5391H3.36792V47.2923H40.0849V38.5391Z" fill="#878787"/>
<path d="M40.085 47.299V66.363C40.085 69.1417 38.9812 71.8067 37.0163 73.7715C35.0514 75.7364 32.3865 76.8402 29.6078 76.8402H13.8453C12.4686 76.8407 11.1053 76.5698 9.83329 76.043C8.56131 75.5163 7.40562 74.744 6.43228 73.7704C5.45894 72.7967 4.68703 71.6408 4.16069 70.3686C3.63434 69.0965 3.36387 67.7331 3.36475 66.3563V47.299H40.085Z" fill="#FFB30B"/>
<path d="M37.632 38.5391H3.36792V47.2923H37.632V38.5391Z" fill="#A1A5A6"/>
<path d="M37.6454 47.299V66.363C37.6454 72.1508 33.2788 76.8402 27.8937 76.8402H13.1198C7.7347 76.8336 3.36475 72.1441 3.36475 66.3563V47.299H37.6454Z" fill="#FEC22C"/>
<path d="M33.8312 38.5391H7.07227V40.8755H33.8312V38.5391Z" fill="#2A2D3C"/>
<path d="M11.3858 65.3413C11.3858 66.383 10.0545 67.2284 8.41366 67.2284C6.77285 67.2284 5.43823 66.383 5.43823 65.3413C5.43823 64.2995 6.76952 63.4542 8.41366 63.4542C10.0578 63.4542 11.3858 64.2995 11.3858 65.3413Z" fill="#F17762"/>
<path d="M35.562 65.3413C35.562 66.383 34.2307 67.2284 32.5866 67.2284C30.9425 67.2284 29.6145 66.383 29.6145 65.3413C29.6145 64.2995 30.9458 63.4542 32.5866 63.4542C34.2274 63.4542 35.562 64.2995 35.562 65.3413Z" fill="#F17762"/>
<path d="M15.586 60.7883C15.586 62.7553 13.7055 64.3528 11.3858 64.3528C9.06599 64.3528 7.18555 62.7553 7.18555 60.7883C7.18555 58.8213 9.06599 57.2238 11.3858 57.2238C13.7055 57.2238 15.586 58.8213 15.586 60.7883Z" fill="#FCF9F0"/>
<path d="M14.8304 61.3773C14.8304 63.0182 13.3627 64.3528 11.5521 64.3528C9.74158 64.3528 8.27051 63.0215 8.27051 61.3773C8.27051 59.7332 9.73825 58.4019 11.5521 58.4019C13.366 58.4019 14.8304 59.7332 14.8304 61.3773Z" fill="#1E222D"/>
<path d="M11.3857 61.6136C12.246 61.6136 12.9433 61.0116 12.9433 60.269C12.9433 59.5264 12.246 58.9244 11.3857 58.9244C10.5255 58.9244 9.82812 59.5264 9.82812 60.269C9.82812 61.0116 10.5255 61.6136 11.3857 61.6136Z" fill="#FBFDFC"/>
<path d="M13.5459 56.618C12.9531 56.035 12.1796 55.6711 11.3526 55.5862C10.5042 55.5313 9.65803 55.7232 8.91631 56.1387C7.6183 56.8043 6.54328 58.0524 6.32695 59.5235C6.29499 59.6487 6.31153 59.7814 6.37325 59.895C6.43496 60.0085 6.5373 60.0946 6.65977 60.1359C6.78509 60.1712 6.91926 60.1562 7.03366 60.094C7.14807 60.0319 7.23365 59.9275 7.27216 59.8031C7.3718 59.2318 7.60126 58.6911 7.94286 58.2226C8.28447 57.754 8.72909 57.3701 9.24247 57.1006C10.4007 56.4349 11.8085 56.3484 12.8103 57.3335C13.2696 57.7828 13.9752 57.0773 13.5159 56.628L13.5459 56.618Z" fill="#322D1A"/>
<path d="M25.4141 60.7883C25.4141 62.7553 27.2945 64.3528 29.6143 64.3528C31.934 64.3528 33.8145 62.7553 33.8145 60.7883C33.8145 58.8213 31.934 57.2238 29.6143 57.2238C27.2945 57.2238 25.4141 58.8213 25.4141 60.7883Z" fill="#FCF9F0"/>
<path d="M26.1697 61.3773C26.1697 63.0182 27.6374 64.3528 29.448 64.3528C31.2585 64.3528 32.7296 63.0215 32.7296 61.3773C32.7296 59.7332 31.2619 58.4019 29.448 58.4019C27.6341 58.4019 26.1697 59.7332 26.1697 61.3773Z" fill="#1E222D"/>
<path d="M29.6142 61.6136C30.4745 61.6136 31.1719 61.0116 31.1719 60.269C31.1719 59.5264 30.4745 58.9244 29.6142 58.9244C28.754 58.9244 28.0566 59.5264 28.0566 60.269C28.0566 61.0116 28.754 61.6136 29.6142 61.6136Z" fill="#FBFDFC"/>
<path d="M28.16 57.3203C29.1585 56.3218 30.5697 56.435 31.7279 57.0873C32.2413 57.3569 32.6859 57.7408 33.0275 58.2093C33.3691 58.6779 33.5985 59.2186 33.6982 59.7898C33.7367 59.9142 33.8223 60.0186 33.9367 60.0808C34.0511 60.143 34.1853 60.158 34.3106 60.1226C34.4335 60.082 34.5363 59.9961 34.5982 59.8823C34.66 59.7685 34.6762 59.6355 34.6434 59.5103C34.4271 58.0358 33.3487 56.7944 32.054 56.1255C31.3267 55.719 30.4998 55.5253 29.6677 55.5663C28.8267 55.6416 28.0381 56.0076 27.4378 56.6014C26.9785 57.0507 27.6841 57.7563 28.1434 57.307L28.16 57.3203Z" fill="#322D1A"/>
<path d="M16.8806 63.8669C17.2134 63.5873 18.5447 65.774 20.6781 65.7307C22.898 65.6874 24.176 63.2844 24.5255 63.5374C25.0048 63.8702 23.6435 69.1954 20.7014 69.1954C17.8757 69.1654 16.398 64.253 16.8806 63.8669Z" fill="#1E222D"/>
<path d="M21.7032 67.3282C21.4932 67.4129 21.2886 67.5108 21.0908 67.6211C20.7081 67.7475 20.3053 67.5379 19.9193 67.4214C19.7439 67.3584 19.5521 67.3584 19.3768 67.4214C19.2529 67.4928 19.1588 67.6064 19.1118 67.7415C19.0647 67.8765 19.0678 68.024 19.1205 68.1569C19.2385 68.4189 19.4532 68.6251 19.7196 68.7327C20.1606 68.9402 20.6611 68.9838 21.1313 68.8558C21.6016 68.7277 22.0108 68.4363 22.2856 68.0338C22.3342 67.9743 22.3622 67.9008 22.3655 67.8241C22.3586 67.7463 22.3354 67.6709 22.2974 67.6027C22.2594 67.5345 22.2075 67.4751 22.145 67.4283C22.0825 67.3816 22.0109 67.3485 21.9348 67.3312C21.8587 67.3139 21.7797 67.3129 21.7032 67.3282Z" fill="#C34972"/>
<path d="M34.0443 38.3727H0.702148V66.3564C0.702148 69.181 1.82423 71.8899 3.82155 73.8873C5.81887 75.8846 8.52782 77.0067 11.3525 77.0067H29.6577C32.4823 77.0067 35.1913 75.8846 37.1886 73.8873C39.1859 71.8899 40.308 69.181 40.308 66.3564V38.3727H34.0443ZM33.7114 38.7055V40.7024H7.2887V38.7055H33.7114ZM39.9752 66.3564C39.9752 69.0927 38.8881 71.717 36.9532 73.6519C35.0183 75.5868 32.394 76.6738 29.6577 76.6738H11.3525C8.61609 76.6738 5.9918 75.5868 4.05689 73.6519C2.12199 71.717 1.03497 69.0927 1.03497 66.3564V47.4587H39.9752V66.3564ZM1.03497 47.1259V38.7055H6.95588V41.0353H34.0443V38.7055H39.9752V47.1259H1.03497Z" fill="#1D1D1B"/>
</g>
<defs>
<clipPath id="clip0_3_12479">
<rect width="39.5958" height="76.2961" fill="white" transform="translate(0.702148 0.703857)"/>
</clipPath>
</defs>
</svg>
