<svg width="49" height="68" viewBox="0 0 49 68" fill="none" xmlns="http://www.w3.org/2000/svg">
<g clip-path="url(#clip0_3_12588)">
<path d="M43.3261 59.8659H6.46604L4.15625 57.2199V0.19751L43.0066 0.62685C45.6692 0.62685 48.1453 5.00013 48.1453 7.66271V55.0466C48.1453 56.3247 47.6376 57.5505 46.7338 58.4543C45.83 59.3581 44.6042 59.8659 43.3261 59.8659Z" fill="#EF4343"/>
<path d="M42.5207 58.6677H6.41944L4.15625 56.0717V0.19751L42.2078 0.616866C44.8171 0.616866 47.2401 4.90361 47.2401 7.51294V53.935C47.2418 54.5558 47.121 55.171 46.8847 55.7451C46.6483 56.3192 46.3009 56.8411 45.8625 57.2807C45.4241 57.7204 44.9032 58.0692 44.3298 58.3072C43.7563 58.5452 43.1415 58.6677 42.5207 58.6677Z" fill="#EFEFEF"/>
<path d="M4.15625 0.19751H41.0196C42.2966 0.197509 43.5214 0.704337 44.425 1.60669C45.3286 2.50903 45.8371 3.73312 45.8389 5.01012V52.4007C45.8389 53.6788 45.3312 54.9046 44.4274 55.8084C43.5236 56.7122 42.2978 57.2199 41.0196 57.2199H4.15625V0.19751Z" fill="#FFCCC5"/>
<path d="M41.0797 57.2199H5.17822V0.19751H41.0797C41.7048 0.19751 42.3236 0.320614 42.9011 0.559794C43.4785 0.798974 44.0032 1.14955 44.4451 1.59149C44.8871 2.03344 45.2376 2.55811 45.4768 3.13554C45.716 3.71297 45.8391 4.33186 45.8391 4.95687V52.4572C45.8391 53.7198 45.3378 54.9307 44.4453 55.8238C43.5529 56.7169 42.3423 57.219 41.0797 57.2199Z" fill="#EF4343"/>
<path d="M5.17822 0.19751H39.592C40.8278 0.19751 42.013 0.688421 42.8868 1.56225C43.7606 2.43608 44.2515 3.62124 44.2515 4.85702V52.5538C44.2515 53.7895 43.7606 54.9747 42.8868 55.8485C42.013 56.7224 40.8278 57.2133 39.592 57.2133H5.17822V0.19751Z" fill="#FF9988"/>
<path d="M41.0198 57.3963H3.97998V0.0177839H41.0198C41.7307 0.0156243 42.4336 0.167787 43.0799 0.463766C43.9545 0.859202 44.6965 1.49836 45.2171 2.30468C45.7378 3.11101 46.0149 4.05032 46.0154 5.01012V52.3973C46.0163 53.0538 45.8877 53.7039 45.637 54.3106C45.3863 54.9173 45.0184 55.4686 44.5544 55.9329C44.0904 56.3972 43.5393 56.7655 42.9328 57.0166C42.3263 57.2677 41.6762 57.3968 41.0198 57.3963ZM4.3361 57.0369H41.0198C42.2486 57.0316 43.4256 56.5411 44.2946 55.6722C45.1635 54.8032 45.654 53.6262 45.6593 52.3973V5.01012C45.6565 4.12085 45.3993 3.25096 44.9181 2.50316C44.4368 1.75535 43.7517 1.16088 42.9435 0.789931C42.3433 0.514078 41.6903 0.372119 41.0297 0.373904H4.3361V57.0369Z" fill="#1D1D1B"/>
<path d="M43.3296 60.0456H6.38631L3.76367 57.0502H41.0198C42.2486 57.0449 43.4257 56.5544 44.2946 55.6855C45.1636 54.8165 45.6541 53.6395 45.6593 52.4106V5.0101C45.6565 4.12084 45.3993 3.25094 44.9181 2.50314C44.4369 1.75534 43.7517 1.16086 42.9435 0.789914L42.188 0.457092H43.0167C45.849 0.457092 48.3419 4.95685 48.3419 7.676V55.0466C48.3427 55.7044 48.2136 56.356 47.9619 56.9637C47.7101 57.5715 47.3407 58.1235 46.875 58.5881C46.4092 59.0526 45.8562 59.4205 45.2477 59.6707C44.6393 59.9208 43.9874 60.0482 43.3296 60.0456ZM6.54939 59.6861H43.3296C44.5584 59.6809 45.7355 59.1904 46.6044 58.3214C47.4734 57.4525 47.9638 56.2754 47.9691 55.0466V7.67268C47.9691 5.43611 46.1652 1.92817 44.0218 1.01623C44.6419 1.48125 45.1451 2.08425 45.4917 2.77746C45.8383 3.47067 46.0188 4.23506 46.0188 5.0101V52.3973C46.0188 53.7214 45.4928 54.9912 44.5565 55.9274C43.6203 56.8637 42.3505 57.3896 41.0264 57.3896H4.54913L6.54939 59.6861Z" fill="#1D1D1B"/>
<path d="M30.7489 18.3763C31.9837 17.4044 33.5679 17.3212 35.019 17.7872C35.3883 17.9068 35.7487 18.0525 36.0974 18.2232C36.4285 18.4249 36.7873 18.5774 37.1624 18.6758C37.3728 18.6966 37.5852 18.6724 37.7855 18.6047C37.9858 18.5369 38.1694 18.4273 38.324 18.2831L39.4023 17.5176C39.5311 17.4375 39.6244 17.3111 39.6628 17.1643C39.7011 17.0176 39.6818 16.8617 39.6087 16.7288C39.5303 16.598 39.4039 16.5032 39.2564 16.4646C39.1089 16.426 38.9522 16.4468 38.8199 16.5224L37.7415 17.2879C37.6517 17.3545 37.4619 17.5342 37.3654 17.5475C37.2689 17.5608 37.0326 17.4111 36.9361 17.3578C36.1892 16.9532 35.3893 16.6552 34.5597 16.4725C33.7563 16.3016 32.925 16.3102 32.1253 16.4978C31.3256 16.6853 30.5772 17.0472 29.9335 17.5575C29.8258 17.6665 29.7654 17.8136 29.7654 17.9669C29.7654 18.1201 29.8258 18.2672 29.9335 18.3763C30.0436 18.4807 30.1895 18.5389 30.3412 18.5389C30.4929 18.5389 30.6389 18.4807 30.7489 18.3763Z" fill="#1E222D"/>
<path d="M21.8358 17.5575C21.1923 17.047 20.4439 16.685 19.6441 16.4974C18.8444 16.3099 18.013 16.3014 17.2096 16.4725C16.38 16.6552 15.5801 16.9532 14.8333 17.3578C14.7301 17.4111 14.5271 17.5675 14.3973 17.5509C14.2805 17.4844 14.1692 17.4087 14.0644 17.3245C13.6917 17.055 13.3156 16.7887 12.9395 16.5224C12.8071 16.4452 12.6494 16.4237 12.5012 16.4627C12.353 16.5017 12.2263 16.598 12.149 16.7305C12.0718 16.8629 12.0503 17.0205 12.0893 17.1688C12.1284 17.317 12.2247 17.4437 12.3571 17.5209L13.4354 18.2864C13.7304 18.5574 14.12 18.702 14.5204 18.6891C14.9064 18.6104 15.2751 18.4627 15.6087 18.2531C15.9745 18.0722 16.3526 17.9176 16.7403 17.7905C18.1881 17.3245 19.779 17.4077 21.0104 18.3796C21.1212 18.4825 21.2669 18.5397 21.4181 18.5397C21.5694 18.5397 21.715 18.4825 21.8258 18.3796C21.9328 18.2702 21.9926 18.1232 21.9926 17.9702C21.9926 17.8172 21.9328 17.6703 21.8258 17.5608L21.8358 17.5575Z" fill="#1E222D"/>
<path d="M16.6171 26.0412C16.6171 27.0796 15.2858 27.9216 13.655 27.9216C12.0242 27.9216 10.6929 27.0796 10.6929 26.0412C10.6929 25.0027 12.0242 24.1607 13.655 24.1607C15.2858 24.1607 16.6171 25.0027 16.6171 26.0412Z" fill="#F17762"/>
<path d="M40.7069 26.0412C40.7069 27.0796 39.3757 27.9216 37.7448 27.9216C36.114 27.9216 34.7827 27.0796 34.7827 26.0412C34.7827 25.0027 36.114 24.1607 37.7448 24.1607C39.3757 24.1607 40.7069 25.0027 40.7069 26.0412Z" fill="#F17762"/>
<path d="M22.0922 24.5701C22.4416 24.2939 23.7563 26.4705 25.8764 26.4273C28.0896 26.384 29.361 23.991 29.7105 24.2439C30.1864 24.5768 28.8318 29.872 25.8997 29.862C23.084 29.852 21.6129 24.9529 22.0922 24.5701Z" fill="#1E222D"/>
<path d="M26.898 28.0215C26.6937 28.1045 26.4948 28.2001 26.3023 28.3077C25.9195 28.4342 25.5201 28.2245 25.1341 28.108C24.9602 28.0432 24.7688 28.0432 24.5949 28.108C24.471 28.1777 24.3767 28.2901 24.3295 28.4242C24.2824 28.5583 24.2856 28.705 24.3386 28.8369C24.4558 29.0994 24.6707 29.306 24.9377 29.4127C25.3766 29.62 25.8752 29.6635 26.3433 29.5353C26.8115 29.4071 27.2184 29.1157 27.4904 28.7137C27.5398 28.6561 27.568 28.5833 27.5703 28.5074C27.5639 28.4288 27.5405 28.3526 27.5018 28.2839C27.4631 28.2153 27.4099 28.1558 27.3461 28.1096C27.2822 28.0634 27.209 28.0317 27.1317 28.0164C27.0544 28.0012 26.9746 28.0029 26.898 28.0215Z" fill="#C34972"/>
<path d="M6.7456 52.0812C6.92216 52.0805 7.09493 52.1323 7.24205 52.2299C7.38917 52.3275 7.50402 52.4666 7.57204 52.6295C7.64006 52.7924 7.6582 52.9719 7.62416 53.1451C7.59012 53.3184 7.50543 53.4776 7.38082 53.6027C7.25621 53.7278 7.09729 53.813 6.92417 53.8477C6.75106 53.8824 6.57154 53.8649 6.40836 53.7975C6.24519 53.7301 6.10568 53.6158 6.00752 53.469C5.90937 53.3223 5.85697 53.1497 5.85697 52.9731C5.85519 52.7722 5.92345 52.5768 6.05 52.4207C6.13233 52.3147 6.23783 52.229 6.35841 52.1702C6.47898 52.1114 6.61143 52.0809 6.7456 52.0812Z" fill="#E02B2B"/>
<path d="M6.74562 52.0812C6.88624 52.0802 7.02509 52.1125 7.15076 52.1756C7.27643 52.2388 7.38533 52.3308 7.4685 52.4442C7.55167 52.5576 7.60675 52.6891 7.6292 52.8279C7.65165 52.9667 7.64084 53.1089 7.59765 53.2427C7.48468 53.3922 7.32735 53.5022 7.14812 53.5569C6.9689 53.6116 6.77697 53.6083 6.59976 53.5474C6.42255 53.4865 6.26913 53.3711 6.16143 53.2177C6.05373 53.0644 5.99726 52.8809 6.0001 52.6936C5.99876 52.6008 6.0134 52.5085 6.04337 52.4206C6.12638 52.3138 6.23295 52.2276 6.35476 52.1687C6.47657 52.1098 6.61033 52.0799 6.74562 52.0812Z" fill="#EF4343"/>
<path d="M7.5844 53.7153C7.5854 54.0619 7.48974 54.4019 7.30816 54.6971C7.16687 54.9178 6.97378 55.1006 6.74569 55.2296C6.41029 55.4197 6.04602 55.5535 5.66734 55.6257C4.19627 55.9585 2.97149 55.8487 1.92642 55.2929C1.44054 55.0499 1.04262 54.6612 0.788173 54.1812C0.736112 54.0953 0.701654 53.9998 0.686799 53.9004C0.671944 53.801 0.676988 53.6996 0.701639 53.6021C0.728155 53.5136 0.781688 53.4357 0.854737 53.3791C0.966422 53.2968 1.0948 53.24 1.23083 53.2127C1.32734 53.1861 1.42719 53.1661 1.52704 53.1462C1.37053 53.0065 1.23091 52.849 1.11101 52.6769C1.02747 52.569 0.966948 52.4451 0.933174 52.3128C0.8994 52.1806 0.893094 52.0428 0.914645 51.9081C0.926882 51.7855 0.982012 51.6712 1.07031 51.5854C1.15861 51.4995 1.27439 51.4476 1.39724 51.4388C2.27887 51.3032 3.16815 51.2232 4.05981 51.1992V51.7283C3.1805 51.7536 2.30355 51.8326 1.43385 51.9646C1.28408 51.9846 1.24081 52.0412 1.23748 52.0612C1.25114 52.1395 1.28694 52.2122 1.34066 52.2708C1.58427 52.6165 1.91654 52.8902 2.30251 53.063C2.63534 53.063 2.99811 53.063 3.34092 53.063C3.75546 53.0879 4.17113 53.0879 4.58567 53.063C5.22177 53.0047 5.85189 52.8933 6.46945 52.7301L6.99863 52.6037C7.03495 52.5932 7.07355 52.5936 7.10964 52.6048C7.14573 52.6161 7.17772 52.6376 7.20165 52.6669C7.23407 52.7071 7.25787 52.7536 7.27155 52.8034C7.47348 53.0332 7.58367 53.3295 7.58107 53.6354L7.5844 53.7153ZM1.02448 53.8218C1.25119 54.2344 1.59994 54.5669 2.02294 54.7737C3.02141 55.3128 4.19294 55.4193 5.61409 55.1065C5.97147 55.0398 6.31551 54.915 6.63253 54.7371C6.81306 54.6371 6.96622 54.4942 7.07851 54.321C7.19966 54.1302 7.26215 53.908 7.25823 53.682C7.25823 53.469 7.15506 53.2726 7.04523 53.2327C6.9354 53.1928 6.83555 53.266 6.71241 53.3359L6.65915 53.3658C6.23278 53.5802 5.76492 53.6995 5.28793 53.7153C4.87523 53.7552 4.45587 53.7852 4.03984 53.8052C3.53319 53.8486 3.02285 53.8092 2.52883 53.6887C2.43258 53.6625 2.33809 53.6303 2.24593 53.5921C1.92058 53.6019 1.59713 53.6454 1.28075 53.7219C1.19045 53.741 1.10388 53.7747 1.02448 53.8218Z" fill="#1D1D1B"/>
<path d="M6.74562 46.0637C6.9226 46.0631 7.09577 46.1151 7.2431 46.2131C7.39043 46.3112 7.50526 46.4509 7.57298 46.6144C7.6407 46.7779 7.65825 46.9578 7.62339 47.1313C7.58853 47.3049 7.50285 47.4641 7.37723 47.5887C7.25162 47.7134 7.09176 47.7979 6.91799 47.8315C6.74423 47.865 6.5644 47.8461 6.40141 47.7772C6.23841 47.7082 6.09961 47.5923 6.00267 47.4443C5.90572 47.2962 5.85501 47.1227 5.85699 46.9457C5.85522 46.7447 5.92347 46.5494 6.05003 46.3932C6.13337 46.2891 6.23931 46.2053 6.35983 46.1482C6.48035 46.0912 6.61228 46.0622 6.74562 46.0637Z" fill="#E02B2B"/>
<path d="M6.74562 46.0638C6.88624 46.0628 7.02509 46.0951 7.15076 46.1582C7.27643 46.2214 7.38533 46.3134 7.4685 46.4268C7.55167 46.5402 7.60675 46.6717 7.6292 46.8105C7.65165 46.9493 7.64084 47.0915 7.59765 47.2253C7.48468 47.3748 7.32735 47.4848 7.14812 47.5395C6.9689 47.5942 6.77697 47.5909 6.59976 47.53C6.42255 47.4691 6.26913 47.3537 6.16143 47.2003C6.05373 47.047 5.99726 46.8635 6.0001 46.6762C5.99876 46.5834 6.0134 46.4911 6.04337 46.4032C6.12638 46.2964 6.23295 46.2102 6.35476 46.1513C6.47657 46.0924 6.61033 46.0625 6.74562 46.0638Z" fill="#EF4343"/>
<path d="M7.58452 47.6979C7.58864 48.0501 7.49286 48.3963 7.30827 48.6963C7.16699 48.917 6.97389 49.0998 6.7458 49.2289C6.40867 49.4115 6.0447 49.5396 5.66746 49.6083C4.19639 49.9411 2.9716 49.8279 1.92654 49.2754C1.44065 49.0324 1.04273 48.6438 0.788288 48.1638C0.736903 48.0769 0.70337 47.9807 0.689654 47.8807C0.675938 47.7806 0.682315 47.6789 0.708411 47.5814C0.734927 47.4929 0.78846 47.4149 0.861509 47.3584C0.973966 47.2774 1.10205 47.2208 1.2376 47.192C1.33412 47.1654 1.43396 47.1454 1.53381 47.1254C1.37814 46.9861 1.23859 46.8299 1.11778 46.6595C1.0338 46.5511 0.97303 46.4267 0.939247 46.2938C0.905463 46.161 0.899394 46.0226 0.921417 45.8873C0.933653 45.7648 0.988784 45.6505 1.07708 45.5646C1.16538 45.4788 1.28116 45.4268 1.40401 45.418C2.28564 45.2825 3.17492 45.2025 4.06659 45.1784V45.7076C3.18727 45.7329 2.31032 45.8118 1.44062 45.9439C1.29085 45.9639 1.24758 46.0204 1.24425 46.0404C1.25416 46.1215 1.28773 46.1979 1.34077 46.2601C1.58439 46.6058 1.91666 46.8794 2.30263 47.0522C2.63545 47.0522 2.99823 47.0522 3.34103 47.0688C3.75567 47.0905 4.17115 47.0905 4.58579 47.0688C5.22166 47.0089 5.85164 46.8976 6.46956 46.736L6.99875 46.6129C7.03506 46.6024 7.07366 46.6028 7.10975 46.614C7.14584 46.6253 7.17784 46.6468 7.20177 46.6761C7.23419 46.7163 7.25798 46.7628 7.27166 46.8126C7.4736 47.0424 7.58378 47.3387 7.58119 47.6446L7.58452 47.6979ZM1.02459 47.8044C1.25198 48.2173 1.60044 48.5507 2.02306 48.7596C3.02152 49.2954 4.19306 49.4019 5.61421 49.0924C5.97141 49.0233 6.31524 48.8974 6.63264 48.7196C6.81224 48.6198 6.9652 48.4783 7.07863 48.3069C7.19933 48.1147 7.26176 47.8916 7.25835 47.6646C7.25835 47.4516 7.15517 47.2552 7.04534 47.2186C6.93551 47.182 6.83566 47.2486 6.71252 47.3184L6.65927 47.3484C6.2329 47.5628 5.76503 47.6821 5.28804 47.6979C4.87534 47.7378 4.45599 47.7678 4.03996 47.7877C3.53349 47.8323 3.02314 47.7941 2.52895 47.6746C2.4291 47.6446 2.33591 47.6113 2.24605 47.5747C1.9207 47.5845 1.59724 47.628 1.28086 47.7045C1.19056 47.7236 1.10399 47.7573 1.02459 47.8044Z" fill="#1D1D1B"/>
<path d="M6.7456 40.0463C6.86443 40.0459 6.98215 40.0692 7.09186 40.1148C7.20156 40.1605 7.30103 40.2276 7.38444 40.3122C7.46784 40.3969 7.53349 40.4973 7.57753 40.6077C7.62157 40.7181 7.64311 40.8361 7.64089 40.9549C7.64006 41.0475 7.62548 41.1395 7.59763 41.2279C7.53229 41.4299 7.39701 41.602 7.21611 41.7133C7.03521 41.8245 6.82056 41.8675 6.61077 41.8346C6.40097 41.8017 6.2098 41.6951 6.07162 41.5338C5.93344 41.3726 5.85733 41.1673 5.85697 40.9549C5.85519 40.7539 5.92345 40.5586 6.05 40.4025C6.13062 40.2935 6.23536 40.2046 6.35603 40.1428C6.47671 40.081 6.61004 40.048 6.7456 40.0463Z" fill="#E02B2B"/>
<path d="M6.74562 40.0463C6.86445 40.0458 6.98217 40.0691 7.09188 40.1148C7.20158 40.1605 7.30105 40.2276 7.38446 40.3122C7.46786 40.3969 7.53351 40.4973 7.57755 40.6077C7.62159 40.718 7.64313 40.8361 7.64091 40.9549C7.64008 41.0475 7.6255 41.1395 7.59765 41.2278C7.5128 41.3321 7.40571 41.4162 7.2842 41.4737C7.1627 41.5313 7.02985 41.561 6.89539 41.5606C6.77701 41.5615 6.65964 41.5388 6.55017 41.4937C6.44071 41.4486 6.34135 41.3821 6.25795 41.2981C6.17455 41.214 6.10878 41.1142 6.0645 41.0044C6.02022 40.8946 5.99832 40.7771 6.0001 40.6587C5.99876 40.5659 6.0134 40.4736 6.04337 40.3858C6.12638 40.279 6.23295 40.1927 6.35476 40.1338C6.47657 40.075 6.61033 40.045 6.74562 40.0463Z" fill="#EF4343"/>
<path d="M7.58434 41.6805C7.58534 42.0271 7.48967 42.3671 7.30809 42.6623C7.16681 42.883 6.97371 43.0658 6.74562 43.1948C6.40763 43.3851 6.04132 43.5199 5.66062 43.5942C4.18955 43.927 2.96477 43.8139 1.9197 43.2614C1.43382 43.0184 1.0359 42.6298 0.781452 42.1498C0.730067 42.0629 0.696534 41.9666 0.682818 41.8666C0.669103 41.7666 0.675479 41.6648 0.701575 41.5673C0.728091 41.4788 0.781624 41.4009 0.854673 41.3443C0.96713 41.2634 1.09521 41.2067 1.23076 41.1779C1.32728 41.1513 1.42713 41.1313 1.52697 41.1114C1.36994 40.9648 1.23034 40.8006 1.11095 40.6221C1.02741 40.5142 0.966884 40.3903 0.93311 40.258C0.899336 40.1258 0.89303 39.9881 0.914581 39.8533C0.926076 39.7301 0.980881 39.6151 1.06925 39.5285C1.15761 39.442 1.27381 39.3896 1.39717 39.3807C2.279 39.2468 3.16818 39.1667 4.05975 39.1411V39.6702C3.18044 39.6955 2.30349 39.7745 1.43378 39.9065C1.28401 39.9265 1.24075 39.9831 1.23742 40.0031C1.24732 40.0842 1.28089 40.1606 1.33394 40.2227C1.57755 40.5684 1.90982 40.842 2.29579 41.0148C2.62861 41.0148 2.99139 41.0148 3.3342 41.0315C3.74883 41.0531 4.16432 41.0531 4.57895 41.0315C5.21482 40.9715 5.8448 40.8602 6.46273 40.6987L7.01188 40.5722C7.0482 40.5617 7.08679 40.5621 7.12288 40.5733C7.15898 40.5846 7.19097 40.6062 7.2149 40.6354C7.24665 40.6761 7.27038 40.7224 7.2848 40.7719C7.48673 41.0018 7.59692 41.298 7.59432 41.6039L7.58434 41.6805ZM1.02441 41.787C1.2518 42.1999 1.60026 42.5333 2.02288 42.7422C3.02135 43.278 4.19288 43.3845 5.61403 43.075C5.97123 43.0059 6.31506 42.8801 6.63246 42.7022C6.81244 42.6015 6.96544 42.4588 7.07845 42.2862C7.19915 42.094 7.26158 41.8709 7.25817 41.6439C7.25817 41.4309 7.155 41.2345 7.04516 41.1979C6.93533 41.1613 6.83549 41.2278 6.71234 41.2977L6.65909 41.3277C6.23235 41.5416 5.76485 41.6619 5.28786 41.6805C4.87516 41.7171 4.45581 41.747 4.03978 41.767C3.53332 41.8132 3.0227 41.775 2.52877 41.6539C2.42892 41.6239 2.33573 41.5906 2.24587 41.554C1.92052 41.5638 1.59706 41.6073 1.28069 41.6838C1.19018 41.7039 1.1036 41.7388 1.02441 41.787Z" fill="#1D1D1B"/>
<path d="M6.7456 34.0289C6.86302 34.0284 6.97936 34.0512 7.08796 34.0958C7.19657 34.1404 7.29529 34.2061 7.37847 34.2889C7.46165 34.3718 7.52765 34.4703 7.57268 34.5787C7.61771 34.6872 7.64089 34.8034 7.64089 34.9208C7.64006 35.0135 7.62548 35.1054 7.59763 35.1938C7.53229 35.3958 7.39701 35.5679 7.21611 35.6792C7.03521 35.7904 6.82056 35.8334 6.61077 35.8005C6.40097 35.7676 6.2098 35.661 6.07162 35.4997C5.93344 35.3385 5.85733 35.1332 5.85697 34.9208C5.85519 34.7198 5.92345 34.5245 6.05 34.3684C6.13233 34.2624 6.23783 34.1767 6.35841 34.1179C6.47898 34.059 6.61143 34.0286 6.7456 34.0289Z" fill="#E02B2B"/>
<path d="M6.74561 34.0289C6.86302 34.0285 6.97937 34.0512 7.08797 34.0958C7.19657 34.1405 7.29529 34.2061 7.37847 34.289C7.46165 34.3718 7.52765 34.4703 7.57268 34.5788C7.61772 34.6872 7.6409 34.8034 7.6409 34.9209C7.64007 35.0135 7.62549 35.1054 7.59763 35.1938C7.51279 35.2981 7.40569 35.3821 7.28419 35.4397C7.16268 35.4973 7.02984 35.527 6.89538 35.5266C6.77756 35.5275 6.66074 35.5049 6.55172 35.4602C6.4427 35.4156 6.34365 35.3497 6.26033 35.2663C6.17702 35.183 6.11111 35.084 6.06643 34.975C6.02175 34.8659 5.9992 34.7491 6.00008 34.6313C5.99874 34.5385 6.01338 34.4462 6.04335 34.3584C6.12738 34.2534 6.2344 34.1691 6.35615 34.112C6.4779 34.0548 6.61114 34.0264 6.74561 34.0289Z" fill="#EF4343"/>
<path d="M7.58434 35.663C7.58846 36.0153 7.49268 36.3615 7.30809 36.6615C7.16681 36.8822 6.97371 37.065 6.74562 37.194C6.40763 37.3843 6.04132 37.5191 5.66062 37.5934C4.18955 37.9262 2.96477 37.8131 1.9197 37.2606C1.43382 37.0176 1.0359 36.629 0.781452 36.149C0.730067 36.0621 0.696534 35.9658 0.682818 35.8658C0.669103 35.7658 0.675479 35.664 0.701575 35.5665C0.728091 35.478 0.781624 35.4001 0.854673 35.3435C0.96713 35.2626 1.09521 35.2059 1.23076 35.1771C1.32834 35.1509 1.42721 35.1298 1.52697 35.1139C1.36966 34.9701 1.23001 34.8081 1.11095 34.6313C1.02741 34.5234 0.966884 34.3995 0.93311 34.2672C0.899336 34.135 0.89303 33.9972 0.914581 33.8625C0.926076 33.7393 0.980881 33.6243 1.06925 33.5377C1.15761 33.4512 1.27381 33.3988 1.39717 33.3899C2.27888 33.2554 3.16815 33.1765 4.05975 33.1536V33.6794C3.18044 33.7047 2.30349 33.7836 1.43378 33.9157C1.28401 33.9357 1.24075 33.9923 1.23742 34.0122C1.24732 34.0934 1.28089 34.1698 1.33394 34.2319C1.57755 34.5776 1.90982 34.8512 2.29579 35.024C2.62861 35.024 2.99139 35.024 3.3342 35.0407C3.74883 35.0623 4.16432 35.0623 4.57895 35.0407C5.21461 34.9791 5.84446 34.8678 6.46273 34.7078L7.01188 34.5814C7.04776 34.5691 7.08656 34.5683 7.12293 34.579C7.1593 34.5897 7.19144 34.6115 7.2149 34.6413C7.24665 34.6819 7.27038 34.7282 7.2848 34.7777C7.48673 35.0076 7.59692 35.3038 7.59432 35.6098L7.58434 35.663ZM1.02441 35.7695C1.2518 36.1825 1.60026 36.5159 2.02288 36.7247C3.02135 37.2606 4.19288 37.3671 5.61403 37.0576C5.97123 36.9885 6.31506 36.8626 6.63246 36.6848C6.81206 36.585 6.96503 36.4434 7.07845 36.2721C7.19915 36.0799 7.26158 35.8567 7.25817 35.6298C7.25817 35.4168 7.155 35.2204 7.04516 35.1838C6.93533 35.1472 6.83549 35.2171 6.71234 35.2836L6.65909 35.3169C6.23034 35.5226 5.76319 35.636 5.28786 35.6497C4.87516 35.6863 4.45581 35.7163 4.03978 35.7363C3.53369 35.7846 3.02307 35.7486 2.52877 35.6298C2.42892 35.5998 2.33573 35.5665 2.24587 35.5299C1.92052 35.5397 1.59706 35.5832 1.28069 35.6597C1.18977 35.6819 1.10317 35.719 1.02441 35.7695Z" fill="#1D1D1B"/>
<path d="M6.7456 28.0115C6.86302 28.011 6.97936 28.0338 7.08796 28.0784C7.19657 28.123 7.29529 28.1887 7.37847 28.2716C7.46165 28.3544 7.52765 28.4529 7.57268 28.5613C7.61771 28.6698 7.64089 28.786 7.64089 28.9034C7.64032 28.9961 7.62573 29.0881 7.59763 29.1764C7.53229 29.3784 7.39701 29.5505 7.21611 29.6618C7.03521 29.773 6.82056 29.816 6.61077 29.7831C6.40097 29.7502 6.2098 29.6436 6.07162 29.4823C5.93344 29.3211 5.85733 29.1158 5.85697 28.9034C5.85519 28.7025 5.92345 28.5071 6.05 28.351C6.13284 28.2456 6.23844 28.1603 6.3589 28.1015C6.47936 28.0427 6.61156 28.0119 6.7456 28.0115Z" fill="#E02B2B"/>
<path d="M6.74558 28.0115C6.86299 28.011 6.97934 28.0338 7.08794 28.0784C7.19654 28.123 7.29526 28.1887 7.37844 28.2716C7.46162 28.3544 7.52762 28.4529 7.57265 28.5613C7.61769 28.6698 7.64087 28.786 7.64087 28.9034C7.64029 28.9961 7.6257 29.0881 7.5976 29.1764C7.51276 29.2807 7.40566 29.3647 7.28416 29.4223C7.16265 29.4799 7.02981 29.5096 6.89535 29.5092C6.66194 29.511 6.43719 29.4209 6.26966 29.2583C6.10214 29.0958 6.00529 28.8739 6.00006 28.6405C5.99898 28.5478 6.0136 28.4555 6.04332 28.3676C6.12515 28.2583 6.23106 28.1693 6.35285 28.1075C6.47464 28.0458 6.60903 28.0129 6.74558 28.0115Z" fill="#EF4343"/>
<path d="M7.58445 29.6389C7.5875 29.991 7.4918 30.3369 7.30821 30.6374C7.16589 30.8564 6.97297 31.0379 6.74574 31.1666C6.40941 31.3539 6.0454 31.4865 5.6674 31.5593C4.19632 31.8921 2.97154 31.779 1.92648 31.2265C1.43702 30.9814 1.03663 30.5892 0.781568 30.1049C0.730259 30.0173 0.696785 29.9205 0.683075 29.82C0.669366 29.7195 0.675693 29.6172 0.701691 29.5191C0.73003 29.4343 0.783407 29.36 0.854789 29.3061C0.967246 29.2251 1.09533 29.1685 1.23088 29.1397C1.32846 29.1135 1.42733 29.0924 1.52709 29.0765C1.37059 28.9368 1.23096 28.7793 1.11106 28.6072C1.02752 28.4993 0.967 28.3754 0.933226 28.2431C0.899452 28.1109 0.893146 27.9731 0.914697 27.8384C0.926833 27.7155 0.981841 27.6007 1.07008 27.5143C1.15832 27.4279 1.27416 27.3753 1.39729 27.3658C2.27899 27.2313 3.16827 27.1524 4.05987 27.1295V27.642C3.18055 27.6673 2.3036 27.7462 1.4339 27.8783C1.28413 27.8983 1.24086 27.9549 1.23753 27.9748C1.24744 28.0559 1.28101 28.1323 1.33405 28.1945C1.57767 28.5402 1.90993 28.8138 2.29591 28.9866C2.62873 28.9866 2.99151 28.9866 3.33431 28.9866C3.74895 29.0082 4.16443 29.0082 4.57907 28.9866C5.21473 28.9251 5.84458 28.8138 6.46284 28.6538L6.99868 28.5506C7.03456 28.5383 7.07336 28.5375 7.10973 28.5482C7.1461 28.559 7.17824 28.5807 7.20171 28.6105C7.23346 28.6512 7.25718 28.6975 7.2716 28.747C7.47353 28.9769 7.58372 29.2731 7.58112 29.579L7.58445 29.6389ZM1.02453 29.7454C1.25191 30.1584 1.60038 30.4918 2.02299 30.7006C3.02146 31.2365 4.19299 31.343 5.61414 31.0335C5.97134 30.9644 6.31517 30.8385 6.63258 30.6607C6.81289 30.5619 6.96606 30.4201 7.07856 30.248C7.19883 30.0568 7.26124 29.8349 7.25829 29.609C7.25829 29.3926 7.15511 29.1963 7.04528 29.1597C6.93545 29.1231 6.8356 29.193 6.71246 29.2595L6.66586 29.3061C6.23711 29.5118 5.76996 29.6252 5.29464 29.6389C4.88194 29.6789 4.46258 29.7055 4.04655 29.7255C3.54009 29.7717 3.02947 29.7334 2.53554 29.6123C2.43569 29.5824 2.3425 29.5491 2.25264 29.5125C1.92704 29.5217 1.60341 29.5664 1.28746 29.6456C1.1939 29.6642 1.1047 29.7004 1.02453 29.7521V29.7454Z" fill="#1D1D1B"/>
<path d="M6.74558 21.9841C6.863 21.9836 6.97934 22.0064 7.08795 22.051C7.19655 22.0956 7.29527 22.1613 7.37845 22.2441C7.46163 22.327 7.52763 22.4255 7.57266 22.5339C7.6177 22.6424 7.64088 22.7586 7.64088 22.876C7.6403 22.9687 7.62571 23.0607 7.59761 23.149C7.53227 23.351 7.39699 23.5231 7.21609 23.6344C7.03519 23.7456 6.82055 23.7886 6.61075 23.7557C6.40096 23.7228 6.20978 23.6162 6.0716 23.4549C5.93342 23.2937 5.85731 23.0884 5.85695 22.876C5.85573 22.6751 5.92392 22.48 6.04999 22.3236C6.13282 22.2182 6.23842 22.1329 6.35888 22.0741C6.47934 22.0153 6.61154 21.9845 6.74558 21.9841Z" fill="#E02B2B"/>
<path d="M6.74555 21.9841C6.86297 21.9836 6.97931 22.0064 7.08792 22.051C7.19652 22.0956 7.29524 22.1613 7.37842 22.2441C7.4616 22.327 7.5276 22.4255 7.57263 22.5339C7.61767 22.6424 7.64085 22.7586 7.64085 22.876C7.64027 22.9687 7.62568 23.0607 7.59758 23.149C7.48391 23.2959 7.32717 23.4038 7.14925 23.4574C6.97134 23.5109 6.78113 23.5076 6.60518 23.4479C6.42924 23.3881 6.27634 23.2749 6.16785 23.1241C6.05936 22.9732 6.00069 22.7923 6.00003 22.6065C5.99921 22.5137 6.01383 22.4215 6.0433 22.3335C6.12581 22.2254 6.23203 22.1377 6.35378 22.0771C6.47553 22.0165 6.60956 21.9847 6.74555 21.9841Z" fill="#EF4343"/>
<path d="M7.58445 23.6282C7.58803 23.9803 7.49229 24.3264 7.30821 24.6266C7.16589 24.8456 6.97297 25.0271 6.74574 25.1558C6.409 25.3408 6.04502 25.4711 5.6674 25.5419C4.19632 25.8747 2.97154 25.7616 1.92648 25.2091C1.43702 24.964 1.03663 24.5718 0.781568 24.0875C0.730259 23.9999 0.696785 23.9031 0.683075 23.8026C0.669366 23.702 0.675693 23.5998 0.701691 23.5017C0.728207 23.4132 0.78174 23.3352 0.854789 23.2787C0.967246 23.1977 1.09533 23.1411 1.23088 23.1123C1.32846 23.0861 1.42733 23.065 1.52709 23.0491C1.37059 22.9094 1.23096 22.7519 1.11106 22.5798C1.02752 22.4719 0.967 22.348 0.933226 22.2157C0.899452 22.0835 0.893146 21.9457 0.914697 21.811C0.926833 21.6881 0.981841 21.5733 1.07008 21.4869C1.15832 21.4005 1.27416 21.3479 1.39729 21.3384C2.27899 21.2039 3.16827 21.125 4.05987 21.1021V21.6279C3.18055 21.6532 2.3036 21.7321 1.4339 21.8642C1.28413 21.8842 1.24086 21.9408 1.23753 21.9607C1.24744 22.0418 1.28101 22.1182 1.33405 22.1804C1.57359 22.5284 1.90239 22.8054 2.28592 22.9825C2.61875 22.9825 2.98152 22.9825 3.32433 22.9825C3.73897 23.0041 4.15445 23.0041 4.56908 22.9825C5.20474 22.921 5.8346 22.8097 6.45286 22.6497L6.99868 22.5332C7.03465 22.5219 7.07317 22.5215 7.10933 22.5322C7.14549 22.5429 7.17765 22.5641 7.20171 22.5931C7.23346 22.6337 7.25718 22.68 7.2716 22.7296C7.47353 22.9594 7.58372 23.2556 7.58112 23.5616L7.58445 23.6282ZM1.02453 23.7347C1.25363 24.1455 1.60171 24.4773 2.02299 24.6865C3.02146 25.2257 4.19299 25.3289 5.61415 25.0194C5.97134 24.9503 6.31517 24.8244 6.63258 24.6466C6.81289 24.5478 6.96606 24.406 7.07856 24.2339C7.19883 24.0427 7.26124 23.8208 7.25829 23.5949C7.25829 23.3786 7.15511 23.1822 7.04528 23.1456C6.93545 23.109 6.8356 23.1789 6.71246 23.2488L6.65921 23.2787C6.23045 23.4844 5.76331 23.5978 5.28798 23.6115C4.87528 23.6515 4.45592 23.6814 4.0399 23.6981C3.53343 23.7443 3.02282 23.706 2.52888 23.5849C2.43256 23.5577 2.33807 23.5243 2.24599 23.4851C1.92038 23.4943 1.59676 23.539 1.2808 23.6182C1.18886 23.6407 1.10194 23.6802 1.02453 23.7347Z" fill="#1D1D1B"/>
<path d="M6.74562 15.9932C6.92217 15.9926 7.09495 16.0443 7.24207 16.1419C7.38919 16.2395 7.50404 16.3786 7.57206 16.5415C7.64008 16.7045 7.65822 16.8839 7.62418 17.0572C7.59014 17.2304 7.50545 17.3896 7.38084 17.5147C7.25623 17.6398 7.0973 17.7251 6.92419 17.7598C6.75108 17.7945 6.57156 17.777 6.40838 17.7096C6.2452 17.6422 6.1057 17.5278 6.00754 17.3811C5.90938 17.2343 5.85699 17.0617 5.85699 16.8852C5.85477 16.6821 5.92299 16.4845 6.05002 16.3261C6.13352 16.2219 6.23942 16.1379 6.35984 16.0803C6.48026 16.0226 6.61212 15.9929 6.74562 15.9932Z" fill="#E02B2B"/>
<path d="M6.7456 15.9933C6.88636 15.9928 7.02522 16.0257 7.15085 16.0892C7.27647 16.1527 7.38527 16.245 7.46837 16.3586C7.55147 16.4723 7.60651 16.6039 7.62897 16.7429C7.65143 16.8818 7.64069 17.0241 7.59762 17.1581C7.4826 17.3071 7.32343 17.4158 7.14287 17.4688C6.96232 17.5217 6.76964 17.5163 6.59238 17.4531C6.41513 17.39 6.26239 17.2724 6.156 17.1172C6.04962 16.962 5.99504 16.7771 6.00008 16.589C5.99925 16.4963 6.01387 16.404 6.04334 16.3161C6.12853 16.2129 6.23593 16.1302 6.35753 16.0743C6.47913 16.0184 6.61179 15.9907 6.7456 15.9933Z" fill="#EF4343"/>
<path d="M7.58445 17.6141C7.58803 17.9663 7.49229 18.3123 7.30821 18.6126C7.16589 18.8315 6.97297 19.013 6.74574 19.1418C6.4088 19.3256 6.04483 19.4548 5.6674 19.5245C4.19632 19.8573 2.97154 19.7442 1.92648 19.1917C1.43793 18.9453 1.03789 18.5534 0.781568 18.0701C0.730259 17.9825 0.696785 17.8857 0.683075 17.7852C0.669366 17.6846 0.675693 17.5824 0.701691 17.4843C0.728207 17.3958 0.78174 17.3178 0.854789 17.2613C0.967246 17.1803 1.09533 17.1237 1.23088 17.0949C1.32846 17.0687 1.42733 17.0476 1.52709 17.0317C1.37059 16.892 1.23096 16.7345 1.11106 16.5624C1.02752 16.4545 0.967 16.3306 0.933226 16.1983C0.899452 16.0661 0.893146 15.9283 0.914697 15.7936C0.928294 15.6719 0.983944 15.5587 1.07205 15.4736C1.16015 15.3886 1.27518 15.3369 1.39729 15.3276C2.27899 15.1932 3.16827 15.1143 4.05987 15.0913V15.6205C3.18052 15.643 2.30347 15.7208 1.4339 15.8535C1.28413 15.8734 1.24086 15.93 1.23753 15.95C1.24744 16.0311 1.28101 16.1075 1.33405 16.1697C1.57767 16.5153 1.90994 16.789 2.29591 16.9618C2.62873 16.9618 2.99151 16.9618 3.33431 16.9618C3.74895 16.9834 4.16443 16.9834 4.57907 16.9618C5.21473 16.9002 5.84458 16.7889 6.46284 16.6289L6.99868 16.5158C7.03465 16.5045 7.07317 16.5041 7.10933 16.5148C7.14549 16.5255 7.17765 16.5467 7.20171 16.5757C7.23346 16.6163 7.25718 16.6626 7.2716 16.7122C7.47353 16.942 7.58372 17.2382 7.58112 17.5442L7.58445 17.6141ZM1.02453 17.7173C1.25363 18.1281 1.60171 18.4599 2.02299 18.6691C3.02146 19.2083 4.19299 19.3115 5.61415 19.002C5.97172 18.9342 6.31577 18.8083 6.63258 18.6292C6.81289 18.5304 6.96606 18.3886 7.07856 18.2165C7.19883 18.0253 7.26124 17.8034 7.25829 17.5775C7.25829 17.3645 7.15511 17.1648 7.04528 17.1282C6.93545 17.0916 6.8356 17.1615 6.71246 17.2314L6.65921 17.2613C6.23045 17.467 5.76331 17.5804 5.28798 17.5941C4.87528 17.6341 4.45592 17.664 4.0399 17.6807C3.53343 17.7269 3.02282 17.6886 2.52888 17.5675C2.43209 17.5418 2.3375 17.5084 2.24599 17.4677C1.92038 17.4769 1.59676 17.5216 1.2808 17.6008C1.18886 17.6233 1.10194 17.6628 1.02453 17.7173Z" fill="#1D1D1B"/>
<path d="M6.74559 9.95917C6.92214 9.95851 7.09492 10.0103 7.24204 10.1079C7.38916 10.2055 7.504 10.3446 7.57202 10.5075C7.64004 10.6704 7.65818 10.8499 7.62414 11.0231C7.5901 11.1963 7.50542 11.3556 7.38081 11.4807C7.2562 11.6057 7.09727 11.691 6.92416 11.7257C6.75104 11.7604 6.57153 11.7429 6.40835 11.6755C6.24517 11.6081 6.10567 11.4938 6.00751 11.347C5.90935 11.2003 5.85695 11.0277 5.85695 10.8511C5.85568 10.6512 5.92391 10.4571 6.04999 10.302C6.13215 10.1956 6.23753 10.1094 6.35809 10.05C6.47865 9.99061 6.61119 9.95954 6.74559 9.95917Z" fill="#E02B2B"/>
<path d="M6.74558 9.95918C6.88634 9.95873 7.0252 9.9916 7.15083 10.0551C7.27645 10.1186 7.38526 10.2109 7.46836 10.3246C7.55146 10.4382 7.60649 10.5698 7.62895 10.7088C7.65141 10.8477 7.64067 10.99 7.5976 11.1241C7.48341 11.2717 7.32577 11.3798 7.14688 11.4332C6.968 11.4865 6.77688 11.4824 6.60046 11.4214C6.42405 11.3604 6.27121 11.2456 6.1635 11.0931C6.05579 10.9406 5.99862 10.7582 6.00006 10.5716C5.99897 10.4799 6.0136 10.3887 6.04332 10.302C6.12617 10.1947 6.23262 10.108 6.35441 10.0486C6.4762 9.98911 6.61005 9.95852 6.74558 9.95918Z" fill="#EF4343"/>
<path d="M7.58445 11.5966C7.58803 11.9488 7.49229 12.2949 7.30821 12.5951C7.16682 12.8149 6.97369 12.9966 6.74574 13.1243C6.40944 13.3096 6.04523 13.4388 5.6674 13.507C4.19632 13.8399 2.97154 13.7267 1.92648 13.1742C1.43728 12.9288 1.037 12.5367 0.781568 12.0526C0.730259 11.9651 0.696785 11.8682 0.683075 11.7677C0.669366 11.6672 0.675693 11.5649 0.701691 11.4668C0.728207 11.3784 0.78174 11.3004 0.854789 11.2439C0.967246 11.1629 1.09533 11.1062 1.23088 11.0774C1.3274 11.0541 1.42724 11.0309 1.52709 11.0142C1.37059 10.8745 1.23096 10.717 1.11106 10.5449C1.02752 10.437 0.967 10.3131 0.933226 10.1809C0.899452 10.0486 0.893146 9.91088 0.914697 9.77611C0.927461 9.65344 0.982668 9.53909 1.07078 9.4528C1.1589 9.36651 1.27438 9.3137 1.39729 9.3035C2.27919 9.1707 3.16836 9.09179 4.05987 9.0672V9.59639C3.18052 9.61889 2.30347 9.6967 1.4339 9.82936C1.28413 9.84933 1.24086 9.90591 1.23753 9.92588C1.24685 10.0072 1.28049 10.0837 1.33405 10.1455C1.57767 10.4912 1.90994 10.7649 2.29591 10.9377C2.62873 10.9377 2.99151 10.9377 3.33431 10.9377C3.74895 10.9593 4.16443 10.9593 4.57907 10.9377C5.21473 10.8761 5.84458 10.7648 6.46284 10.6048L6.99868 10.4983C7.03494 10.4869 7.07381 10.4869 7.1101 10.4982C7.14639 10.5095 7.17835 10.5316 7.20171 10.5616C7.23413 10.6005 7.25795 10.6459 7.2716 10.6947C7.47299 10.9249 7.5831 11.2209 7.58112 11.5268L7.58445 11.5966ZM1.02453 11.7032C1.25124 12.1158 1.59999 12.4483 2.02299 12.655C3.02146 13.1942 4.19299 13.2974 5.61415 12.9878C5.97152 12.9211 6.31556 12.7964 6.63258 12.6184C6.8124 12.5174 6.96535 12.3748 7.07856 12.2024C7.19936 12.0114 7.26182 11.7893 7.25829 11.5634C7.25829 11.3504 7.15511 11.154 7.04528 11.1141C6.93545 11.0741 6.8356 11.1473 6.71246 11.2172L6.65921 11.2472C6.23172 11.4586 5.76451 11.5777 5.28798 11.5966C4.87528 11.6366 4.45592 11.6665 4.0399 11.6832C3.53343 11.7294 3.02282 11.6911 2.52888 11.57C2.43209 11.5443 2.3375 11.5109 2.24599 11.4702C1.92038 11.4795 1.59676 11.5241 1.2808 11.6033C1.19007 11.6209 1.10326 11.6547 1.02453 11.7032Z" fill="#1D1D1B"/>
<path d="M6.74559 3.94178C6.92214 3.94112 7.09492 3.99287 7.24204 4.09048C7.38916 4.18809 7.504 4.32716 7.57202 4.49009C7.64004 4.65302 7.65818 4.83246 7.62414 5.00571C7.5901 5.17895 7.50542 5.33819 7.38081 5.46327C7.2562 5.58835 7.09727 5.67363 6.92416 5.70832C6.75104 5.743 6.57153 5.72553 6.40835 5.65812C6.24517 5.59071 6.10567 5.47639 6.00751 5.32963C5.90935 5.18288 5.85695 5.0103 5.85695 4.83374C5.85568 4.63384 5.92391 4.43972 6.04999 4.28459C6.13215 4.17822 6.23753 4.09204 6.35809 4.03263C6.47865 3.97322 6.61119 3.94214 6.74559 3.94178Z" fill="#E02B2B"/>
<path d="M6.74558 3.94178C6.88634 3.94133 7.0252 3.97421 7.15083 4.03771C7.27645 4.10121 7.38526 4.19355 7.46836 4.30716C7.55146 4.42077 7.60649 4.55244 7.62895 4.69139C7.65141 4.83035 7.64067 4.97265 7.5976 5.10666C7.48341 5.25433 7.32577 5.36245 7.14688 5.4158C6.968 5.46914 6.77688 5.46502 6.60046 5.404C6.42405 5.34299 6.27121 5.22817 6.1635 5.07571C6.05579 4.92325 5.99862 4.74084 6.00006 4.55418C5.99897 4.4625 6.0136 4.37132 6.04332 4.28459C6.12617 4.17734 6.23262 4.09062 6.35441 4.03116C6.4762 3.97171 6.61005 3.94113 6.74558 3.94178Z" fill="#EF4343"/>
<path d="M7.58445 5.57925C7.58493 5.92577 7.4893 6.26564 7.30821 6.56108C7.16682 6.78082 6.97369 6.96252 6.74574 7.09027C6.41113 7.2827 6.04663 7.4177 5.6674 7.48965C4.19632 7.82247 2.97154 7.70931 1.92648 7.15683C1.43662 6.91233 1.03609 6.51994 0.781568 6.03522C0.730259 5.94768 0.696785 5.85086 0.683075 5.75032C0.669366 5.64979 0.675693 5.54753 0.701691 5.44945C0.729183 5.36144 0.78253 5.28374 0.854789 5.22646C0.967246 5.14549 1.09533 5.08882 1.23088 5.06005C1.3274 5.03675 1.42724 5.01346 1.52709 4.99681C1.37059 4.85715 1.23096 4.69965 1.11106 4.52754C1.02752 4.41961 0.967 4.2957 0.933226 4.16347C0.899452 4.03124 0.893146 3.89348 0.914697 3.75872C0.927461 3.63605 0.982668 3.52169 1.07078 3.4354C1.1589 3.34911 1.27438 3.29631 1.39729 3.28611C2.27919 3.15331 3.16836 3.07439 4.05987 3.0498V3.57899C3.18052 3.60149 2.30347 3.6793 1.4339 3.81197C1.28413 3.83194 1.24086 3.88852 1.23753 3.90849C1.247 3.99071 1.28058 4.0683 1.33405 4.13148C1.57883 4.47526 1.91085 4.74754 2.29591 4.92026C2.62873 4.92026 2.99151 4.92026 3.33431 4.92026C3.7489 4.94356 4.16448 4.94356 4.57907 4.92026C5.21495 4.86035 5.84493 4.74905 6.46284 4.58744L6.99868 4.48094C7.03494 4.46952 7.07381 4.46946 7.1101 4.48076C7.14639 4.49207 7.17835 4.51419 7.20171 4.54418C7.23413 4.58313 7.25795 4.6285 7.2716 4.6773C7.47295 4.90885 7.58299 5.20585 7.58112 5.51269L7.58445 5.57925ZM1.02453 5.67577C1.25124 6.08842 1.59999 6.42089 2.02299 6.62764C3.02146 7.16681 4.19299 7.27332 5.61414 6.96046C5.97152 6.89377 6.31556 6.76897 6.63258 6.59103C6.8124 6.49006 6.96535 6.34738 7.07856 6.175C7.19936 5.98402 7.26181 5.76194 7.25829 5.53599C7.25829 5.32298 7.15511 5.12661 7.04528 5.08668C6.93545 5.04674 6.8356 5.11996 6.71246 5.18985L6.65921 5.21981C6.231 5.42699 5.76352 5.54045 5.28798 5.55263C4.87528 5.59257 4.45592 5.62252 4.0399 5.63916C3.53343 5.68536 3.02282 5.64712 2.52888 5.526C2.43209 5.50025 2.3375 5.46687 2.24599 5.42615C1.92038 5.43544 1.59676 5.48008 1.2808 5.55928C1.18947 5.58352 1.10284 5.62289 1.02453 5.67577Z" fill="#1D1D1B"/>
<path d="M16.0814 58.4347C15.692 59.4831 15.3492 60.5515 15.053 61.6298C14.7568 62.7082 14.85 64.0428 14.8799 65.1477C14.8799 65.1677 14.9199 65.1644 14.9199 65.1477C14.9196 65.1427 14.9182 65.1377 14.9157 65.1333C14.9132 65.1289 14.9098 65.1251 14.9056 65.1222C14.9014 65.1193 14.8966 65.1174 14.8916 65.1166C14.8866 65.1159 14.8815 65.1163 14.8766 65.1178C14.558 65.0019 14.2192 64.9515 13.8806 64.9698C13.542 64.9881 13.2106 65.0747 12.9063 65.2243C12.3378 65.5648 11.8532 66.0289 11.4885 66.5822C11.3624 66.7402 11.2706 66.9226 11.2189 67.1181C11.1948 67.2161 11.1975 67.3188 11.2268 67.4154C11.2561 67.5121 11.3108 67.599 11.3853 67.6672C11.544 67.7668 11.7315 67.8102 11.9178 67.7904C13.8105 67.7904 15.7031 67.7493 17.5958 67.6672C17.6887 67.674 17.7821 67.6613 17.8698 67.6298C17.9575 67.5982 18.0377 67.5486 18.105 67.4842C18.1732 67.3701 18.2013 67.2366 18.1849 67.1047C18.1849 65.6603 17.9985 64.2092 18.1449 62.7781C18.2914 61.3469 18.8106 59.8659 19.9222 58.9439C19.7506 58.571 19.4471 58.2746 19.0702 58.1119C18.6948 57.9524 18.293 57.8644 17.8853 57.8523C17.2563 57.8024 16.2978 57.8423 16.0814 58.4347Z" fill="#FEC22C"/>
<path d="M11.9043 68C11.6793 68.024 11.4537 67.9596 11.2753 67.8203C10.999 67.5607 11.0323 67.118 11.3718 66.6321C11.8145 65.9998 12.4335 65.2376 13.3288 64.968C14.0993 64.7526 14.9233 64.8432 15.6286 65.221C16.3 65.5829 16.9145 66.0416 17.4525 66.5822C17.485 66.6163 17.5032 66.6616 17.5032 66.7087C17.5032 66.7558 17.485 66.8011 17.4525 66.8351C17.4188 66.8685 17.3734 66.8872 17.326 66.8872C17.2786 66.8872 17.2332 66.8685 17.1995 66.8351L16.9898 66.6454L16.9832 66.6155C16.535 66.1842 16.0287 65.8179 15.4788 65.5272C14.8569 65.1925 14.1302 65.1091 13.4486 65.2942C12.6532 65.5471 12.084 66.2527 11.6747 66.8385C11.5083 67.0781 11.3685 67.4109 11.5282 67.5574C11.6539 67.6336 11.802 67.6641 11.9476 67.6439H13.8613C15.3064 67.6599 16.7512 67.5899 18.188 67.4342C18.008 66.0137 17.9712 64.5787 18.0782 63.1508C18.1913 61.6328 18.7662 60.1857 19.7256 59.0038C19.7397 58.9824 19.7581 58.9643 19.7798 58.9506C19.8014 58.9369 19.8257 58.9279 19.8511 58.9244C19.8764 58.9209 19.9022 58.9228 19.9268 58.93C19.9514 58.9373 19.9741 58.9497 19.9935 58.9664C20.0128 58.9831 20.0284 59.0038 20.0391 59.0271C20.0499 59.0503 20.0555 59.0756 20.0557 59.1012C20.0558 59.1268 20.0505 59.1522 20.0401 59.1755C20.0297 59.1989 20.0144 59.2198 19.9952 59.2368C19.084 60.3649 18.5394 61.7445 18.4343 63.1907C18.3281 64.6512 18.3705 66.1187 18.5608 67.5707C18.5655 67.6165 18.5521 67.6623 18.5235 67.6984C18.4949 67.7344 18.4533 67.7579 18.4077 67.7637C16.8969 67.9433 15.3759 68.0222 13.8547 68H11.9443H11.9043Z" fill="#000307"/>
<path d="M14.9298 64.562C14.8902 64.5624 14.8516 64.5496 14.8202 64.5254C14.7888 64.5013 14.7665 64.4672 14.7567 64.4288C14.6401 63.8456 14.6492 63.2443 14.7834 62.6649C15.0251 61.2974 15.4088 59.9589 15.9283 58.671C15.9467 58.6275 15.9813 58.5929 16.0247 58.5742C16.0681 58.5556 16.117 58.5545 16.1612 58.5712C16.183 58.5799 16.2029 58.5929 16.2196 58.6095C16.2363 58.626 16.2495 58.6457 16.2585 58.6674C16.2675 58.6891 16.2721 58.7123 16.2719 58.7358C16.2718 58.7593 16.267 58.7825 16.2578 58.8042C15.7482 60.0718 15.3723 61.3891 15.1362 62.7348C15.0367 63.1903 15.0109 63.6589 15.0596 64.1226C15.0702 64.1411 15.077 64.1615 15.0796 64.1826L15.1062 64.3623C15.1132 64.4076 15.1026 64.4538 15.0766 64.4915C15.0506 64.5293 15.0112 64.5557 14.9664 64.5653L14.9298 64.562Z" fill="#000307"/>
<path d="M33.914 58.4347C34.3034 59.4831 34.6462 60.5515 34.9424 61.6298C35.2386 62.7082 35.1455 64.0428 35.1155 65.1477C35.1155 65.1677 35.0756 65.1644 35.0756 65.1477C35.0758 65.1427 35.0773 65.1377 35.0797 65.1333C35.0822 65.1289 35.0857 65.1251 35.0898 65.1222C35.094 65.1193 35.0988 65.1174 35.1038 65.1166C35.1089 65.1159 35.114 65.1163 35.1188 65.1178C35.4375 65.0019 35.7763 64.9515 36.1149 64.9698C36.4534 64.9881 36.7848 65.0747 37.0891 65.2243C37.6576 65.5648 38.1422 66.0289 38.507 66.5822C38.6331 66.7402 38.7249 66.9226 38.7765 67.1181C38.8006 67.2161 38.7979 67.3188 38.7686 67.4154C38.7393 67.5121 38.6846 67.599 38.6101 67.6672C38.4515 67.7668 38.2639 67.8102 38.0776 67.7904C36.185 67.7904 34.2923 67.7493 32.3997 67.6672C32.3067 67.674 32.2133 67.6613 32.1256 67.6298C32.0379 67.5982 31.9578 67.5486 31.8905 67.4842C31.8223 67.3701 31.7941 67.2366 31.8106 67.1047C31.8106 65.6603 31.997 64.2092 31.8505 62.7781C31.7041 61.3469 31.1849 59.8659 30.0732 58.9439C30.2428 58.5695 30.5469 58.2725 30.9253 58.1119C31.3006 57.9524 31.7025 57.8644 32.1101 57.8523C32.7391 57.8024 33.6977 57.8423 33.914 58.4347Z" fill="#FEC22C"/>
<path d="M38.0909 68H38.0543H36.1405C34.6204 68.0221 33.1005 67.9432 31.5909 67.7637C31.5452 67.7579 31.5036 67.7344 31.475 67.6984C31.4464 67.6623 31.4331 67.6165 31.4378 67.5707C31.6281 66.1187 31.6704 64.6512 31.5642 63.1907C31.4577 61.7448 30.9132 60.3656 30.0033 59.2368C29.9842 59.2198 29.9689 59.1989 29.9584 59.1755C29.948 59.1522 29.9427 59.1268 29.9429 59.1012C29.943 59.0756 29.9487 59.0503 29.9594 59.0271C29.9701 59.0038 29.9857 58.9831 30.0051 58.9664C30.0245 58.9497 30.0472 58.9373 30.0717 58.93C30.0963 58.9228 30.1221 58.9209 30.1475 58.9244C30.1728 58.9279 30.1971 58.9369 30.2188 58.9506C30.2404 58.9643 30.2589 58.9824 30.2729 59.0038C31.2324 60.1857 31.8073 61.6328 31.9204 63.1508C32.0273 64.5787 31.9905 66.0137 31.8105 67.4342C33.2473 67.5899 34.6921 67.6599 36.1372 67.6439H38.0509C38.1965 67.6639 38.3445 67.6333 38.4703 67.5574C38.6301 67.4109 38.4903 67.0781 38.3239 66.8385C37.9145 66.2527 37.3254 65.5471 36.5499 65.2942C35.8683 65.1091 35.1417 65.1925 34.5197 65.5272C33.9692 65.8168 33.4627 66.1833 33.0153 66.6155L32.9887 66.6454L32.779 66.8351C32.7454 66.8685 32.6999 66.8872 32.6526 66.8872C32.6052 66.8872 32.5597 66.8685 32.5261 66.8351C32.4935 66.8011 32.4754 66.7558 32.4754 66.7087C32.4754 66.6616 32.4935 66.6163 32.5261 66.5822C33.0641 66.0416 33.6786 65.5829 34.35 65.221C35.0553 64.8432 35.8792 64.7526 36.6498 64.968C37.5451 65.2509 38.1641 66.0131 38.6068 66.6321C38.9396 67.118 38.9795 67.5607 38.7033 67.8203C38.5292 67.9554 38.3104 68.0197 38.0909 68Z" fill="#000307"/>
<path d="M35.0655 64.562H35.0289C34.9841 64.5523 34.9447 64.5259 34.9187 64.4882C34.8927 64.4505 34.8821 64.4042 34.8891 64.359L34.9157 64.1792C34.9183 64.1581 34.9251 64.1378 34.9357 64.1193C34.9844 63.6556 34.9586 63.187 34.8591 62.7314C34.6234 61.3853 34.2464 60.0678 33.7342 58.8008C33.7205 58.7576 33.7237 58.7107 33.7431 58.6697C33.7625 58.6287 33.7967 58.5966 33.8388 58.5797C33.8809 58.5629 33.9279 58.5626 33.9702 58.5789C34.0125 58.5952 34.0471 58.6269 34.067 58.6677C34.5869 59.9554 34.9706 61.294 35.2119 62.6616C35.3461 63.241 35.3552 63.8423 35.2386 64.4255C35.2295 64.4645 35.2074 64.4993 35.176 64.5241C35.1445 64.5489 35.1055 64.5623 35.0655 64.562Z" fill="#000307"/>
<path d="M30.7472 41.7735L25.7349 49.6021L28.2351 51.2029L33.2474 43.3743L30.7472 41.7735Z" fill="#C6C6C6"/>
<path d="M30.5009 42.166L25.738 49.605L28.2382 51.2058L33.0012 43.7668L30.5009 42.166Z" fill="#878787"/>
<path d="M30.4998 42.1604L26.0671 49.0836L28.5674 50.6844L33.0001 43.7612L30.4998 42.1604Z" fill="#A1A5A6"/>
<path d="M28.2361 51.2025L33.2484 43.3745L36.1706 45.245C36.7729 45.632 37.1972 46.242 37.3507 46.9413C37.5041 47.6406 37.3742 48.3722 36.9893 48.9759L34.8892 52.2708C34.6981 52.5698 34.45 52.8281 34.1591 53.031C33.8681 53.234 33.54 53.3776 33.1935 53.4536C32.8469 53.5297 32.4888 53.5367 32.1396 53.4742C31.7904 53.4117 31.4569 53.281 31.1583 53.0896L28.2361 51.2025Z" fill="#FF9988"/>
<path d="M28.2361 51.2025L32.9988 43.7639L35.9942 45.671C36.2852 45.8573 36.5366 46.0991 36.7341 46.3826C36.9316 46.6661 37.0713 46.9858 37.1452 47.3233C37.2191 47.6609 37.2257 48.0097 37.1647 48.3498C37.1037 48.6899 36.9762 49.0146 36.7896 49.3054L34.8659 52.3008C34.4885 52.8881 33.8935 53.3016 33.2115 53.4508C32.5295 53.5999 31.8163 53.4724 31.2282 53.0962L28.2361 51.2025Z" fill="#B53737"/>
<path d="M28.5688 50.6866L32.9987 43.7639L36.0573 45.7209C36.3385 45.9005 36.5815 46.1337 36.7723 46.4073C36.9632 46.6809 37.0982 46.9895 37.1696 47.3154C37.241 47.6412 37.2474 47.978 37.1885 48.3063C37.1296 48.6347 37.0064 48.9482 36.8262 49.2289L35.1321 51.8748C34.7689 52.441 34.1959 52.8399 33.5388 52.9841C32.8818 53.1282 32.1944 53.0058 31.6275 52.6436L28.5688 50.6866Z" fill="#EF4343"/>
<path d="M15.2427 39.6769L17.3428 36.3986C17.5336 36.0998 17.7814 35.8415 18.072 35.6386C18.3627 35.4357 18.6906 35.2921 19.0368 35.2161C19.383 35.14 19.7409 35.133 20.0898 35.1954C20.4388 35.2579 20.772 35.3885 21.0704 35.5799L30.7489 41.7737L25.7366 49.6083L16.0614 43.4078C15.7625 43.2168 15.5042 42.9687 15.3013 42.6777C15.0983 42.3867 14.9547 42.0586 14.8787 41.7121C14.8026 41.3656 14.7956 41.0075 14.8581 40.6583C14.9206 40.309 15.0512 39.9756 15.2427 39.6769Z" fill="#90DAF4"/>
<path d="M15.2059 39.7335L17.1296 36.7381C17.5065 36.1503 18.1013 35.736 18.7833 35.5862C19.4653 35.4365 20.1789 35.5635 20.7674 35.9393L30.4991 42.1697L25.7364 49.6083L16.0047 43.3712C15.7133 43.1849 15.4615 42.943 15.2636 42.6593C15.0657 42.3756 14.9257 42.0557 14.8515 41.7179C14.7774 41.38 14.7705 41.0309 14.8313 40.6904C14.8921 40.3499 15.0194 40.0247 15.2059 39.7335Z" fill="#2D97D1"/>
<path d="M15.4855 39.2908L17.1796 36.6282C17.5434 36.0618 18.117 35.6628 18.7746 35.5187C19.4322 35.3746 20.1201 35.4971 20.6875 35.8594L30.4991 42.1398L26.0659 49.0625L16.2576 42.8021C15.9761 42.6225 15.7328 42.3891 15.5415 42.1153C15.3503 41.8416 15.215 41.5328 15.1432 41.2066C15.0715 40.8805 15.0648 40.5434 15.1236 40.2146C15.1823 39.8859 15.3053 39.572 15.4855 39.2908Z" fill="#70C4E8"/>
<path d="M28.2992 51.4588L25.4968 49.6649L30.7022 41.5374L33.5045 43.3313L28.2992 51.4588ZM25.9927 49.5584L28.1927 50.9662L33.012 43.4411L30.812 42.0299L25.9927 49.5584Z" fill="#1D1D1B"/>
<path d="M32.6259 53.6887C32.0774 53.6887 31.5404 53.5316 31.0783 53.2361L28.0063 51.2724L33.2117 43.1449L36.2836 45.1119C36.9253 45.5248 37.3773 46.1751 37.5407 46.9205C37.7042 47.6658 37.5657 48.4456 37.1556 49.0891L35.0555 52.3707C34.7932 52.7762 34.4333 53.1093 34.0088 53.3395C33.5843 53.5698 33.1088 53.6899 32.6259 53.6887ZM28.4989 51.1593L31.2713 52.9365C31.8348 53.2965 32.518 53.4184 33.1712 53.2756C33.8244 53.1327 34.3943 52.7367 34.756 52.1744L36.8528 48.8927C37.2126 48.3298 37.3344 47.6471 37.1915 46.9945C37.0487 46.3418 36.6527 45.7725 36.0906 45.4114L33.3182 43.6375L28.4989 51.1593Z" fill="#1D1D1B"/>
<path d="M25.8064 49.8579L15.9848 43.5675C15.6664 43.3637 15.3912 43.0991 15.1751 42.7889C14.9589 42.4786 14.806 42.1289 14.725 41.7595C14.644 41.3902 14.6366 41.0086 14.7031 40.6364C14.7697 40.2642 14.9089 39.9087 15.1128 39.5903L17.2096 36.312C17.6219 35.6696 18.2722 35.2171 19.0179 35.0536C19.7635 34.8901 20.5435 35.0291 21.1868 35.44L31.015 41.7304L25.8064 49.8579ZM19.6458 35.3402C19.2222 35.341 18.8055 35.4481 18.434 35.6516C18.0625 35.8551 17.7479 36.1485 17.5191 36.5051L15.419 39.7834C15.2378 40.0626 15.1136 40.3749 15.0536 40.7023C14.9935 41.0297 14.9987 41.3657 15.0689 41.6911C15.1391 42.0164 15.2729 42.3247 15.4627 42.5982C15.6524 42.8717 15.8943 43.105 16.1745 43.2846L25.6965 49.382L30.5158 41.8535L20.9771 35.7396C20.58 35.4834 20.1184 35.345 19.6458 35.3402Z" fill="#1D1D1B"/>
<path d="M32.1866 43.2611L30.6648 45.6379L30.9647 45.83L32.4865 43.4531L32.1866 43.2611Z" fill="#1D1D1B"/>
<path d="M31.4003 43.1111L29.6577 45.8328L29.9576 46.0248L31.7002 43.3031L31.4003 43.1111Z" fill="#1D1D1B"/>
<path d="M30.9385 42.4614L26.3838 49.5752L26.6837 49.7672L31.2384 42.6534L30.9385 42.4614Z" fill="#1D1D1B"/>
<path d="M28.2295 47.9906L26.7759 50.261L27.0758 50.453L28.5294 48.1826L28.2295 47.9906Z" fill="#1D1D1B"/>
<path d="M29.0392 48.024L27.731 50.0674L28.0309 50.2594L29.3391 48.2161L29.0392 48.024Z" fill="#1D1D1B"/>
<path d="M21.2367 46.5397C21.2483 46.3076 21.2035 46.0761 21.1061 45.8652C21.0088 45.6542 20.8617 45.4699 20.6775 45.3282C20.3447 44.9954 19.932 44.7757 19.6791 44.4995C19.6425 44.3963 19.8055 44.2931 19.9553 44.1667C20.5135 43.7067 20.8715 43.0481 20.9538 42.3295C20.9837 42.1758 20.982 42.0176 20.9485 41.8646C20.9151 41.7116 20.8508 41.5671 20.7594 41.4399C20.6681 41.3128 20.5517 41.2056 20.4174 41.125C20.2832 41.0445 20.1338 40.9923 19.9786 40.9716C19.2863 40.915 18.664 41.4775 18.0715 41.8602C17.7387 42.0765 17.4292 42.2929 17.1396 42.0166C16.9799 41.8935 16.8301 41.7637 16.6803 41.6272C15.8019 40.7952 15.0446 39.844 14.4305 38.8016C13.8274 37.7606 13.3429 36.6554 12.986 35.5066C12.8928 35.2603 12.8362 35.014 12.7564 34.7711C12.6565 34.4383 12.317 34.5481 12.0208 34.5681L11.4351 34.6313C11.0744 34.6634 10.717 34.7258 10.3667 34.8177C10.3104 34.8436 10.2636 34.8863 10.2326 34.9399C10.2016 34.9936 10.188 35.0555 10.1936 35.1172C10.2059 35.4263 10.2381 35.7342 10.2902 36.0391C10.5402 37.5083 11.0568 38.9194 11.8145 40.2027C12.5402 41.4099 13.4059 42.5271 14.3939 43.531C14.5836 43.7273 14.7733 43.917 14.9696 44.1001C14.9958 44.1455 15.0123 44.1959 15.018 44.248C15.0237 44.3002 15.0186 44.3529 15.0029 44.403C14.7773 45.0053 14.7367 45.6612 14.8864 46.2867C15.0053 46.9278 15.3219 47.5155 15.7917 47.9675C16.031 48.2089 16.3483 48.3576 16.687 48.3868C16.807 48.3817 16.9245 48.3511 17.0318 48.2972C17.1391 48.2433 17.2337 48.1672 17.3094 48.074C17.6548 47.6316 17.8443 47.0876 17.8485 46.5264C17.8485 46.3167 17.9051 46.4298 17.985 46.5097C18.2127 46.7847 18.4934 47.0111 18.8104 47.1754C19.0938 47.3181 19.4004 47.4093 19.7157 47.445C20.0115 47.4832 20.3122 47.4478 20.591 47.3418C20.7462 47.2784 20.8843 47.1794 20.9942 47.0528C21.104 46.9262 21.1825 46.7755 21.2234 46.6129L21.2367 46.5397Z" fill="#000307"/>
<path d="M31.2581 46.3832C32.18 46.5497 32.7757 45.5745 33.4014 45.052C33.5113 45.0187 33.5978 45.1951 33.7043 45.3582C33.9005 45.6687 34.1668 45.929 34.4818 46.118C34.7969 46.307 35.1518 46.4195 35.5182 46.4465C35.901 46.4565 36.2756 46.3342 36.5788 46.1002C36.882 45.8662 37.0951 45.5347 37.1823 45.1618C37.3054 44.3397 36.6664 43.7806 36.2337 43.2214C35.9908 42.9186 35.7412 42.619 36.0008 42.2729L36.2337 41.8668C36.2803 41.7936 36.3036 41.7504 36.3669 41.6538L36.5433 41.3909L37.2256 40.3259C37.6682 39.607 38.1109 38.8881 38.5169 38.1459C39.3432 36.6853 40.0126 35.1412 40.5138 33.5396C40.5837 33.2734 40.6403 33.0105 40.6969 32.7475C40.7734 32.3881 40.414 32.3515 40.1378 32.2416L39.6152 32.0553C39.275 31.9306 38.927 31.8283 38.5735 31.7491C38.5194 31.7406 38.4639 31.7487 38.4146 31.7725C38.3652 31.7963 38.3243 31.8346 38.2972 31.8822C38.1907 32.0952 38.0942 32.3115 37.9977 32.5478C37.3687 33.9523 36.703 35.3469 35.9608 36.7081C35.5914 37.3937 35.1953 38.0627 34.786 38.705C34.5696 39.0379 34.3666 39.3707 34.1436 39.6802C34.0205 39.8566 33.9506 39.9631 33.8707 40.0829C33.7908 40.2027 33.7143 40.3226 33.6311 40.439C33.5905 40.4663 33.5444 40.4844 33.4961 40.4919C33.4478 40.4993 33.3984 40.4961 33.3515 40.4823C32.3098 40.1495 30.8287 40.3226 30.2163 40.9549C29.2345 41.9234 30.5225 42.8653 31.5476 43.0517C31.7473 43.0883 31.6375 43.1149 31.5476 43.1815C31.2657 43.3746 31.0211 43.617 30.8254 43.8971C30.6298 44.1803 30.4856 44.4958 30.3994 44.829C30.2529 45.4647 30.3994 46.1103 31.1815 46.3666L31.2581 46.3832Z" fill="#000307"/>
</g>
<defs>
<clipPath id="clip0_3_12588">
<rect width="47.6501" height="67.9822" fill="white" transform="translate(0.675049 0.0177612)"/>
</clipPath>
</defs>
</svg>
