<svg width="99" height="41" viewBox="0 0 99 41" fill="none" xmlns="http://www.w3.org/2000/svg">
<path d="M98.1633 26.3062C98.0782 26.1846 97.9666 26.084 97.8368 26.0119C97.7071 25.9398 97.5627 25.8982 97.4145 25.8902C97.1183 25.8403 96.7954 25.8403 96.5258 25.7737C96.4659 25.7238 96.5258 25.6006 96.5724 25.4675C96.7438 24.978 96.7139 24.4406 96.4892 23.9731C96.3988 23.7572 96.2265 23.586 96.01 23.4968C95.7936 23.4076 95.5506 23.4077 95.3343 23.4972C94.8651 23.7269 94.7153 24.3093 94.5089 24.7719C94.4024 25.0282 94.2926 25.2878 94.003 25.2312L93.6902 25.1979H93.6103H93.5704H93.4838C93.3607 25.1713 93.2376 25.148 93.1144 25.1147C92.6252 24.9949 92.1159 24.8718 91.6433 24.7187C91.1707 24.5656 90.6748 24.3759 90.1922 24.2094C89.7096 24.043 89.2337 23.8467 88.7644 23.637C87.8159 23.2409 86.894 22.785 85.9887 22.3057C85.0834 21.8264 84.2081 21.3072 83.3461 20.7548C83.1797 20.6649 83.0133 20.575 82.8435 20.4918C82.6139 20.3753 82.5107 20.6116 82.3809 20.7781L82.1313 21.1109C81.9743 21.3221 81.833 21.5446 81.7086 21.7765C81.6937 21.8152 81.6908 21.8575 81.7003 21.8979C81.7098 21.9383 81.7313 21.9748 81.7618 22.0028C81.9083 22.126 82.0581 22.2491 82.2112 22.3689C84.009 23.6791 85.9564 24.7707 88.0122 25.6206C89.0319 26.0495 90.0741 26.4228 91.1341 26.7389C91.66 26.9053 92.1958 27.0351 92.725 27.1782L92.9247 27.2215L93.0245 27.2448H93.0678L93.2375 27.2747L93.5704 27.3346C93.6031 27.3523 93.6317 27.3764 93.6547 27.4056C93.6776 27.4348 93.6942 27.4685 93.7035 27.5044C93.83 28.2865 94.6654 29.2051 95.4708 29.3382C96.7189 29.5313 96.5525 28.3564 96.183 27.6741C96.1131 27.5443 96.183 27.5943 96.2629 27.6142C96.5162 27.696 96.783 27.7276 97.0484 27.7074C97.3099 27.6862 97.5646 27.6126 97.7972 27.4911C97.9046 27.4463 98.0014 27.3793 98.0811 27.2945C98.1608 27.2096 98.2217 27.1089 98.2597 26.9989C98.2977 26.8889 98.3121 26.7721 98.3018 26.6562C98.2915 26.5402 98.2568 26.4278 98.1999 26.3262L98.1633 26.3062Z" fill="#000307"/>
<path d="M1.42285 8.10247C1.61256 8.73484 2.37805 8.76812 2.86397 9.05767C2.91056 9.12091 2.81737 9.22741 2.74082 9.34057C2.59436 9.55234 2.49206 9.79145 2.44002 10.0436C2.38798 10.2958 2.38728 10.5559 2.43795 10.8083C2.47416 11.0432 2.60124 11.2543 2.79177 11.3963C2.9823 11.5383 3.22101 11.5996 3.45639 11.5672C3.97559 11.4673 4.26182 10.9414 4.57467 10.5454C4.74108 10.3257 4.90749 10.1027 5.18041 10.2126L5.47995 10.3191L5.5565 10.3457L5.59311 10.3623L5.68963 10.4123L6.099 10.6219C6.65148 10.8982 7.18733 11.211 7.7265 11.5206C8.79819 12.1529 9.83992 12.8518 10.8517 13.5907C12.8578 15.0809 14.7491 16.7196 16.5097 18.4932C16.6561 18.6197 16.8026 18.7395 16.949 18.856C17.152 19.019 17.2985 18.806 17.4615 18.6696L17.7744 18.3867C17.9695 18.2161 18.152 18.0314 18.3202 17.8342C18.343 17.8002 18.3551 17.7603 18.3551 17.7194C18.3551 17.6785 18.343 17.6385 18.3202 17.6045C18.2037 17.4548 18.0839 17.305 17.9608 17.1586C16.1756 15.1796 14.1865 13.3947 12.0266 11.8334C10.9482 11.0546 9.83326 10.3257 8.69834 9.6501C8.12588 9.31728 7.5501 8.98445 6.96434 8.68491L6.748 8.56843L6.63817 8.51184L6.60156 8.49188L6.44513 8.42531L6.13561 8.29218C6.10806 8.26729 6.08588 8.23703 6.07043 8.20327C6.05498 8.1695 6.04658 8.13294 6.04575 8.09582C6.05956 7.65252 5.95374 7.21368 5.73939 6.8254C5.52505 6.43713 5.21009 6.11374 4.82762 5.88921C3.69602 5.3933 3.53959 6.55485 3.71266 7.3037C3.74927 7.44682 3.69602 7.38025 3.6228 7.34364C3.40443 7.19798 3.1592 7.09735 2.90146 7.04763C2.64372 6.99791 2.37865 7.00011 2.12177 7.05409C2.00769 7.06854 1.89787 7.10658 1.79928 7.16578C1.7007 7.22499 1.61552 7.30406 1.54915 7.39797C1.48279 7.49188 1.43669 7.59858 1.4138 7.71128C1.39091 7.82397 1.39172 7.94019 1.41619 8.05255L1.42285 8.10247Z" fill="#000307"/>
<path d="M4.36832 12.8885C4.36751 12.9052 4.36328 12.9217 4.35588 12.9368C4.34847 12.9519 4.33806 12.9653 4.32528 12.9762C4.31249 12.9871 4.29761 12.9953 4.28154 13.0002C4.26548 13.0052 4.24857 13.0068 4.23187 13.0049C3.68034 12.9616 3.14129 12.8184 2.64098 12.5823C1.9085 12.2202 1.25738 11.7129 0.727248 11.0912C0.704739 11.0661 0.693148 11.033 0.69502 10.9993C0.696893 10.9656 0.712078 10.934 0.737235 10.9115C0.762392 10.889 0.795458 10.8774 0.829163 10.8793C0.862868 10.8811 0.894448 10.8963 0.916957 10.9215C1.42611 11.5166 2.04975 12.0033 2.75081 12.3526C3.22275 12.5752 3.7315 12.7095 4.25184 12.7487C4.2857 12.752 4.31689 12.7686 4.33867 12.7947C4.36046 12.8209 4.37111 12.8545 4.36832 12.8885Z" fill="#000307"/>
<path d="M2.54793 13.7738C2.55137 13.7925 2.55137 13.8117 2.54793 13.8304C2.53228 13.8606 2.50536 13.8835 2.47298 13.8941C2.44061 13.9047 2.40537 13.9021 2.37486 13.8869C1.85087 13.6245 1.37402 13.277 0.963699 12.8585C0.940292 12.8338 0.927246 12.801 0.927246 12.767C0.927246 12.7329 0.940292 12.7002 0.963699 12.6755C0.975459 12.6636 0.989454 12.6542 1.00488 12.6477C1.0203 12.6413 1.03685 12.638 1.05356 12.638C1.07027 12.638 1.08682 12.6413 1.10224 12.6477C1.11767 12.6542 1.13166 12.6636 1.14342 12.6755C1.53121 13.0725 1.98081 13.4041 2.47471 13.6573C2.49686 13.6676 2.51555 13.684 2.52855 13.7047C2.54154 13.7254 2.54827 13.7494 2.54793 13.7738Z" fill="#000307"/>
<path d="M5.63964 4.64447V4.67776C5.63578 4.69388 5.62871 4.70905 5.61884 4.72237C5.60897 4.73569 5.59652 4.74688 5.58222 4.75527C5.56793 4.76367 5.55209 4.76908 5.53564 4.77121C5.5192 4.77333 5.5025 4.7721 5.48655 4.76761L4.21849 4.43479C4.18554 4.42616 4.1573 4.40493 4.13987 4.37566C4.12244 4.3464 4.11721 4.31146 4.1253 4.27837C4.12955 4.26212 4.13698 4.24688 4.14717 4.23353C4.15737 4.22019 4.17012 4.20901 4.18468 4.20065C4.19924 4.19228 4.21532 4.1869 4.23198 4.18482C4.24865 4.18273 4.26556 4.18399 4.28173 4.18851L5.54978 4.52133C5.57612 4.52929 5.59913 4.54562 5.61535 4.56784C5.63157 4.59006 5.6401 4.61697 5.63964 4.64447Z" fill="#000307"/>
<path d="M7.71648 4.06867C7.71544 4.09369 7.70737 4.11791 7.69318 4.13856C7.68409 4.15264 7.67228 4.16477 7.65846 4.17425C7.64463 4.18373 7.62906 4.19037 7.61264 4.19377C7.59623 4.19718 7.5793 4.19729 7.56285 4.19409C7.54639 4.1909 7.53073 4.18446 7.51679 4.17517C6.5516 3.53615 5.45995 2.8106 4.23183 2.71741C4.1977 2.71403 4.16619 2.69761 4.14387 2.67157C4.12154 2.64552 4.11014 2.61187 4.11202 2.57762C4.11539 2.54376 4.13194 2.51257 4.15808 2.49078C4.18423 2.46899 4.21788 2.45835 4.2518 2.46113C5.54648 2.56098 6.66809 3.3065 7.65657 3.96216C7.67519 3.9729 7.69058 3.98846 7.70112 4.0072C7.71166 4.02594 7.71697 4.04717 7.71648 4.06867Z" fill="#000307"/>
<path d="M16.5444 4.30176C16.5444 2.09772 18.3316 0.310547 20.5356 0.310547L81.4351 0.310547C83.6391 0.310547 85.4263 2.09772 85.4263 4.30176V36.1592C85.4263 38.3632 83.6391 40.1504 81.4351 40.1504L20.5356 40.1504C18.3316 40.1504 16.5444 38.3632 16.5444 36.1592L16.5444 4.30176Z" fill="#FFCD5F" stroke="black" stroke-width="0.3"/>
<path d="M16.6948 4.24493L16.6948 35.0709C16.6948 37.1609 18.3891 38.8551 20.479 38.8551L81.492 38.8551C83.5819 38.8551 85.2761 37.1609 85.2761 35.0709V4.24493C85.2761 2.15498 83.5819 0.460743 81.492 0.460743L20.479 0.460743C18.3891 0.460743 16.6948 2.15498 16.6948 4.24493Z" fill="#FFB30B"/>
<path d="M16.6948 5.6328L16.6948 35.1441C16.6948 37.1936 18.3563 38.8551 20.4058 38.8551L81.5652 38.8551C83.6147 38.8551 85.2761 37.1936 85.2761 35.1441V5.6328C85.2761 3.58329 83.6147 1.92183 81.5652 1.92183L20.4058 1.92183C18.3563 1.92183 16.6948 3.58329 16.6948 5.6328Z" fill="#FEC22C"/>
<path d="M78.9298 12.5703L47.3188 12.6994L47.3301 15.4607L78.9411 15.3316L78.9298 12.5703Z" fill="#E02B2B"/>
<path d="M78.9298 17.5703L47.3188 17.6994L47.3301 20.4607L78.9411 20.3316L78.9298 17.5703Z" fill="#E02B2B"/>
<path d="M78.9298 22.5703L47.3188 22.6994L47.3301 25.4607L78.9411 25.3316L78.9298 22.5703Z" fill="#E02B2B"/>
<path d="M29.6504 23.2727C29.7232 24.003 30.0781 24.676 30.6396 25.1486C31.2011 25.6211 31.9249 25.8559 32.6569 25.8029C33.4738 25.7542 34.2984 25.5673 34.9207 25.0039C35.406 24.5052 35.7781 23.9078 36.0116 23.2522C36.0761 23.133 36.093 22.9937 36.0588 22.8625C36.0245 22.7313 35.9418 22.618 35.8273 22.5454C35.7686 22.5103 35.7036 22.4872 35.6359 22.4775C35.5682 22.4679 35.4993 22.4719 35.4331 22.4893C35.367 22.5067 35.3051 22.5372 35.2509 22.579C35.1968 22.6207 35.1516 22.6729 35.1179 22.7324C34.9352 23.2446 34.6648 23.7212 34.3189 24.1409C33.909 24.5213 33.3747 24.7398 32.8156 24.7555C32.5606 24.7996 32.2994 24.7926 32.0471 24.735C31.7947 24.6775 31.5563 24.5704 31.3457 24.42C30.9852 24.1368 30.7469 23.7262 30.6799 23.2727C30.6754 23.1383 30.62 23.0106 30.5249 22.9155C30.4298 22.8204 30.3021 22.765 30.1677 22.7606C30.0319 22.7606 29.9016 22.8145 29.8055 22.9106C29.7095 23.0066 29.6555 23.1369 29.6555 23.2727H29.6504Z" fill="#1E222D"/>
<path d="M30.1677 15.521C30.1677 17.2111 28.6977 18.594 26.8846 18.594C25.0715 18.594 23.6016 17.2239 23.6016 15.521C23.6016 13.818 25.0715 12.4607 26.8846 12.4607C28.6977 12.4607 30.1677 13.8308 30.1677 15.521Z" fill="#FCF9F0"/>
<path d="M29.5786 16.0255C29.5786 16.532 29.4284 17.0271 29.147 17.4482C28.8656 17.8694 28.4656 18.1976 27.9977 18.3914C27.5297 18.5853 27.0148 18.636 26.5181 18.5372C26.0213 18.4384 25.565 18.1945 25.2069 17.8363C24.8487 17.4782 24.6048 17.0219 24.506 16.5251C24.4072 16.0283 24.4579 15.5134 24.6517 15.0455C24.8456 14.5775 25.1738 14.1776 25.5949 13.8962C26.0161 13.6148 26.5112 13.4646 27.0177 13.4646C27.6969 13.4646 28.3482 13.7344 28.8285 14.2147C29.3088 14.6949 29.5786 15.3463 29.5786 16.0255Z" fill="#1E222D"/>
<path d="M28.1035 15.0754C28.1163 15.3188 28.0559 15.5605 27.9299 15.7692C27.804 15.9779 27.6184 16.144 27.3971 16.2462C27.1758 16.3484 26.9289 16.3818 26.6884 16.3423C26.4479 16.3027 26.2248 16.192 26.0478 16.0243C25.8709 15.8567 25.7483 15.6398 25.6958 15.4018C25.6433 15.1637 25.6635 14.9155 25.7535 14.689C25.8436 14.4625 25.9995 14.2682 26.2011 14.1312C26.4027 13.9942 26.6408 13.9208 26.8845 13.9205C27.1993 13.9122 27.5044 14.0292 27.733 14.2457C27.9615 14.4623 28.0948 14.7607 28.1035 15.0754Z" fill="#FBFDFC"/>
<path d="M41.415 15.521C41.415 17.2111 39.945 18.594 38.1319 18.594C36.3188 18.594 34.8489 17.2239 34.8489 15.521C34.8489 13.818 36.3188 12.4607 38.1319 12.4607C39.945 12.4607 41.415 13.8308 41.415 15.521Z" fill="#FCF9F0"/>
<path d="M40.8234 16.0255C40.8234 16.532 40.6732 17.0271 40.3919 17.4482C40.1105 17.8694 39.7105 18.1976 39.2426 18.3914C38.7746 18.5853 38.2597 18.636 37.7629 18.5372C37.2662 18.4384 36.8099 18.1945 36.4517 17.8363C36.0936 17.4782 35.8497 17.0219 35.7509 16.5251C35.6521 16.0283 35.7028 15.5134 35.8966 15.0455C36.0904 14.5775 36.4187 14.1776 36.8398 13.8962C37.2609 13.6148 37.7561 13.4646 38.2626 13.4646C38.9417 13.4646 39.5931 13.7344 40.0734 14.2147C40.5536 14.6949 40.8234 15.3463 40.8234 16.0255Z" fill="#1E222D"/>
<path d="M39.3408 15.0754C39.3536 15.3189 39.2931 15.5606 39.1671 15.7694C39.041 15.9782 38.8553 16.1443 38.6338 16.2464C38.4124 16.3485 38.1654 16.3818 37.9248 16.342C37.6842 16.3023 37.461 16.1913 37.2842 16.0234C37.1074 15.8555 36.9849 15.6384 36.9328 15.4002C36.8806 15.1619 36.9011 14.9136 36.9915 14.6871C37.082 14.4607 37.2383 14.2665 37.4403 14.1299C37.6422 13.9932 37.8805 13.9202 38.1244 13.9204C38.4387 13.9128 38.7432 14.0301 38.9712 14.2466C39.1992 14.4631 39.3321 14.7611 39.3408 15.0754Z" fill="#FBFDFC"/>
<path d="M29.11 18.3661C29.11 19.0319 27.7783 19.5697 26.1393 19.5697C24.5004 19.5697 23.1687 19.0319 23.1687 18.3661C23.1687 17.7003 24.4978 17.1625 26.1393 17.1625C27.7809 17.1625 29.11 17.7028 29.11 18.3661Z" fill="#FFB30B"/>
<path d="M42.3189 18.4763C42.3189 19.1395 40.9898 19.6799 39.3483 19.6799C37.7068 19.6799 36.3777 19.1395 36.3777 18.4763C36.3777 17.813 37.7068 17.2726 39.3483 17.2726C40.9898 17.2726 42.3189 17.8002 42.3189 18.4763Z" fill="#FFB30B"/>
</svg>
