<svg width="53" height="67" viewBox="0 0 53 67" fill="none" xmlns="http://www.w3.org/2000/svg">
<g clip-path="url(#clip0_3_12685)">
<path d="M40.5571 9.70593H12.4473C8.4428 9.70593 5.19653 12.9522 5.19653 16.9567V59.7147C5.19653 63.7192 8.4428 66.9655 12.4473 66.9655H40.5571C44.5616 66.9655 47.8079 63.7192 47.8079 59.7147V16.9567C47.8079 12.9522 44.5616 9.70593 40.5571 9.70593Z" fill="#BAD1A6"/>
<path d="M40.7209 9.70593H14.1859C10.272 9.70593 7.09912 12.8788 7.09912 16.7927V59.8787C7.09912 63.7926 10.272 66.9655 14.1859 66.9655H40.7209C44.6349 66.9655 47.8077 63.7926 47.8077 59.8787V16.7927C47.8077 12.8788 44.6349 9.70593 40.7209 9.70593Z" fill="#80996B"/>
<path d="M39.0123 9.70593H14.0198C10.1976 9.70593 7.09912 12.8044 7.09912 16.6266V60.0448C7.09912 63.867 10.1976 66.9655 14.0198 66.9655H39.0123C42.8345 66.9655 45.933 63.867 45.933 60.0448V16.6266C45.933 12.8044 42.8345 9.70593 39.0123 9.70593Z" fill="#93BB75"/>
<path d="M47.8079 57.8422V40.4326H52.3943V53.2557C52.3943 54.4721 51.9111 55.6387 51.051 56.4988C50.1909 57.359 49.0243 57.8422 47.8079 57.8422Z" fill="#80996B"/>
<path d="M52.3943 40.4326H47.8079V33.9714H48.6708C49.6583 33.9714 50.6054 34.3637 51.3037 35.062C52.002 35.7603 52.3943 36.7074 52.3943 37.695V40.4326Z" fill="#1D776E"/>
<path d="M47.8079 57.8422V40.4326H50.7806V54.8694C50.7806 55.6578 50.4674 56.414 49.9099 56.9715C49.3524 57.529 48.5963 57.8422 47.8079 57.8422Z" fill="#93BB75"/>
<path d="M50.7806 40.4326H47.8079V33.9714C48.5963 33.9714 49.3524 34.2846 49.9099 34.8421C50.4674 35.3997 50.7806 36.1558 50.7806 36.9442V40.4326Z" fill="#2E897E"/>
<path d="M5.19653 57.8422V40.4326H0.60791V53.2557C0.60791 53.8582 0.726614 54.4548 0.95724 55.0114C1.18787 55.568 1.52589 56.0737 1.95202 56.4996C2.37814 56.9255 2.884 57.2633 3.4407 57.4937C3.99741 57.724 4.59404 57.8425 5.19653 57.8422Z" fill="#BAD1A6"/>
<path d="M0.60791 40.4326H5.19653V33.9714H4.3336C3.34586 33.9714 2.39854 34.3637 1.6999 35.0619C1.00126 35.7601 0.608482 36.7072 0.60791 37.695V40.4326Z" fill="#4A998E"/>
<path d="M5.19638 57.8422V40.4326H1.97119V54.617C1.97404 55.4715 2.31474 56.2902 2.91897 56.8944C3.52319 57.4986 4.34188 57.8393 5.19638 57.8422Z" fill="#93BB75"/>
<path d="M1.97119 40.4326H5.20717V33.9715H5.10362C4.69277 33.97 4.28569 34.0497 3.90571 34.206C3.52572 34.3622 3.18032 34.5919 2.88931 34.8819C2.59829 35.172 2.36739 35.5166 2.20984 35.896C2.05229 36.2754 1.97119 36.6822 1.97119 37.0931V40.4326Z" fill="#2E897E"/>
<path d="M39.2756 9.70814H34.3915C34.3915 9.70814 34.3181 3.86396 26.4094 3.93731C18.5007 4.01066 18.2655 9.70814 18.2655 9.70814H13.3813C13.3813 9.70814 15.1568 0.828613 26.3274 0.828613C37.498 0.828613 39.2756 9.70814 39.2756 9.70814Z" fill="#FFB30B"/>
<path d="M38.9931 9.70808H34.3915C34.3915 9.70808 34.3181 3.8639 26.4094 3.93725C18.5007 4.0106 18.2655 9.70808 18.2655 9.70808H13.6597C14.4816 7.42348 17.4134 1.7713 26.3274 1.7713C35.2415 1.7713 38.1733 7.42348 38.9931 9.70808Z" fill="#FEC22C"/>
<path d="M37.3276 62.4286H15.3229C13.5702 62.4286 11.8892 61.7325 10.6497 60.4933C9.41013 59.2542 8.71346 57.5735 8.71289 55.8207V46.0546H43.9354V55.8207C43.9354 57.5733 43.2392 59.254 42 60.4932C40.7608 61.7324 39.0801 62.4286 37.3276 62.4286Z" fill="#4A998E"/>
<path d="M37.416 62.4286H16.1923C15.3361 62.4286 14.4884 62.26 13.6974 61.9324C12.9064 61.6047 12.1877 61.1245 11.5823 60.5191C10.977 59.9137 10.4967 59.195 10.1691 58.4041C9.84148 57.6131 9.67285 56.7653 9.67285 55.9092V46.0546H43.9354V55.9092C43.9354 56.7653 43.7668 57.6131 43.4391 58.4041C43.1115 59.195 42.6313 59.9137 42.0259 60.5191C41.4205 61.1245 40.7018 61.6047 39.9108 61.9324C39.1199 62.26 38.2721 62.4286 37.416 62.4286Z" fill="#1D776E"/>
<path d="M36.5832 62.4286H16.1038C14.3982 62.4286 12.7625 61.7511 11.5564 60.545C10.3504 59.339 9.67285 57.7032 9.67285 55.9976V46.0546H43.0142V55.9976C43.0142 57.7032 42.3367 59.339 41.1306 60.545C39.9246 61.7511 38.2888 62.4286 36.5832 62.4286Z" fill="#2E897E"/>
<path d="M33.7764 56.2134H18.891C17.5567 56.2137 16.2355 55.9511 15.0027 55.4407C13.7699 54.9303 12.6498 54.1821 11.7062 53.2387C10.7626 52.2953 10.0141 51.1753 9.50348 49.9427C8.99282 48.71 8.72998 47.3888 8.72998 46.0546H43.9353C43.9353 47.3886 43.6725 48.7097 43.162 49.9422C42.6514 51.1747 41.9031 52.2946 40.9598 53.2379C40.0165 54.1813 38.8966 54.9296 37.6641 55.4401C36.4315 55.9506 35.1105 56.2134 33.7764 56.2134Z" fill="#1D776E"/>
<path d="M27.7101 53.4542C27.7106 53.8005 27.581 54.1344 27.3469 54.3897C27.1129 54.6449 26.7914 54.8029 26.4463 54.8322C26.1012 54.8615 25.7577 54.7601 25.4839 54.548C25.2101 54.3359 25.026 54.0286 24.9681 53.6872C24.9534 53.6104 24.9461 53.5324 24.9465 53.4542C24.9465 53.2729 24.9823 53.0933 25.0516 52.9258C25.121 52.7583 25.2227 52.6061 25.3509 52.4779C25.4792 52.3497 25.6314 52.248 25.7989 52.1786C25.9664 52.1092 26.1459 52.0735 26.3272 52.0735C26.542 52.0724 26.754 52.122 26.9459 52.2184C27.1379 52.3147 27.3043 52.4551 27.4318 52.6279C27.6138 52.8648 27.7117 53.1555 27.7101 53.4542Z" fill="#FFB30B"/>
<path d="M27.4534 52.8545C27.4529 53.1441 27.3614 53.4262 27.1918 53.6609C27.0222 53.8956 26.7831 54.0711 26.5083 54.1625C26.2335 54.2538 25.9369 54.2565 25.6605 54.17C25.3841 54.0836 25.1419 53.9124 24.9681 53.6807C24.9534 53.6039 24.9461 53.5259 24.9465 53.4477C24.9465 53.0815 25.092 52.7304 25.3509 52.4714C25.6099 52.2125 25.9611 52.067 26.3272 52.067C26.542 52.0659 26.754 52.1156 26.9459 52.2119C27.1379 52.3083 27.3043 52.4486 27.4318 52.6215C27.4467 52.6982 27.454 52.7763 27.4534 52.8545Z" fill="#FEC22C"/>
<path d="M40.5568 67H12.4448C10.4939 66.9977 8.6235 66.2217 7.24399 64.8422C5.86448 63.4627 5.08847 61.5923 5.08618 59.6414V16.8833C5.08847 14.9324 5.86448 13.062 7.24399 11.6825C8.6235 10.303 10.4939 9.527 12.4448 9.52472H40.5568C42.5075 9.527 44.3777 10.3031 45.7569 11.6827C47.136 13.0622 47.9116 14.9326 47.9133 16.8833V59.6414C47.9116 61.5921 47.136 63.4625 45.7569 64.8421C44.3777 66.2216 42.5075 66.9977 40.5568 67ZM12.4448 9.74045C10.5509 9.74216 8.73509 10.4953 7.39591 11.8344C6.05673 13.1736 5.30363 14.9894 5.30191 16.8833V59.6414C5.30363 61.5353 6.05673 63.3511 7.39591 64.6903C8.73509 66.0294 10.5509 66.7826 12.4448 66.7843H40.5568C42.4503 66.782 44.2656 66.0286 45.6043 64.6895C46.943 63.3504 47.6958 61.5349 47.6975 59.6414V16.8833C47.6958 14.9898 46.943 13.1743 45.6043 11.8352C44.2656 10.4961 42.4503 9.74274 40.5568 9.74045H12.4448Z" fill="#000307"/>
<path d="M47.8056 57.8767H47.6978V40.2514H52.4913V53.1802C52.4902 54.4236 51.9965 55.6159 51.1183 56.4961C50.2401 57.3763 49.049 57.8727 47.8056 57.8767ZM47.9135 40.4671V57.6588C49.0804 57.6268 50.1889 57.1411 51.0035 56.3048C51.818 55.4685 52.2743 54.3476 52.2756 53.1802V40.4671H47.9135Z" fill="#000307"/>
<path d="M52.4913 40.4671H47.6978V33.7794H48.6685C49.6849 33.7823 50.6585 34.1886 51.3754 34.9091C52.0922 35.6296 52.4936 36.6053 52.4913 37.6216V40.4671ZM47.9049 40.2514H52.2756V37.6216C52.2744 36.663 51.8931 35.744 51.2153 35.0662C50.5375 34.3884 49.6185 34.0071 48.6599 34.0059H47.9049V40.2514Z" fill="#000307"/>
<path d="M5.30219 57.8767H5.19432C3.94947 57.875 2.75611 57.3796 1.87607 56.4991C0.996018 55.6187 0.501141 54.4251 0.5 53.1802L0.5 40.2514H5.30219V57.8767ZM0.715732 40.4671V53.1802C0.717039 54.3491 1.17459 55.4712 1.99096 56.3077C2.80732 57.1442 3.91799 57.629 5.08646 57.6588V40.4671H0.715732Z" fill="#000307"/>
<path d="M5.30219 40.4671H0.5V37.6216C0.501142 36.6058 0.905173 35.632 1.62345 34.9137C2.34173 34.1954 3.3156 33.7914 4.3314 33.7902H5.30219V40.4671ZM0.715732 40.2514H5.08646V33.9952H4.3314C3.85583 33.9957 3.38504 34.09 2.94592 34.2726C2.5068 34.4552 2.10796 34.7225 1.77218 35.0592C1.43641 35.396 1.17029 35.7957 0.989015 36.2353C0.807744 36.675 0.714881 37.1461 0.715732 37.6216V40.2514Z" fill="#000307"/>
<path d="M39.4051 9.74044H34.2858V9.63473C34.2858 9.40174 34.1175 3.96961 26.5539 3.96961H26.4051C18.6819 4.04296 18.3755 9.57864 18.3734 9.63688V9.74044H13.2498L13.2756 9.611C13.2929 9.52255 15.1978 0.647339 26.3274 0.647339C37.457 0.647339 39.3619 9.52255 39.3792 9.611L39.4051 9.74044ZM34.4929 9.5247H39.1376C38.7051 7.95823 37.9423 6.5025 36.9004 5.25537C35.2328 3.25122 32.0508 0.863071 26.3274 0.863071C20.6041 0.863071 17.4199 3.25122 15.7566 5.25537C14.7148 6.5029 13.9513 7.95844 13.5173 9.5247H18.1641C18.2483 8.74376 19.068 3.82291 26.4008 3.75388C33.7335 3.68484 34.4303 8.72218 34.4929 9.5247Z" fill="#000307"/>
<path d="M37.3255 62.4631H15.3209C13.5416 62.4586 11.8366 61.749 10.5795 60.4898C9.32232 59.2306 8.61548 57.5245 8.61377 55.7452V45.8734H44.0434V55.7452C44.0411 57.5262 43.3326 59.2336 42.0733 60.493C40.8139 61.7523 39.1065 62.4608 37.3255 62.4631ZM8.8295 46.0891V55.7452C8.83064 57.469 9.51576 59.1219 10.7344 60.3409C11.9531 61.56 13.6057 62.2457 15.3295 62.2474H37.3341C39.0581 62.2457 40.711 61.5601 41.93 60.3411C43.149 59.122 43.8346 57.4692 43.8363 55.7452V46.0891H8.8295Z" fill="#000307"/>
<path d="M33.7745 56.2479H18.889C16.1672 56.2445 13.5578 55.1617 11.6331 53.2371C9.7085 51.3124 8.62574 48.7031 8.62231 45.9812V45.8734H44.0433V45.9812C44.0399 48.7034 42.9568 51.3131 41.0317 53.2378C39.1066 55.1625 36.4967 56.245 33.7745 56.2479ZM8.82942 46.0891C8.86062 48.7351 9.93298 51.2624 11.8142 53.1234C13.6955 54.9845 16.2341 56.0295 18.8804 56.0322H33.7659C36.4121 56.0295 38.9508 54.9845 40.832 53.1234C42.7132 51.2624 43.7856 48.7351 43.8168 46.0891H8.82942Z" fill="#000307"/>
<path d="M26.3274 54.8672C26.033 54.8672 25.7452 54.7799 25.5004 54.6164C25.2556 54.4528 25.0648 54.2203 24.9522 53.9483C24.8395 53.6763 24.81 53.377 24.8675 53.0883C24.9249 52.7995 25.0667 52.5343 25.2749 52.3261C25.483 52.1179 25.7483 51.9762 26.037 51.9187C26.3258 51.8613 26.6251 51.8908 26.8971 52.0034C27.1691 52.1161 27.4015 52.3069 27.5651 52.5517C27.7287 52.7965 27.816 53.0843 27.816 53.3787C27.8154 53.7733 27.6584 54.1516 27.3794 54.4306C27.1003 54.7097 26.722 54.8667 26.3274 54.8672ZM26.3274 52.1059C26.0757 52.1059 25.8296 52.1805 25.6203 52.3204C25.411 52.4602 25.2478 52.659 25.1515 52.8916C25.0552 53.1242 25.0299 53.3801 25.0791 53.627C25.1282 53.8739 25.2494 54.1007 25.4274 54.2787C25.6054 54.4567 25.8322 54.5779 26.0791 54.627C26.326 54.6762 26.5819 54.651 26.8145 54.5546C27.0471 54.4583 27.2459 54.2951 27.3857 54.0858C27.5256 53.8765 27.6002 53.6304 27.6002 53.3787C27.5997 53.0413 27.4654 52.7179 27.2268 52.4793C26.9882 52.2407 26.6648 52.1064 26.3274 52.1059Z" fill="#000307"/>
<path d="M20.6276 30.8498C20.6104 31.7127 19.508 32.375 18.164 32.3599C16.8199 32.3448 15.7434 31.62 15.7607 30.7678C15.778 29.9157 16.8782 29.2426 18.2244 29.2577C19.5705 29.2728 20.6427 29.9869 20.6276 30.8498Z" fill="#F17762"/>
<path d="M37.4247 31.1691C37.4096 32.032 36.305 32.6922 34.9632 32.6663C33.6213 32.6404 32.5427 31.9285 32.5578 31.0655C32.5729 30.2026 33.6774 29.5554 35.0171 29.577C36.3568 29.5986 37.4419 30.3148 37.4247 31.1691Z" fill="#F17762"/>
<path d="M23.7212 27.5081C23.6888 29.234 21.9953 30.6168 19.9609 30.5758C17.9266 30.5349 16.2935 29.1002 16.3194 27.3658C16.3453 25.6313 18.0452 24.2592 20.0818 24.298C22.1183 24.3369 23.7535 25.7758 23.7212 27.5081Z" fill="#FCF9F0"/>
<path d="M23.046 28.0151C23.018 29.4627 21.702 30.6039 20.1056 30.5802C18.5092 30.5564 17.2385 29.3505 17.2666 27.9029C17.2946 26.4554 18.6106 25.3142 20.207 25.3379C21.8034 25.3616 23.0741 26.5676 23.046 28.0151Z" fill="#1E222D"/>
<path d="M21.402 27.0054C21.3891 27.6526 20.7548 28.179 20.0062 28.1661C19.2577 28.1531 18.645 27.6073 18.6579 26.9537C18.6709 26.3 19.3051 25.7801 20.0515 25.7952C20.798 25.8103 21.4258 26.3518 21.402 27.0054Z" fill="#FBFDFC"/>
<path d="M22.0926 23.6875C21.568 23.1504 20.8766 22.8074 20.1316 22.7146C19.3561 22.6449 18.577 22.8007 17.888 23.1633C16.6907 23.7415 15.6832 24.8698 15.4588 26.2073C15.4223 26.357 15.4445 26.515 15.5207 26.649C15.5969 26.7829 15.7214 26.8827 15.8687 26.9278C16.0183 26.9676 16.1775 26.9469 16.312 26.8702C16.4464 26.7935 16.5452 26.667 16.5871 26.5179C16.6817 26.0306 16.8884 25.572 17.191 25.1785C17.4936 24.785 17.8836 24.4673 18.3302 24.2506C19.3053 23.7329 20.4573 23.6875 21.2685 24.516C21.7992 25.0553 22.6254 24.2269 22.0969 23.6875H22.0926Z" fill="#322D1A"/>
<path d="M29.8394 27.6268C29.8049 29.3526 31.4358 30.798 33.4788 30.8369C35.5218 30.8757 37.2066 29.5015 37.239 27.767C37.2714 26.0325 35.6426 24.5979 33.5996 24.5569C31.5566 24.5159 29.8696 25.888 29.8394 27.6268Z" fill="#FCF9F0"/>
<path d="M30.4865 28.1575C30.4585 29.6051 31.7313 30.8024 33.3256 30.8326C34.9198 30.8628 36.2379 29.7151 36.266 28.2697C36.294 26.8243 35.0234 25.6226 33.427 25.5924C31.8305 25.5622 30.5189 26.7099 30.4865 28.1575Z" fill="#1E222D"/>
<path d="M32.1735 27.2126C32.1606 27.8598 32.7646 28.4099 33.524 28.425C34.2834 28.4401 34.9047 27.9202 34.9176 27.2665C34.9306 26.6128 34.3265 26.0692 33.5693 26.0541C32.8121 26.039 32.1865 26.5589 32.1735 27.2126Z" fill="#FBFDFC"/>
<path d="M32.4283 24.7144C33.988 23.2409 36.7429 24.8632 36.9975 26.7768C37.0029 26.9305 37.0665 27.0764 37.1755 27.1849C37.2844 27.2935 37.4305 27.3566 37.5843 27.3614C37.869 27.3614 38.2099 27.0917 38.1689 26.7768C38.0711 26.0932 37.8127 25.4425 37.4148 24.8782C37.017 24.3138 36.491 23.8518 35.88 23.53C35.2151 23.1344 34.4506 22.9382 33.6774 22.9648C32.8969 23.0209 32.1602 23.3465 31.5934 23.886C31.0454 24.4037 31.8738 25.2321 32.4218 24.7144H32.4283Z" fill="#322D1A"/>
<path d="M24.1593 35.7577C24.375 35.6132 25.1711 36.7803 26.5064 36.7824C27.8871 36.7824 28.7069 35.5377 28.9226 35.6736C29.216 35.8634 28.3164 38.6377 26.4849 38.5967C24.7266 38.5579 23.8551 35.954 24.1593 35.7577Z" fill="#1E222D"/>
</g>
<defs>
<clipPath id="clip0_3_12685">
<rect width="52" height="66.3526" fill="white" transform="translate(0.5 0.647339)"/>
</clipPath>
</defs>
</svg>
