<svg width="67" height="75" viewBox="0 0 67 75" fill="none" xmlns="http://www.w3.org/2000/svg">
<path d="M41.8779 4.28461L42.1211 4.29047C44.6175 4.39444 46.6504 6.09061 46.6504 8.22308V70.6469C46.6504 72.8482 44.4841 74.5854 41.8779 74.5854H5.12207C2.51589 74.5854 0.349609 72.8482 0.349609 70.6469V8.22308C0.349609 6.02179 2.51589 4.28461 5.12207 4.28461H41.8779Z" fill="#518BB4" stroke="black" stroke-width="0.3"/>
<path d="M41.7288 4.435H6.23281C3.76768 4.435 1.76929 6.12616 1.76929 8.21232V70.4654C1.76929 72.5515 3.76768 74.2427 6.23281 74.2427H41.7288C44.194 74.2427 46.1924 72.5515 46.1924 70.4654V8.21232C46.1924 6.12616 44.194 4.435 41.7288 4.435Z" fill="#5CB0F6"/>
<g clip-path="url(#clip0_3_12729)">
<path d="M16.7178 17.8149C16.4479 17.8693 16.1732 18.0497 15.9545 18.3756L12.2224 24.7731L8.59433 25.4928C8.13072 25.5848 7.82788 26.0375 7.91985 26.5011L9.25516 33.2322C9.34713 33.6958 9.79985 33.9987 10.2635 33.9067L13.8924 33.1868L19.7519 37.6544C20.7602 38.3289 21.5161 37.7312 21.2886 36.5844L17.7362 18.6771C17.6042 18.0116 17.1679 17.7212 16.7174 17.8132L16.7178 17.8149ZM23.1517 18.2876C22.9789 18.3543 22.8324 18.4751 22.734 18.632C22.6356 18.7889 22.5906 18.9734 22.6058 19.158C22.6209 19.3425 22.6954 19.5172 22.8181 19.656C22.9408 19.7947 23.105 19.89 23.2864 19.9276C24.6631 20.3084 25.9064 21.0652 26.8769 22.1132C27.8475 23.1612 28.5067 24.4589 28.7808 25.8608C29.369 28.8258 28.1913 31.7057 25.9665 33.4422C25.8618 33.5036 25.7713 33.5866 25.701 33.6856C25.6308 33.7847 25.5823 33.8975 25.5589 34.0167C25.5355 34.1358 25.5377 34.2586 25.5653 34.3768C25.5929 34.4951 25.6452 34.6061 25.7189 34.7026C25.7927 34.7991 25.886 34.8789 25.9928 34.9366C26.0997 34.9943 26.2175 35.0287 26.3386 35.0375C26.4598 35.0463 26.5814 35.0292 26.6954 34.9875C26.8094 34.9458 26.9133 34.8803 27.0001 34.7955C29.7206 32.6703 31.1793 29.1348 30.4636 25.5269C29.7478 21.9191 27.0492 19.2083 23.7243 18.2824C23.5644 18.2306 23.3927 18.2269 23.2307 18.2719C23.2042 18.2759 23.1778 18.2811 23.1517 18.2876ZM21.8 21.9435C21.6215 21.9928 21.4637 22.0985 21.3502 22.2448C21.2367 22.3912 21.1736 22.5703 21.1704 22.7555C21.1672 22.9407 21.224 23.1219 21.3323 23.2721C21.4406 23.4223 21.5946 23.5335 21.7713 23.5889C23.2297 24.1382 24.2884 25.2566 24.5738 26.6953C24.8613 28.1442 24.3003 29.6013 23.1485 30.6676C23.0561 30.7418 22.9801 30.8343 22.9253 30.9394C22.8704 31.0444 22.8379 31.1597 22.8299 31.2779C22.8218 31.3961 22.8383 31.5147 22.8783 31.6263C22.9184 31.7378 22.9811 31.8398 23.0625 31.9259C23.144 32.0119 23.2424 32.0802 23.3515 32.1264C23.4606 32.1725 23.5781 32.1956 23.6966 32.1941C23.8151 32.1926 23.932 32.1665 24.0399 32.1176C24.1478 32.0686 24.2444 31.9979 24.3236 31.9098C25.8533 30.4957 26.6699 28.4448 26.2566 26.3615C25.8458 24.2908 24.3163 22.6949 22.3781 21.9661C22.2193 21.904 22.0455 21.8907 21.8791 21.9278C21.8525 21.9318 21.8261 21.937 21.8 21.9435Z" fill="#FEC22C"/>
</g>
<path d="M41.4135 46.5999L5.27417 46.7474L5.28351 49.0339L41.4228 48.8864L41.4135 46.5999Z" fill="#FEC22C"/>
<path d="M41.4135 51.3205L5.27417 51.4681L5.28351 53.7546L41.4228 53.607L41.4135 51.3205Z" fill="#FEC22C"/>
<path d="M41.4135 56.041L5.27417 56.1885L5.28351 58.475L41.4228 58.3275L41.4135 56.041Z" fill="#FEC22C"/>
<path d="M50.0813 7.65618C50.3544 8.14374 49.927 8.6481 49.7954 9.10953C49.8067 9.17631 49.9242 9.18389 50.0352 9.20568C50.9045 9.36163 51.6724 10.3616 50.8698 11.047C50.4792 11.2956 50.0016 11.1251 49.5771 11.0538C49.3469 11.0107 49.115 10.9645 49.0077 11.1961L48.8794 11.4273L48.8479 11.4852C48.8258 11.5255 48.8074 11.5677 48.7929 11.6113L48.5908 12.1176C48.3185 12.7963 48.0556 13.4802 47.7944 14.1672C47.3919 15.2263 46.9989 16.2932 46.6152 17.368L46.3278 18.1728C46.2342 18.4426 46.1351 18.7135 46.0536 18.9679C45.8667 19.4248 45.8246 19.9281 45.9328 20.4097C46.1088 20.9147 46.3409 21.3984 46.6248 21.8516C46.897 22.3522 47.1724 22.851 47.446 23.3466C47.9934 24.3433 48.5318 25.3376 49.0611 26.3294C49.1245 26.4793 49.1855 26.6284 49.2433 26.7794C49.3207 26.986 49.1112 27.0441 48.9584 27.1386L48.6442 27.32C48.4549 27.4302 48.2584 27.5275 48.0561 27.6113C48.0237 27.6222 47.9887 27.6232 47.9557 27.6144C47.9226 27.6055 47.8929 27.5871 47.8702 27.5615C47.7828 27.4318 47.6954 27.3022 47.6111 27.1707C47.0372 26.1934 46.4675 25.2103 45.9021 24.2211L45.0596 22.7363C44.9212 22.4894 44.7802 22.2524 44.6223 21.9497C44.5458 21.7991 44.4657 21.6421 44.3915 21.4629C44.3544 21.3733 44.3205 21.2818 44.2848 21.1873C44.249 21.0927 44.2161 20.9776 44.1886 20.872C44.0731 20.444 44.0368 19.9986 44.0814 19.5576C44.1228 19.1795 44.204 18.8069 44.3236 18.4458C44.4279 18.1258 44.5231 17.8698 44.6198 17.5982L44.9079 16.7909C45.2969 15.7158 45.6928 14.6452 46.0954 13.5791C46.3779 12.842 46.659 12.1072 46.9385 11.3746L47.0464 11.1007C47.0697 11.014 47.1279 10.8861 47.1283 10.8942L47.1897 10.7646L47.3305 10.4969C47.3339 10.4663 47.3307 10.4354 47.3211 10.4063C47.3115 10.3771 47.2957 10.3504 47.2748 10.3279C46.784 9.86964 46.5058 8.91586 46.7485 8.32747C47.1124 7.41564 47.9011 7.99094 48.2478 8.54072C48.3151 8.64641 48.307 8.57782 48.3274 8.51157C48.4819 7.68707 49.4829 6.82645 50.0701 7.61865L50.0813 7.65618Z" fill="#000307"/>
<path d="M54.5022 8.22875L64.2544 11.9689L63.8483 13.0278L54.0962 9.28757L54.5022 8.22875Z" fill="#C6C6C6"/>
<path d="M54.9063 7.17138L64.6584 10.9116L64.2524 11.9704L54.5002 8.2302L54.9063 7.17138Z" fill="#C6C6C6"/>
<path d="M55.313 6.11486L65.0652 9.85504L64.6591 10.9139L54.9069 7.17368L55.313 6.11486Z" fill="#C6C6C6"/>
<path d="M55.2125 8.50082L64.2532 11.9681L63.8471 13.027L54.8064 9.55964L55.2125 8.50082Z" fill="#878787"/>
<path d="M55.619 7.44418L64.6597 10.9115L64.2536 11.9703L55.2129 8.503L55.619 7.44418Z" fill="#878787"/>
<path d="M56.0233 6.38693L65.064 9.85425L64.6579 10.9131L55.6172 7.44575L56.0233 6.38693Z" fill="#878787"/>
<path d="M55.2143 8.50181L63.4692 11.6678L63.0632 12.7266L54.8082 9.56063L55.2143 8.50181Z" fill="#A1A5A6"/>
<path d="M55.6183 7.4445L63.8733 10.6105L63.4672 11.6693L55.2122 8.50332L55.6183 7.4445Z" fill="#A1A5A6"/>
<path d="M56.0256 6.38542L64.2805 9.55139L63.8744 10.6102L55.6195 7.44424L56.0256 6.38542Z" fill="#A1A5A6"/>
<path d="M64.4466 5.25613L58.8506 3.10296C58.6284 3.01765 58.3916 2.97697 58.1537 2.98324C57.9157 2.98952 57.6814 3.04262 57.464 3.13952C57.2466 3.23642 57.0504 3.37522 56.8867 3.54798C56.723 3.72074 56.5949 3.92407 56.5098 4.14635L55.698 6.26358L64.6851 9.7081L65.4969 7.59087C65.6669 7.14196 65.6518 6.64392 65.4549 6.20615C65.2579 5.76838 64.8953 5.42668 64.4466 5.25613Z" fill="#F29083"/>
<path d="M64.5059 5.27203L59.3928 3.30936C58.959 3.1433 58.477 3.15626 58.0528 3.34538C57.6285 3.53451 57.2967 3.88433 57.1303 4.31797L56.2847 6.48194L64.6849 9.70806L65.5305 7.5441C65.6138 7.32776 65.6533 7.09704 65.6468 6.86531C65.6403 6.63358 65.5879 6.40545 65.4926 6.19412C65.3973 5.9828 65.261 5.79248 65.0916 5.6342C64.9222 5.47592 64.7231 5.35282 64.5059 5.27203Z" fill="#A5817C"/>
<path d="M63.868 5.02666L59.322 3.27707C58.907 3.11829 58.4459 3.13088 58.0402 3.31206C57.6344 3.49324 57.3173 3.82817 57.1585 4.24317L56.2917 6.48643L63.9623 9.43201L64.8284 7.19123C64.9879 6.7768 64.9763 6.31604 64.7962 5.91017C64.6161 5.5043 64.2822 5.18652 63.868 5.02666Z" fill="#F17762"/>
<path d="M37.7328 56.6261L55.6536 9.88806L54.0953 9.28983L37.1732 53.4215L37.0823 56.3774L37.7328 56.6261Z" fill="#FFB30B"/>
<path d="M58.1939 10.8568L59.751 11.454L41.8255 58.193L40.2684 57.5958L58.1939 10.8568Z" fill="#FEB917"/>
<path d="M46.6902 57.7731L63.8479 13.0299L62.2897 12.4317L44.3682 59.1722L45.3706 59.5551L46.6902 57.7731Z" fill="#E3A200"/>
<path d="M55.6529 9.88222L58.1921 10.8561L40.2666 57.5951L37.7274 56.6212L55.6529 9.88222Z" fill="#FEC22C"/>
<path d="M59.7503 11.4538L62.2896 12.4277L44.3641 59.1667L41.8248 58.1928L59.7503 11.4538Z" fill="#FEC22C"/>
<path d="M40.1129 64.7227C40.3128 64.8799 40.4817 65.0729 40.6111 65.2918C40.6877 65.4383 40.7469 65.5933 40.7875 65.7535L37.416 70.3057C37.3625 70.3775 37.2875 70.4303 37.2019 70.4566C37.1164 70.4828 37.0247 70.481 36.9401 70.4516C36.8556 70.4221 36.7827 70.3665 36.732 70.2927C36.6813 70.219 36.6554 70.131 36.6581 70.0415L36.8443 64.0937C37.3995 63.9271 37.9867 63.8972 38.5559 64.0068C39.125 64.1163 39.6592 64.3619 40.1129 64.7227Z" fill="#FEB917"/>
<path d="M46.7941 57.6335L46.792 57.5028L46.7872 56.5293C46.7872 56.5293 45.7364 57.6156 44.8907 57.798C44.7336 57.8382 44.5683 57.8317 44.4149 57.7794C43.5604 57.4495 44.4111 55.5339 43.8609 55.1288C43.8514 55.1247 43.8414 55.1221 43.8312 55.1208C43.6593 55.019 43.3498 55.0636 42.9844 55.1781C42.3269 55.3817 41.4896 55.8001 40.9229 55.9325C40.7698 55.9801 40.6068 55.9868 40.4502 55.9519C39.7855 55.7365 39.4464 53.4437 39.4464 53.4437C39.2323 53.7237 38.9757 53.9686 38.6861 54.1696C38.6283 54.2053 38.5676 54.2361 38.5047 54.2617C38.0962 54.4179 37.386 53.5396 37.2222 53.3283L37.188 53.2873L37.1812 53.4316L37.0878 56.3868L36.8296 64.0896C37.5957 63.8635 38.4151 63.8964 39.1606 64.1831C39.4991 64.3112 39.8145 64.4935 40.0944 64.7229C40.296 64.8785 40.4661 65.071 40.5957 65.2902C40.6723 65.4367 40.7315 65.5917 40.7722 65.7519L45.3579 59.5435L46.6748 57.7715L46.7941 57.6335Z" fill="#FBBB98"/>
<path d="M46.7941 57.6336L46.792 57.5028L46.7872 56.5294C46.7872 56.5294 45.7364 57.6157 44.8907 57.7981C44.7336 57.8383 44.5683 57.8318 44.4149 57.7795C43.5604 57.4496 44.4111 55.534 43.8609 55.1289C43.8514 55.1248 43.8414 55.1222 43.8312 55.1209C43.6569 56.0933 43.4007 57.0491 43.0654 57.9783C42.2784 60.1236 41.0899 62.0993 39.5635 63.7998C39.4531 63.9243 39.316 64.0496 39.1712 64.1834C39.5097 64.3115 39.825 64.4938 40.1049 64.7232C40.3066 64.8788 40.4767 65.0713 40.6063 65.2905C40.6829 65.437 40.7421 65.5919 40.7827 65.7522L45.3684 59.5438L46.6854 57.7718L46.7941 57.6336Z" fill="#FCA072"/>
<path d="M37.0512 53.272C37.0528 53.2467 37.0616 53.2224 37.0765 53.202C37.0914 53.1815 37.1118 53.1657 37.1353 53.1564L53.9772 9.2449L54.3834 8.18505L54.789 7.12767L55.1946 6.07029C55.2005 6.0544 55.2095 6.03985 55.2211 6.02746C55.2326 6.01508 55.2466 6.00511 55.262 5.99814C55.2775 5.99116 55.2941 5.98732 55.3111 5.98684C55.328 5.98635 55.3449 5.98923 55.3607 5.9953L55.6254 6.0981L56.3891 4.10079C56.4797 3.86161 56.6167 3.64266 56.7921 3.45648C56.9675 3.2703 57.1779 3.12055 57.4112 3.0158C57.6446 2.91105 57.8963 2.85337 58.152 2.84605C58.4077 2.83874 58.6623 2.88193 58.9013 2.97316L64.4941 5.12815C64.9743 5.31375 65.3614 5.68195 65.5709 6.15222C65.7803 6.62249 65.795 7.15657 65.6118 7.63766L64.8463 9.63182L65.1109 9.73462C65.1427 9.74695 65.1686 9.77099 65.1832 9.80181C65.1963 9.83335 65.1972 9.86861 65.1859 9.90081L64.7803 10.9582L64.3741 12.018L63.9685 13.0754L46.9247 57.5225L46.9254 57.6289C46.927 57.6569 46.9195 57.6847 46.9041 57.7082L46.799 57.8527L40.8865 65.8304L37.5156 70.3802C37.4506 70.4699 37.3595 70.5374 37.2548 70.5735C37.1501 70.6096 37.0368 70.6125 36.9303 70.5819L36.8882 70.5706C36.7774 70.5334 36.6817 70.4612 36.6155 70.3649C36.5493 70.2686 36.5163 70.1534 36.5213 70.0367L36.7093 64.092L37.0319 53.4235L37.0512 53.272ZM37.3589 53.2933L37.4327 53.3848L37.5071 53.4738L37.608 53.5832L37.6758 53.6572C37.7088 53.6926 37.7425 53.7255 37.7768 53.756L37.8356 53.8142L37.9393 53.9031L37.989 53.9456L38.0892 54.0176L38.1298 54.0445L38.2254 54.094L38.2577 54.1026C38.2855 54.114 38.3146 54.1218 38.3444 54.1259L38.3642 54.1312C38.3932 54.1357 38.4228 54.1337 38.4508 54.1252C38.5076 54.1007 38.5624 54.0718 38.6147 54.039C38.8354 53.8909 39.0343 53.7126 39.2055 53.5093C39.2868 53.4143 39.3365 53.3479 39.3396 53.3461C39.3545 53.326 39.375 53.3108 39.3985 53.3025C39.4221 53.2941 39.4475 53.2929 39.4717 53.2991C39.4962 53.3057 39.5183 53.3192 39.5353 53.3379C39.5524 53.3566 39.5639 53.3797 39.5683 53.4047C39.5748 53.4596 39.5838 53.5151 39.5953 53.5713C39.7389 54.4332 40.0918 55.6832 40.4855 55.81C40.619 55.8383 40.7577 55.8305 40.8873 55.7875C41.2699 55.6828 41.6444 55.5506 42.008 55.392C42.3294 55.263 42.6603 55.1285 42.9524 55.0395C43.4504 54.8861 43.7555 54.8775 43.9411 55.0176C44.2454 55.2399 44.2074 55.7583 44.1695 56.3059C44.126 56.8946 44.0828 57.5019 44.468 57.6503C44.5116 57.6685 44.5574 57.6808 44.6043 57.6868L44.6315 57.6941C44.6827 57.6968 44.734 57.6945 44.7848 57.6874L44.7996 57.6913L62.1235 12.5066L54.1752 9.45736L37.3589 53.2933ZM54.987 7.34012L54.672 8.1588L64.1792 11.8038L64.4935 10.9876L54.987 7.34012ZM54.5808 8.39998L54.2664 9.21618L63.7729 12.8636L64.088 12.045L54.5808 8.39998ZM65.3713 7.54398C65.4512 7.33767 65.4896 7.11759 65.4841 6.89641C65.4786 6.67522 65.4295 6.4573 65.3395 6.25518C65.2495 6.05306 65.1204 5.87074 64.9597 5.71871C64.7989 5.56668 64.6097 5.44794 64.4029 5.36932L58.8076 3.21368C58.3907 3.05507 57.928 3.06789 57.5205 3.24934C57.1131 3.43079 56.794 3.76612 56.6329 4.18208L55.8667 6.17872L64.6056 9.54872L65.3713 7.54398ZM64.6531 9.8271L55.671 6.38391L55.4106 6.28492L55.0956 7.10359L64.5847 10.7464L64.8923 9.92573L64.6531 9.8271ZM62.371 12.5941L45.1086 57.5989L45.1468 57.5852L45.2077 57.5563L45.2986 57.5143L45.357 57.4848L45.4506 57.4329L45.5072 57.4002L45.6028 57.3408L45.6544 57.3068C45.6916 57.2851 45.7273 57.261 45.7614 57.2346L45.7998 57.2103L45.9391 57.1069L45.9437 57.0895L46.0579 57.0006L46.102 56.9646L46.1809 56.8981C46.1856 56.8808 46.215 56.8701 46.2296 56.8554L46.2946 56.8011L46.3432 56.7584L46.3964 56.7088C46.4119 56.6974 46.4261 56.6843 46.4387 56.6697C46.4548 56.6561 46.4702 56.6416 46.4849 56.6263C46.4984 56.6155 46.5113 56.6039 46.5234 56.5915L46.5595 56.556L46.5911 56.5273L46.6164 56.5022L46.6417 56.4771L46.6451 56.4647L46.678 56.431C46.6944 56.4143 46.715 56.4024 46.7377 56.3966L46.765 56.4039C46.7769 56.4055 46.7885 56.4087 46.7997 56.4132C46.8238 56.422 46.8447 56.438 46.8595 56.4591C46.8743 56.4801 46.8822 56.5052 46.8823 56.531L46.8836 56.8235L63.6462 13.1086L62.371 12.5941ZM36.7857 70.0411C36.782 70.1025 36.7986 70.1634 36.8329 70.2143C36.8673 70.2653 36.9175 70.3035 36.9757 70.3231C37.0335 70.3464 37.0974 70.35 37.1575 70.3335C37.2176 70.317 37.2706 70.2812 37.3084 70.2317L40.6385 65.7347L40.6102 65.6421L40.5842 65.5608C40.5593 65.4908 40.5286 65.4231 40.4924 65.3582C40.3713 65.153 40.2123 64.9725 40.024 64.8263C39.9187 64.7416 39.8085 64.6632 39.6938 64.5917C39.655 64.568 39.6148 64.5493 39.5729 64.5274C39.4946 64.4826 39.4163 64.4377 39.341 64.4015C39.2657 64.3654 39.2369 64.3736 39.1902 64.3399C39.1435 64.3061 39.0394 64.2782 38.9614 64.252C38.8834 64.2258 38.8474 64.2214 38.7879 64.2055C38.7285 64.1896 38.6392 64.1657 38.5649 64.1457C38.4906 64.1258 38.4426 64.1262 38.3812 64.1177C38.3197 64.1092 38.231 64.0934 38.1558 64.0865L37.9661 64.0809L37.7439 64.0771L37.5532 64.095C37.4796 64.1019 37.4043 64.1056 37.3319 64.1181C37.2595 64.1305 37.2057 64.1427 37.1432 64.1578C37.0808 64.173 37.0284 64.1802 36.9733 64.1973L36.7857 70.0411ZM36.9793 63.9173C37.0249 63.9057 37.0742 63.9003 37.1247 63.8899C37.1753 63.8796 37.2572 63.8617 37.3233 63.8528C37.3894 63.844 37.4798 63.8337 37.559 63.8257C37.6382 63.8177 37.6948 63.8143 37.7615 63.8135L38.0004 63.8138C38.0624 63.8304 38.1323 63.8173 38.1994 63.8247C38.2665 63.832 38.359 63.8435 38.441 63.8549L38.6322 63.8849L39.051 63.9971C39.1352 64.0197 39.2148 64.0596 39.2915 64.0908C39.3681 64.1219 39.4005 64.12 39.4491 64.1569C39.5383 64.1985 39.6252 64.2448 39.7094 64.2957L39.8321 64.3632C39.9548 64.4413 40.073 64.5262 40.1863 64.6175C40.4001 64.7834 40.5804 64.9886 40.7175 65.222C40.7608 65.3004 40.7975 65.3822 40.8273 65.4666L46.5767 57.7108L46.6679 57.4696L46.6658 56.8235C46.309 57.1636 45.5685 57.7859 44.9246 57.9188C44.8807 57.9297 44.8361 57.9373 44.791 57.9414L44.7393 57.9461L44.6615 57.9492L44.6045 57.9339L44.54 57.9166L44.4607 57.8954C44.4345 57.8909 44.4088 57.884 44.3839 57.8748C43.8224 57.6605 43.8766 56.9234 43.923 56.2744C43.9543 55.8206 43.9878 55.3488 43.7966 55.2099C43.6884 55.1278 43.4329 55.1496 43.0387 55.2724C42.7497 55.3597 42.4276 55.4911 42.1118 55.619C41.736 55.7822 41.3489 55.9181 40.9536 56.0258C40.7798 56.0801 40.5945 56.0864 40.4174 56.0441C39.8232 55.853 39.493 54.3594 39.3745 53.7114C39.1959 53.9172 38.9902 54.098 38.763 54.2487C38.6974 54.2891 38.6285 54.3239 38.5571 54.3529C38.5143 54.3683 38.4691 54.376 38.4236 54.3755L38.4013 54.3696C38.3547 54.3679 38.3084 54.3609 38.2635 54.3486L38.2412 54.3426C38.133 54.3056 38.0307 54.2532 37.9376 54.1869L37.9178 54.1815C37.8686 54.1471 37.8207 54.1077 37.7703 54.0676L37.7513 54.0493L37.6036 53.9167L37.4677 53.7794L37.4469 53.7579L37.3266 53.622L37.3118 53.618L36.9793 63.9173Z" fill="#1D1D1B"/>
<path d="M49.3078 43.4166C49.3887 42.8672 50.0227 42.7317 50.401 42.4399C50.4325 42.382 50.3441 42.3052 50.2641 42.2173C50.1165 42.0569 50.0031 41.8681 49.9308 41.6624C49.8585 41.4567 49.8289 41.2384 49.8437 41.0209C49.8501 40.8175 49.9349 40.6245 50.0805 40.4823C50.2261 40.34 50.421 40.2597 50.6245 40.258C51.0765 40.2862 51.3726 40.6976 51.6782 40.9946C51.8434 41.1611 52.008 41.33 52.223 41.2017L52.4652 41.0807L52.5243 41.0487L52.5526 41.0324L52.6533 40.9638L53.0802 40.6691C53.6458 40.2735 54.2011 39.8566 54.7411 39.4276C55.281 38.9985 55.8263 38.5497 56.3531 38.0906C56.619 37.8617 56.8781 37.6283 57.1379 37.3925L57.4866 37.0822C57.5998 36.9771 57.7092 36.8762 57.8055 36.7745C57.9065 36.6686 57.981 36.5401 58.0228 36.3998C58.0556 36.2588 58.0595 36.1126 58.0344 35.97C58.0144 35.8265 57.9819 35.6903 57.9558 35.5398L57.86 35.0547C57.7249 34.3597 57.5949 33.6555 57.4564 32.9729C57.1897 31.5893 56.9305 30.2076 56.6873 28.8356C56.6726 28.6723 56.6629 28.5103 56.6557 28.349C56.6401 28.1297 56.8584 28.1377 57.0346 28.0947L57.3856 28.024C57.5994 27.9784 57.8162 27.9477 58.0344 27.9323C58.0688 27.9328 58.1023 27.944 58.1301 27.9643C58.158 27.9846 58.1789 28.013 58.1899 28.0457C58.2353 28.1933 58.2796 28.3354 58.3161 28.4965C58.6283 29.8888 58.9276 31.2892 59.2142 32.6976L59.6423 34.8072L59.784 35.5172C59.8386 35.7863 59.8649 36.0604 59.8623 36.335C59.862 36.6049 59.811 36.8724 59.7121 37.1235C59.6097 37.3726 59.468 37.6037 59.2923 37.8078C59.1207 38.0036 58.9372 38.1886 58.7427 38.3618L58.4669 38.6279C58.4163 38.678 58.3891 38.7 58.3537 38.733L58.2495 38.8246C57.9783 39.0733 57.701 39.3151 57.4212 39.5562C56.8621 40.0367 56.2941 40.5043 55.7172 40.9588C55.1395 41.4096 54.5496 41.8465 53.9556 42.269L53.7302 42.4264L53.6212 42.5061L53.5897 42.5242L53.469 42.5981L53.2232 42.7421C53.2036 42.7661 53.1893 42.7939 53.1813 42.8238C53.1733 42.8538 53.1717 42.885 53.1767 42.9156C53.3212 43.5759 52.9739 44.5346 52.414 44.8893C51.5404 45.4334 51.2621 44.4796 51.321 43.834C51.333 43.7097 51.2953 43.7713 51.2417 43.8127C50.9064 44.1067 50.4693 44.2575 50.0241 44.2328C49.9255 44.2352 49.8274 44.2169 49.7364 44.1789C49.6453 44.1409 49.5633 44.0842 49.4955 44.0125C49.4278 43.9407 49.376 43.8555 49.3434 43.7624C49.3108 43.6693 49.2981 43.5703 49.3063 43.472L49.3078 43.4166Z" fill="#000307"/>
<path d="M56.8752 23.3582C56.712 23.6996 57.0155 24.1927 57.5539 24.4432C58.0924 24.6938 58.6592 24.6306 58.8224 24.2891C58.9856 23.9477 58.6821 23.4547 58.143 23.2066C57.6039 22.9585 57.0377 23.0193 56.8752 23.3582Z" fill="#F17762"/>
<path d="M50.158 20.1556C49.9948 20.497 50.2958 20.9894 50.8349 21.2375C51.374 21.4856 51.9401 21.4248 52.1034 21.0834C52.2666 20.742 51.9656 20.2496 51.4264 20.0015C50.8873 19.7534 50.3212 19.8142 50.158 20.1556Z" fill="#F17762"/>
<path d="M56.3122 21.4251C55.9806 22.1172 56.3747 22.9958 57.1946 23.3855C58.0145 23.7752 58.9409 23.5295 59.2732 22.835C59.6054 22.1404 59.2082 21.2637 58.3908 20.8746C57.5733 20.4855 56.6419 20.7299 56.3122 21.4251Z" fill="#FCF9F0"/>
<path d="M56.4802 21.7597C56.3471 21.9816 56.2842 22.2386 56.2998 22.497C56.3155 22.7553 56.4088 23.0028 56.5677 23.2071C56.7266 23.4114 56.9436 23.5629 57.1901 23.6416C57.4366 23.7203 57.7012 23.7226 57.9491 23.6482C58.1969 23.5739 58.4165 23.4262 58.579 23.2248C58.7414 23.0233 58.8391 22.7774 58.8593 22.5194C58.8794 22.2614 58.8211 22.0033 58.6919 21.7791C58.5627 21.5549 58.3687 21.375 58.1353 21.263C57.8497 21.1106 57.5155 21.0773 57.2054 21.1703C56.8954 21.2634 56.6347 21.4752 56.4802 21.7597Z" fill="#1E222D"/>
<path d="M57.3335 21.6776C57.2632 21.7818 57.2265 21.9051 57.2283 22.0308C57.2301 22.1566 57.2704 22.2787 57.3437 22.3809C57.4171 22.483 57.5199 22.5603 57.6384 22.6023C57.757 22.6443 57.8855 22.6489 58.0068 22.6157C58.1281 22.5824 58.2363 22.5128 58.3168 22.4163C58.3974 22.3197 58.4464 22.2008 58.4574 22.0755C58.4684 21.9503 58.4407 21.8246 58.3782 21.7156C58.3156 21.6065 58.2212 21.5191 58.1075 21.4653C57.9765 21.3921 57.8218 21.3732 57.677 21.4129C57.5322 21.4526 57.4088 21.5477 57.3335 21.6776Z" fill="#FBFDFC"/>
<path d="M57.6955 20.1092C59.1059 19.6239 60.3608 21.3043 59.9513 22.5944C59.9249 22.693 59.8604 22.777 59.772 22.828C59.6836 22.8791 59.5785 22.8929 59.4799 22.8665C59.3814 22.84 59.2973 22.7755 59.2463 22.6871C59.1952 22.5988 59.1814 22.4937 59.2078 22.3951C59.2238 22.3356 59.2397 22.2762 59.2557 22.2167C59.2528 22.277 59.2716 22.1572 59.2557 22.2167C59.2585 22.1564 59.2729 22.1523 59.2611 22.1172C59.2622 22.0609 59.2604 22.0046 59.2558 21.9485C59.2508 21.878 59.2647 21.9747 59.2598 21.9336L59.2419 21.8518C59.2297 21.7904 59.2131 21.73 59.1921 21.6711L59.1629 21.5915C59.1909 21.6654 59.1515 21.5646 59.1479 21.5583C59.0947 21.4495 59.0341 21.3445 58.9665 21.244C58.9319 21.1949 59.0208 21.3091 58.9492 21.2394L58.8949 21.1744C58.849 21.1244 58.8006 21.0769 58.7498 21.0319C58.7498 21.0319 58.6718 20.9659 58.7026 20.99C58.7333 21.0142 58.6576 20.9594 58.6509 20.9549C58.6193 20.9334 58.5864 20.9139 58.5523 20.8966C58.5523 20.8966 58.4553 20.8521 58.5011 20.8696C58.5468 20.8872 58.454 20.857 58.4441 20.8544L58.34 20.8265L58.2681 20.8072C58.3474 20.8284 58.2359 20.7986 58.2285 20.7966L58.1382 20.7963C58.1159 20.7903 58.0566 20.8036 58.1135 20.7897C58.0405 20.8005 57.9689 20.8186 57.8997 20.8439C57.8035 20.8665 57.7023 20.8514 57.6169 20.8019C57.5314 20.7523 57.4681 20.672 57.4399 20.5773C57.4186 20.4812 57.4342 20.3805 57.4836 20.2954C57.533 20.2102 57.6126 20.1467 57.7066 20.1175L57.6955 20.1092Z" fill="#322D1A"/>
<path d="M53.8655 20.2567C53.5364 20.9495 52.6043 21.1964 51.7869 20.8073C50.9694 20.4182 50.5754 19.5396 50.9076 18.8451C51.2398 18.1506 52.1688 17.9055 52.9862 18.2945C53.8036 18.6836 54.197 19.5647 53.8655 20.2567Z" fill="#FCF9F0"/>
<path d="M53.5013 20.3371C53.4125 20.5801 53.2522 20.7907 53.0416 20.941C52.831 21.0913 52.5798 21.1744 52.3211 21.1794C52.0623 21.1844 51.8081 21.111 51.5919 20.9689C51.3756 20.8267 51.2074 20.6225 51.1093 20.3831C51.0112 20.1436 50.9878 19.8801 51.0422 19.6271C51.0967 19.3741 51.2263 19.1435 51.4142 18.9655C51.6021 18.7875 51.8394 18.6705 52.0949 18.6299C52.3505 18.5893 52.6124 18.6269 52.8462 18.7378C52.9943 18.7997 53.1287 18.8902 53.2418 19.0041C53.3549 19.118 53.4444 19.2531 53.5053 19.4016C53.5661 19.5502 53.5971 19.7092 53.5964 19.8697C53.5957 20.0303 53.5634 20.1891 53.5013 20.3371Z" fill="#1E222D"/>
<path d="M53.0216 19.6295C52.9847 19.749 52.9121 19.8544 52.8135 19.9314C52.715 20.0085 52.5952 20.0536 52.4703 20.0606C52.3454 20.0677 52.2213 20.0363 52.1147 19.9708C52.0081 19.9053 51.9241 19.8088 51.874 19.6942C51.8238 19.5796 51.8099 19.4523 51.8342 19.3296C51.8584 19.2069 51.9196 19.0945 52.0096 19.0075C52.0995 18.9206 52.2139 18.8632 52.3374 18.8432C52.4609 18.8231 52.5876 18.8413 52.7004 18.8953C52.8399 18.9507 52.9518 19.0589 53.012 19.1963C53.0721 19.3338 53.0756 19.4894 53.0216 19.6295Z" fill="#FBFDFC"/>
<path d="M53.2946 18.6109C53.275 18.5552 53.2946 18.6109 53.2803 18.5752L53.2435 18.5042L53.1914 18.4212L53.1798 18.4048C53.1389 18.3593 53.0991 18.3195 53.0544 18.2783C53.0096 18.237 53.0767 18.2842 53.0262 18.2547L52.9578 18.2125C52.7526 18.1041 52.5201 18.0584 52.2891 18.0811L52.2137 18.0848L52.1815 18.0762C52.1235 18.0846 52.0673 18.096 52.0104 18.11C51.9536 18.124 51.901 18.1418 51.8453 18.1614L51.7745 18.1876C51.8221 18.1685 51.7745 18.1876 51.7437 18.2032C51.713 18.2189 51.6414 18.2581 51.5936 18.2878L51.5319 18.3297C51.4343 18.3965 51.5565 18.3071 51.5047 18.3517C51.4619 18.3878 51.4213 18.4266 51.3833 18.4679C51.3655 18.4853 51.349 18.504 51.3338 18.5237C51.377 18.4715 51.307 18.5643 51.3038 18.5661C51.2495 18.65 51.1649 18.7099 51.0677 18.7332C50.9705 18.7566 50.868 18.7418 50.7814 18.6917C50.697 18.6378 50.6368 18.5532 50.6133 18.4558C50.5899 18.3584 50.6051 18.2557 50.6558 18.1693C50.8468 17.8998 51.0993 17.6797 51.3924 17.5273C51.6855 17.3749 52.0107 17.2945 52.341 17.2929C52.712 17.273 53.0806 17.3634 53.4002 17.5528C53.7009 17.7583 53.9252 18.0575 54.0381 18.4038C54.0641 18.5026 54.0504 18.6076 53.9998 18.6964C53.9492 18.7852 53.8657 18.8505 53.7674 18.8784C53.6691 18.9024 53.5653 18.8878 53.4775 18.8376C53.3896 18.7874 53.3244 18.7053 53.2953 18.6084L53.2946 18.6109Z" fill="#322D1A"/>
<path d="M54.5008 24.6054C54.4428 24.5048 53.8993 24.8081 53.3692 24.5464C52.839 24.2848 52.7451 23.6142 52.6329 23.6266C52.477 23.6433 52.2855 24.9227 53.0166 25.2674C53.7476 25.6121 54.5838 24.7418 54.5008 24.6054Z" fill="#1E222D"/>
<defs>
<clipPath id="clip0_3_12729">
<rect width="22.3023" height="22.3023" fill="white" transform="translate(6.41748 18.9286) rotate(-11.2206)"/>
</clipPath>
</defs>
</svg>
