<svg width="25" height="20" viewBox="0 0 25 20" fill="none" xmlns="http://www.w3.org/2000/svg">
<path d="M24.3776 3.01063C23.4801 3.40059 22.5305 3.6575 21.5588 3.77325C22.58 3.1753 23.3479 2.22535 23.7186 1.10157C22.7532 1.66611 21.6987 2.06221 20.6003 2.27292C20.1378 1.7882 19.5816 1.40258 18.9654 1.13952C18.3492 0.876461 17.686 0.741446 17.016 0.742684C14.3034 0.742684 12.1083 2.90595 12.1083 5.57265C12.1063 5.94358 12.1488 6.3134 12.2349 6.67422C10.2898 6.58304 8.3851 6.08684 6.64275 5.21738C4.9004 4.34793 3.35872 3.12435 2.11635 1.62494C1.68049 2.35971 1.44999 3.19806 1.44892 4.05238C1.44892 5.72717 2.3227 7.20756 3.6421 8.07486C2.8604 8.05631 2.09471 7.84942 1.41004 7.47174V7.53155C1.41004 9.87426 3.10477 11.8232 5.34779 12.2668C4.92599 12.3793 4.49134 12.4362 4.05481 12.4363C3.74507 12.4368 3.43602 12.4068 3.13219 12.3466C3.75574 14.2656 5.5706 15.6613 7.72041 15.7011C5.97353 17.0474 3.82883 17.775 1.62338 17.7697C1.23191 17.7691 0.840799 17.7458 0.452026 17.6999C2.69563 19.1326 5.30365 19.8904 7.96564 19.8831C17.0055 19.8831 21.9441 12.521 21.9441 6.1359C21.9441 5.92655 21.9387 5.7172 21.9287 5.51284C22.8872 4.83099 23.7165 3.98365 24.3776 3.01063Z" fill="#2F5DC0"/>
</svg>
