<svg width="23" height="22" viewBox="0 0 23 22" fill="none" xmlns="http://www.w3.org/2000/svg">
<path d="M9.96593 20.6232C10.5566 20.6232 11.0354 20.1444 11.0354 19.5538C11.0354 18.9632 10.5566 18.4844 9.96593 18.4844C9.37529 18.4844 8.89648 18.9632 8.89648 19.5538C8.89648 20.1444 9.37529 20.6232 9.96593 20.6232Z" stroke="#222222" stroke-width="1.5" stroke-linecap="round" stroke-linejoin="round"/>
<path d="M17.452 20.6232C18.0427 20.6232 18.5215 20.1444 18.5215 19.5538C18.5215 18.9632 18.0427 18.4844 17.452 18.4844C16.8614 18.4844 16.3826 18.9632 16.3826 19.5538C16.3826 20.1444 16.8614 20.6232 17.452 20.6232Z" stroke="#222222" stroke-width="1.5" stroke-linecap="round" stroke-linejoin="round"/>
<path d="M1.41235 1.37686H4.72114L7.20274 15.4392H20.4379" stroke="#222222" stroke-width="1.5" stroke-linecap="round" stroke-linejoin="round"/>
<path d="M6.75811 12.0357L20.0973 12.1293C20.193 12.1294 20.2857 12.0963 20.3597 12.0357C20.4337 11.9751 20.4844 11.8907 20.5032 11.7969L21.9921 4.35244C22.0041 4.29241 22.0026 4.23046 21.9878 4.17106C21.9729 4.11167 21.9451 4.05631 21.9063 4.00898C21.8675 3.96164 21.8186 3.92352 21.7633 3.89736C21.7079 3.87119 21.6475 3.85765 21.5862 3.85769L5.40747 3.85769" stroke="#222222" stroke-width="1.5" stroke-linecap="round" stroke-linejoin="round"/>
</svg>
