<svg width="16" height="13" viewBox="0 0 16 13" fill="none" xmlns="http://www.w3.org/2000/svg">
<path d="M14.0989 2.369H1.41492C1.25069 2.38333 1.08529 2.3633 0.929199 2.31028C0.773104 2.25726 0.629708 2.1724 0.508179 2.06101C0.386649 1.94963 0.289591 1.8142 0.223206 1.66331C0.15682 1.51241 0.122559 1.34928 0.122559 1.18443C0.122559 1.01957 0.15682 0.856563 0.223206 0.705667C0.289591 0.55477 0.386649 0.419349 0.508179 0.307961C0.629708 0.196574 0.773104 0.111712 0.929199 0.0586939C1.08529 0.00567583 1.25069 -0.0143509 1.41492 -2.1915e-05H14.0999C14.2641 -0.0143509 14.4295 0.00567583 14.5856 0.0586939C14.7417 0.111712 14.8851 0.196574 15.0067 0.307961C15.1282 0.419349 15.2252 0.55477 15.2916 0.705667C15.358 0.856563 15.3923 1.01957 15.3923 1.18443C15.3923 1.34928 15.358 1.51241 15.2916 1.66331C15.2252 1.8142 15.1282 1.94963 15.0067 2.06101C14.8851 2.1724 14.7417 2.25726 14.5856 2.31028C14.4295 2.3633 14.2632 2.38333 14.0989 2.369ZM15.3869 6.46897C15.3726 6.14134 15.229 5.83276 14.9876 5.61082C14.7462 5.38888 14.4266 5.27173 14.0989 5.28501H1.41492C1.25069 5.27068 1.08529 5.29059 0.929199 5.34361C0.773104 5.39662 0.629708 5.48161 0.508179 5.593C0.386649 5.70438 0.289591 5.8398 0.223206 5.9907C0.15682 6.1416 0.122559 6.30461 0.122559 6.46946C0.122559 6.63431 0.15682 6.79732 0.223206 6.94822C0.289591 7.09912 0.386649 7.23466 0.508179 7.34605C0.629708 7.45744 0.773104 7.5423 0.929199 7.59531C1.08529 7.64833 1.25069 7.66836 1.41492 7.65403H14.0999C14.4277 7.66704 14.7472 7.54959 14.9886 7.32749C15.2301 7.1054 15.3736 6.79669 15.3879 6.46897H15.3869ZM15.3869 11.753C15.3724 11.4255 15.2287 11.117 14.9873 10.8951C14.7459 10.6732 14.4265 10.5559 14.0989 10.5689H1.41492C1.25069 10.5546 1.08529 10.5746 0.929199 10.6277C0.773104 10.6807 0.629708 10.7655 0.508179 10.8769C0.386649 10.9883 0.289591 11.1237 0.223206 11.2746C0.15682 11.4255 0.122559 11.5887 0.122559 11.7535C0.122559 11.9184 0.15682 12.0814 0.223206 12.2323C0.289591 12.3832 0.386649 12.5186 0.508179 12.63C0.629708 12.7414 0.773104 12.8262 0.929199 12.8793C1.08529 12.9323 1.25069 12.9523 1.41492 12.938H14.0999C14.4275 12.951 14.747 12.8337 14.9883 12.6118C15.2297 12.3899 15.3734 12.0815 15.3879 11.754L15.3869 11.753Z" fill="#292626"/>
</svg>
