<svg width="20" height="20" viewBox="0 0 20 20" fill="none" xmlns="http://www.w3.org/2000/svg">
<path d="M19 10C19.0028 11.7868 18.4714 13.5336 17.474 15.016C16.6514 16.243 15.5391 17.2484 14.2356 17.9433C12.932 18.6382 11.4772 19.0011 10 19C8.52277 19.0011 7.06804 18.6382 5.76444 17.9433C4.46085 17.2484 3.34858 16.243 2.526 15.016C1.74273 13.8484 1.2439 12.5136 1.06951 11.1184C0.895109 9.72332 1.05 8.30675 1.52175 6.98228C1.9935 5.65781 2.769 4.46229 3.78607 3.49156C4.80314 2.52082 6.0335 1.80187 7.37851 1.39234C8.72352 0.98281 10.1458 0.894095 11.5312 1.13331C12.9167 1.37252 14.2269 1.933 15.3567 2.76982C16.4865 3.60664 17.4046 4.69653 18.0373 5.9521C18.67 7.20768 18.9997 8.59402 19 10Z" stroke="black"/>
<path d="M11.4999 7C11.4999 7.39782 11.3419 7.77936 11.0605 8.06066C10.7792 8.34196 10.3977 8.5 9.99989 8.5V9.5C10.3282 9.5 10.6533 9.43534 10.9566 9.3097C11.2599 9.18406 11.5355 8.99991 11.7677 8.76777C11.9998 8.53562 12.1839 8.26002 12.3096 7.95671C12.4352 7.65339 12.4999 7.3283 12.4999 7H11.4999ZM9.99989 8.5C9.60206 8.5 9.22053 8.34196 8.93923 8.06066C8.65792 7.77936 8.49989 7.39782 8.49989 7H7.49989C7.49989 7.3283 7.56455 7.65339 7.69019 7.95671C7.81582 8.26002 7.99997 8.53562 8.23212 8.76777C8.70096 9.23661 9.33685 9.5 9.99989 9.5V8.5ZM8.49989 7C8.49989 6.60218 8.65792 6.22064 8.93923 5.93934C9.22053 5.65804 9.60206 5.5 9.99989 5.5V4.5C9.33685 4.5 8.70096 4.76339 8.23212 5.23223C7.76328 5.70107 7.49989 6.33696 7.49989 7H8.49989ZM9.99989 5.5C10.3977 5.5 10.7792 5.65804 11.0605 5.93934C11.3419 6.22064 11.4999 6.60218 11.4999 7H12.4999C12.4999 6.33696 12.2365 5.70107 11.7677 5.23223C11.2988 4.76339 10.6629 4.5 9.99989 4.5V5.5ZM3.16589 15.856L2.68589 15.714L2.60889 15.975L2.78589 16.182L3.16589 15.856ZM16.8339 15.856L17.2139 16.182L17.3909 15.975L17.3129 15.714L16.8339 15.856ZM6.99989 13.5H12.9999V12.5H6.99989V13.5ZM6.99989 12.5C6.03074 12.4999 5.08745 12.8126 4.31034 13.3917C3.53324 13.9708 2.96285 14.7853 2.68589 15.714L3.64489 15.999C3.86046 15.2767 4.30344 14.6434 4.90794 14.1931C5.51243 13.7428 6.24613 13.4997 6.99989 13.5V12.5ZM9.99989 18.5C8.77315 18.5013 7.56074 18.2364 6.44631 17.7237C5.33188 17.2109 4.34197 16.4625 3.54489 15.53L2.78589 16.182C3.67694 17.2238 4.78332 18.0599 6.02876 18.6327C7.27419 19.2055 8.62904 19.5014 9.99989 19.5V18.5ZM12.9999 13.5C13.7538 13.4998 14.4876 13.743 15.0921 14.1935C15.6966 14.6439 16.1395 15.2775 16.3549 16L17.3129 15.714C17.0359 14.7853 16.4665 13.9708 15.6894 13.3917C14.9123 12.8126 13.969 12.4999 12.9999 12.5V13.5ZM16.4549 15.53C15.6578 16.4625 14.6679 17.2109 13.5535 17.7237C12.439 18.2364 11.2266 18.5013 9.99989 18.5V19.5C11.3707 19.5014 12.7256 19.2055 13.971 18.6327C15.2165 18.0599 16.3228 17.2238 17.2139 16.182L16.4549 15.53Z" fill="black"/>
</svg>
